<svg width="84" height="84" viewBox="0 0 84 84" fill="none" xmlns="http://www.w3.org/2000/svg">
<g clip-path="url(#clip0)">
<path d="M42.0096 0C18.8048 0 0 18.8048 0 42.0096C0 65.2143 18.8048 84.0191 42.0096 84.0191C65.2143 84.0191 84.0191 65.2143 84.0191 42.0096C84.0191 18.8048 65.1952 0 42.0096 0ZM42.0096 77.7636C28.1594 77.7636 16.1266 69.882 10.1963 58.3466H73.8228C67.8734 69.882 55.8597 77.7636 42.0096 77.7636ZM7.03985 49.5277C6.52334 47.0981 6.23639 44.573 6.23639 41.9904C6.23639 22.2482 22.2482 6.23639 41.9904 6.23639C61.7326 6.23639 77.7445 22.2482 77.7445 41.9904C77.7445 44.573 77.4766 47.0981 76.941 49.5277H7.03985Z" fill="white"/>
<path d="M68.1986 42.4878H69.6908L71.0107 40.2304L72.3881 42.4878H73.9759L71.8907 39.0826L73.7272 36.0218H72.2542L71.1638 37.9539L70.016 36.0218H68.3899L70.2838 39.0635L68.1986 42.4878ZM63.99 42.5834C65.7882 42.5834 66.5917 41.5886 66.5917 40.0009V36.0218H65.1952V39.9817C65.1952 40.9191 64.8509 41.4356 64.0091 41.4356C63.1674 41.4356 62.8039 40.9191 62.8039 39.9817V36.0218H61.3883V40.0009C61.3692 41.5886 62.1918 42.5834 63.99 42.5834ZM55.1711 42.4878H59.724V41.34H56.5867V39.733H58.7484V38.6044H56.5867V37.2079H59.571V36.0218H55.1711V42.4878ZM51.4981 42.4878H52.9137V36.0218H51.4981V42.4878ZM45.7973 38.9487V37.1887H46.773C47.5956 37.1887 47.9782 37.4183 47.9782 38.0687C47.9782 38.7191 47.5764 38.9678 46.773 38.9678H45.7973V38.9487ZM44.4009 42.4878H45.7973V40.0582H46.6199L47.959 42.4878H49.4512L48.0164 39.8669C48.8773 39.5991 49.3555 39.0444 49.3555 38.0305C49.3555 36.5957 48.399 36.0409 46.8112 36.0409H44.3817V42.4878H44.4009ZM39.3888 35.6392H40.307L41.6079 34.1279H40.1922L39.3888 35.6392ZM37.9923 42.4878H42.5452V41.34H39.4079V39.733H41.5696V38.6044H39.4079V37.2079H42.3922V36.0218H37.9923V42.4878ZM29.2116 42.4878H30.4933V38.0113H30.5124C30.6464 38.7574 30.742 39.0252 30.895 39.5226L31.8515 42.4878H33.1141L34.0898 39.5226C34.2237 39.0444 34.3576 38.6426 34.4532 38.0879H34.4724V42.4878H35.8497V36.0218H33.9367L32.5976 40.7661H32.5211L31.0863 36.0218H29.2116V42.4878ZM24.2761 41.4547C23.2813 41.4547 22.65 40.5939 22.65 39.2548C22.65 37.9157 23.2622 37.074 24.2761 37.074C25.2708 37.074 25.9021 37.8965 25.9021 39.2548C25.9021 40.613 25.2708 41.4547 24.2761 41.4547ZM24.2761 42.6025C25.8256 42.6025 27.3177 41.5121 27.3177 39.2548C27.3177 36.9974 25.8256 35.907 24.2761 35.907C22.7074 35.907 21.2344 36.9974 21.2344 39.2548C21.2344 41.5121 22.7074 42.6025 24.2761 42.6025ZM17.8484 42.4878H19.264V36.0218H17.8484V42.4878ZM12.0902 41.3973V39.6948H13.1806C13.965 39.6948 14.3667 39.9817 14.3667 40.5365C14.3667 41.0913 14.0224 41.3973 13.238 41.3973H12.0902ZM12.0902 38.6809V37.1122H13.1615C13.9267 37.1122 14.2328 37.3992 14.2328 37.8966C14.2328 38.3939 13.8884 38.6809 13.1424 38.6809H12.0902ZM10.6937 42.4878H13.3911C14.5963 42.4878 15.7441 42.0095 15.7441 40.7087C15.7441 39.6756 15.1319 39.2739 14.3476 39.1209V39.1017C14.998 38.9678 15.5719 38.5278 15.5719 37.6096C15.5719 36.3088 14.4623 36.0218 13.2763 36.0218H10.6937V42.4878Z" fill="white"/>
</g>
<defs>
<clipPath id="clip0">
<rect width="84" height="84" fill="white"/>
</clipPath>
</defs>
</svg>
