<svg width="22" height="24" viewBox="0 0 22 24" fill="none" xmlns="http://www.w3.org/2000/svg">
<path d="M20.0836 18.1387C19.9022 18.1454 19.7208 18.1512 19.5401 18.1512C18.0632 18.1546 16.6007 17.8609 15.2395 17.2876C13.8783 16.7143 12.6464 15.8731 11.6168 14.8141C9.50194 12.6708 8.32236 9.77688 8.33635 6.76581C8.3335 5.06507 8.70692 3.38476 9.42985 1.84532C9.68763 1.34429 9.97124 0.856973 10.2795 0.385336C10.3069 0.345503 10.3219 0.298493 10.3227 0.250173C10.3236 0.201853 10.3101 0.154363 10.2841 0.113631C10.2581 0.0728978 10.2207 0.0407264 10.1765 0.0211314C10.1323 0.00153646 10.0834 -0.00461426 10.0357 0.0034472C7.21808 0.47728 4.66105 1.93847 2.82234 4.12546C0.983632 6.31245 -0.0167247 9.08246 0.000338383 11.9397C-0.0235144 15.1142 1.21454 18.1681 3.44218 20.4298C5.66982 22.6915 8.70461 23.9757 11.879 24C13.6082 23.9987 15.3158 23.6167 16.8808 22.8812C18.4457 22.1456 19.8295 21.0746 20.934 19.7441C21.3102 19.3163 21.6539 18.861 21.9621 18.3818C21.9877 18.3406 22.0008 18.2929 22 18.2444C21.9991 18.1959 21.9842 18.1487 21.9571 18.1084C21.9301 18.0682 21.892 18.0366 21.8474 18.0175C21.8028 17.9984 21.7537 17.9925 21.7058 18.0007C21.1694 18.0879 20.6271 18.1341 20.0836 18.1387Z" fill="white"/>
</svg>
