<svg width="51" height="51" viewBox="0 0 51 51" fill="none" xmlns="http://www.w3.org/2000/svg">
<path d="M40.375 21.3039V10.625C40.375 8.28112 38.4689 6.375 36.1249 6.375H4.24993C1.90603 6.375 0 8.28103 0 10.625V31.875C0 34.2189 1.90603 36.125 4.25003 36.125H28.0781C29.4702 41.0231 33.9741 44.625 39.3125 44.625C41.367 44.625 43.3872 44.0844 45.1573 43.0603C45.6647 42.7667 45.839 42.1171 45.5443 41.6087C45.2506 41.1003 44.6001 40.9249 44.0927 41.2217C42.6463 42.0581 40.9933 42.5 39.3124 42.5C34.0393 42.5 29.7499 38.2106 29.7499 32.9375C29.7499 27.6645 34.0394 23.375 39.3124 23.375C44.5855 23.375 48.8749 27.6645 48.8749 32.9375V34.0001C48.8749 35.1715 47.9214 36.125 46.75 36.125C45.5786 36.125 44.625 35.1715 44.625 34.0001V29.75C44.625 29.1627 44.1498 28.6875 43.5625 28.6875C43.2767 28.6875 43.0199 28.8031 42.8291 28.9863C41.89 28.1495 40.6662 27.625 39.3124 27.625C36.3833 27.625 34 30.0083 34 32.9374C34 35.8665 36.3833 38.25 39.3125 38.25C40.8959 38.25 42.3038 37.5397 43.278 36.4369C44.0477 37.5303 45.314 38.25 46.7501 38.25C49.094 38.25 51 36.344 51 34V32.9374C51 26.8516 46.3227 21.8431 40.375 21.3039ZM4.25003 8.49997H36.125C36.1693 8.49997 36.2063 8.52258 36.2499 8.52527L21.0612 20.9927C20.5206 21.333 19.7372 21.2624 19.3855 21.0467L4.12642 8.52507C4.16955 8.52248 4.2062 8.49997 4.25003 8.49997ZM38.25 21.3039C32.3022 21.8431 27.625 26.8516 27.625 32.9375C27.625 33.2961 27.647 33.6495 27.6788 34.0001H4.25003C3.07863 34.0001 2.12507 33.0465 2.12507 31.8751V10.625C2.12507 10.3241 2.19151 10.0399 2.30486 9.78035L18.1311 22.7587C18.7495 23.1624 19.4603 23.3751 20.1876 23.3751C20.887 23.3751 21.5707 23.178 22.1725 22.8045C22.2327 22.7723 22.2898 22.7339 22.3438 22.6893L38.0701 9.78015C38.1836 10.0399 38.2501 10.3241 38.2501 10.6251V21.3039H38.25ZM39.3125 36.125C37.5548 36.125 36.125 34.6952 36.125 32.9375C36.125 31.1798 37.5548 29.75 39.3125 29.75C41.0702 29.75 42.5 31.1798 42.5 32.9375C42.5 34.6952 41.0702 36.125 39.3125 36.125Z" fill="white"/>
</svg>
