<svg width="213" height="60" viewBox="0 0 213 60" fill="none" xmlns="http://www.w3.org/2000/svg">
<g clip-path="url(#clip0)">
<path d="M63.9454 45.6819H59.9488V14.9091H78.0243V18.6818H63.9V28.7728H76.6164V32.4546H63.9L63.9454 45.6819ZM85.5179 19.3182C84.5641 20.2728 83.0654 20.4091 81.9754 19.6818C80.8855 18.9546 80.4313 17.5 80.9309 16.2728C81.4305 15.0455 82.7475 14.3182 84.0646 14.5909C85.3816 14.8637 86.3354 16 86.3354 17.3182C86.3808 18.0909 86.0629 18.8182 85.5179 19.3182ZM85.5179 45.6819H81.5213V24.6364H85.5179V45.6819ZM94.2831 45.6819H90.2865V24.6364H94.1015V28.0909H94.2831C94.7373 26.8637 95.6456 25.8637 96.781 25.2728C97.871 24.5909 99.1426 24.1818 100.46 24.1364C101.459 24.0909 102.503 24.2728 103.457 24.6364L101.958 28.3182C101.277 28.0909 100.551 28 99.8238 28C98.3705 28 96.9626 28.6364 96.0089 29.6819C94.9189 30.8182 94.3285 32.3182 94.3285 34.1364L94.2831 45.6819ZM114.311 46.3637C111.087 46.3637 108.498 45.3182 106.5 43.1819C104.502 41.0455 103.503 38.3637 103.503 35.1364C103.457 32.2273 104.502 29.4091 106.409 27.2273C108.271 25.0455 110.996 23.8182 113.857 23.9091C116.991 23.9091 119.534 24.9091 121.396 26.9546C123.258 29 124.212 31.7273 124.212 35.1364L124.167 35.8637H107.408C107.545 38 108.226 39.6819 109.543 40.9091C110.769 42.0909 112.449 42.7728 114.13 42.7728C116.991 42.7728 118.898 41.5455 119.943 39.1819L123.485 40.6364C122.759 42.3182 121.578 43.7273 120.079 44.7273C118.581 45.8182 116.628 46.3637 114.311 46.3637ZM120.034 32.5909C119.943 31.3637 119.398 30.2273 118.353 29.1364C117.309 28.0455 115.81 27.5 113.766 27.5455C112.359 27.5 110.996 28 109.952 28.9091C108.816 29.8637 108.044 31.1818 107.726 32.5909H120.034ZM138.7 46.3637C137.201 46.4091 135.702 46.0455 134.385 45.3637C133.204 44.7728 132.205 43.8637 131.524 42.7728H131.342V45.6819H127.527V14.9091H131.524V24.6364L131.342 27.5455H131.524C132.251 26.4546 133.25 25.5455 134.385 24.9546C135.702 24.2728 137.201 23.9091 138.7 23.9091C141.425 23.9091 143.832 25 145.785 27.1364C147.737 29.2728 148.782 31.9546 148.782 35.1364C148.782 38.3182 147.783 41 145.785 43.1819C143.786 45.3637 141.425 46.4091 138.7 46.3637ZM138.019 42.7728C139.835 42.7728 141.561 42.0455 142.787 40.6819C144.104 39.2728 144.785 37.4546 144.785 35.1364C144.785 32.8182 144.104 31 142.787 29.5909C141.561 28.2728 139.835 27.5 138.019 27.5C136.202 27.5 134.476 28.2273 133.25 29.5455C131.933 30.9091 131.297 32.7728 131.297 35.0909C131.297 37.4091 131.978 39.2728 133.295 40.6364C134.476 42.0455 136.247 42.8182 138.019 42.7728ZM158.91 46.3637C156.639 46.3637 154.777 45.7273 153.278 44.4091C151.779 43.0909 151.007 41.4091 151.007 39.2728C151.007 37 151.916 35.1819 153.687 33.8637C155.458 32.5455 157.684 31.9091 160.318 31.9091C162.634 31.9091 164.587 32.3182 166.085 33.1819V32.5909C166.131 31.1818 165.54 29.8182 164.496 28.8637C163.406 27.9091 161.998 27.4546 160.545 27.5C159.455 27.5 158.365 27.7728 157.411 28.3182C156.503 28.8182 155.822 29.5909 155.504 30.5455L151.87 29C152.37 27.7273 153.324 26.5455 154.777 25.5C156.23 24.4546 158.138 23.8637 160.499 23.9091C163.224 23.9091 165.45 24.6818 167.266 26.2728C169.083 27.8637 169.946 30.0455 169.946 32.9546V45.7273H166.131V42.8182H165.949C164.314 45.1819 161.998 46.3637 158.91 46.3637ZM159.546 42.7728C161.226 42.7728 162.816 42.1364 164.042 40.9546C165.313 39.8637 166.085 38.3182 166.085 36.6364C164.95 35.7273 163.27 35.2728 160.999 35.2728C159.046 35.2728 157.593 35.6819 156.639 36.5C155.731 37.1819 155.186 38.2728 155.186 39.4091C155.186 40.4091 155.685 41.3182 156.548 41.8637C157.411 42.5 158.501 42.7728 159.546 42.7728ZM181.618 46.3637C179.256 46.3637 177.303 45.7728 175.759 44.6364C174.26 43.5455 173.08 42.0455 172.398 40.3182L175.941 38.8637C177.076 41.5 178.984 42.8182 181.709 42.8182C182.798 42.8637 183.843 42.5909 184.751 42C185.478 41.5455 185.932 40.7273 185.932 39.8637C185.932 38.5 184.978 37.5455 183.026 37.0455L178.756 36C177.349 35.6364 176.032 34.9546 174.896 34.0455C173.715 33.1364 173.034 31.6819 173.08 30.1364C173.08 28.2728 173.897 26.7728 175.577 25.5909C177.303 24.4091 179.392 23.8182 181.481 23.8637C183.253 23.8182 184.978 24.2728 186.523 25.1364C187.976 25.9546 189.066 27.2273 189.702 28.7728L186.25 30.1819C185.478 28.3182 183.843 27.3637 181.391 27.3637C180.346 27.3182 179.301 27.5909 178.393 28.0909C177.666 28.4546 177.167 29.2273 177.167 30.0909C177.167 31.3182 178.121 32.1364 179.983 32.5455L184.161 33.5455C186.159 34 187.613 34.7728 188.566 35.9091C189.475 36.9546 190.02 38.3182 189.974 39.6819C189.974 41.5455 189.111 43.2728 187.658 44.4091C186.068 45.7273 184.07 46.3637 181.618 46.3637ZM203.054 46.3637C199.829 46.3637 197.241 45.3182 195.242 43.1819C193.244 41.0455 192.245 38.3637 192.245 35.1364C192.2 32.2273 193.244 29.4091 195.152 27.2273C197.014 25.0455 199.784 23.8637 202.645 23.9091C205.824 23.9091 208.322 24.9091 210.184 26.9546C212.046 29 213 31.7273 213 35.1364L212.955 35.8637H196.196C196.332 38 197.014 39.6819 198.331 40.9091C199.557 42.0909 201.237 42.7728 202.963 42.7728C205.824 42.7728 207.732 41.5455 208.776 39.1819L212.319 40.6364C211.592 42.3182 210.411 43.7273 208.913 44.7273C207.278 45.8182 205.325 46.3637 203.054 46.3637ZM208.731 32.5909C208.64 31.3637 208.095 30.2273 207.05 29.1364C206.006 28.0455 204.507 27.5 202.464 27.5455C201.056 27.5 199.693 28 198.649 28.9091C197.513 29.8637 196.741 31.1818 196.423 32.5909H208.731Z" fill="white"/>
<path d="M0.363312 48.0454L7.72067 1.13635C7.8115 0.545442 8.26566 0.0908967 8.81065 -1.23672e-05C9.35564 -0.0909215 9.94604 0.181806 10.2185 0.681806L17.803 14.8182L20.8458 9.0909C21.0729 8.63635 21.5271 8.36362 22.0266 8.36362C22.5262 8.36362 22.9804 8.63635 23.2075 9.0909L43.6446 48.0454H0.363312Z" fill="#D8DADA"/>
<path d="M25.7053 29.7727L17.803 14.8636L0.363312 48.0455L25.7053 29.7727Z" fill="#CDCFD0"/>
<path d="M43.69 48.0454L38.0584 13.3182C37.9676 12.8182 37.6043 12.4091 37.1501 12.2727C36.6959 12.1363 36.1509 12.2273 35.7876 12.5909L0.363312 48.0454L19.9829 59.0454C21.2092 59.7273 22.7079 59.7273 23.9341 59.0454L43.69 48.0454Z" fill="#E6E7E8"/>
<path d="M38.0584 13.3185C37.9676 12.8185 37.6043 12.4094 37.1501 12.273C36.6959 12.1367 36.1509 12.2276 35.7876 12.5912L28.7482 19.6367L23.2075 9.09122C22.9804 8.63667 22.5262 8.36395 22.0266 8.36395C21.5271 8.36395 21.0729 8.63667 20.8458 9.09122L17.803 14.8639L10.2185 0.727582C9.94604 0.227582 9.35564 -0.0451451 8.81065 0.045764C8.26566 0.136673 7.8115 0.591219 7.72067 1.13667L0.363312 48.0458L0.408728 48.0912L0.590391 48.1821L35.7876 12.9094C36.1509 12.5458 36.6959 12.4094 37.1501 12.5912C37.6043 12.773 37.9676 13.1367 38.0584 13.6367L43.5991 48.0912L43.6446 48.0458L38.0584 13.3185ZM0.454143 48.0003L7.72067 1.50031C7.8115 0.9094 8.22024 0.454855 8.81065 0.363946C9.40105 0.273037 9.94604 0.545764 10.2185 1.04576L17.803 15.1821L20.8458 9.4094C21.0729 8.95486 21.5271 8.68213 22.0266 8.68213C22.5262 8.68213 22.9804 8.95486 23.2075 9.4094L28.6119 19.7276L0.454143 48.0003Z" fill="white" fill-opacity="0.2"/>
<path opacity="0.2" d="M23.9341 58.7273C22.7079 59.4091 21.2092 59.4091 19.9829 58.7273L0.454138 47.7727L0.408722 48.0909L19.9829 59.0455C21.2092 59.7273 22.7079 59.7273 23.9341 59.0455L43.69 48.0455L43.6445 47.7273L23.9341 58.7273Z" fill="#231F20"/>
<path d="M38.0134 13.319C37.9226 12.819 37.5592 12.4099 37.1051 12.2735C36.6509 12.1372 36.1059 12.2281 35.7426 12.5917L28.7032 19.6372L23.2079 9.13716C22.9808 8.68262 22.5266 8.40989 22.0271 8.40989C21.5275 8.40989 21.0733 8.68262 20.8462 9.13716L17.8488 14.9099L10.2644 0.72807C9.99187 0.22807 9.40147 -0.0446568 8.85648 0.0462523C8.31149 0.137161 7.85733 0.591707 7.7665 1.18262L0.454559 48.0463L19.9833 59.0462C21.2096 59.7281 22.7083 59.7281 23.9345 59.0462L43.5995 48.0463L38.0134 13.319Z" fill="url(#paint0_linear)"/>
</g>
<defs>
<linearGradient id="paint0_linear" x1="-1.05393" y1="10.1567" x2="52.8072" y2="38.5436" gradientUnits="userSpaceOnUse">
<stop stop-color="white" stop-opacity="0.1"/>
<stop offset="0.14" stop-color="white" stop-opacity="0.08"/>
<stop offset="0.61" stop-color="white" stop-opacity="0.02"/>
<stop offset="1" stop-color="white" stop-opacity="0"/>
</linearGradient>
<clipPath id="clip0">
<rect width="213" height="60" fill="white"/>
</clipPath>
</defs>
</svg>
