<svg width="25" height="25" viewBox="0 0 25 25" fill="none" xmlns="http://www.w3.org/2000/svg">
<path d="M23.323 6.53138C22.2053 4.6162 20.6891 3.09995 18.7741 1.98228C16.8588 0.864565 14.7678 0.305847 12.4998 0.305847C10.232 0.305847 8.14042 0.864736 6.22553 1.98228C4.31035 3.09989 2.79421 4.6162 1.67644 6.53138C0.558832 8.4465 0 10.5378 0 12.8053C0 15.5291 0.794666 17.9783 2.3844 20.1537C3.97396 22.3293 6.02743 23.8347 8.54465 24.6702C8.83767 24.7246 9.05457 24.6863 9.19561 24.5564C9.3367 24.4263 9.40716 24.2634 9.40716 24.0683C9.40716 24.0358 9.40437 23.7429 9.39895 23.1894C9.39336 22.636 9.39074 22.1531 9.39074 21.7411L9.01638 21.8059C8.7777 21.8496 8.47659 21.8682 8.11306 21.8629C7.7497 21.8578 7.37249 21.8198 6.98194 21.749C6.59122 21.6788 6.22781 21.516 5.89142 21.261C5.55519 21.006 5.31651 20.6723 5.17542 20.2602L5.01267 19.8857C4.90418 19.6364 4.73339 19.3594 4.50007 19.0557C4.26674 18.7519 4.03079 18.5458 3.79211 18.4373L3.67815 18.3558C3.60222 18.3016 3.53176 18.2362 3.4666 18.1603C3.4015 18.0844 3.35276 18.0085 3.32021 17.9324C3.2876 17.8563 3.31462 17.7939 3.40156 17.745C3.48849 17.696 3.6456 17.6722 3.87357 17.6722L4.19896 17.7208C4.41598 17.7643 4.68442 17.8943 5.00463 18.1114C5.32466 18.3284 5.58774 18.6104 5.79394 18.9575C6.04362 19.4025 6.34444 19.7415 6.69726 19.9749C7.04978 20.2082 7.40522 20.3247 7.76321 20.3247C8.12121 20.3247 8.43041 20.2975 8.69093 20.2435C8.95117 20.1893 9.19532 20.1077 9.42329 19.9993C9.52094 19.272 9.78682 18.7133 10.2207 18.3227C9.60229 18.2577 9.04631 18.1598 8.55246 18.0297C8.0589 17.8994 7.54887 17.6879 7.0227 17.3946C6.49625 17.1018 6.05953 16.7382 5.71242 16.3043C5.36525 15.8703 5.08033 15.3005 4.85807 14.5954C4.63568 13.89 4.52447 13.0763 4.52447 12.154C4.52447 10.8409 4.95315 9.72344 5.81035 8.80108C5.4088 7.81385 5.44671 6.70713 5.92419 5.48104C6.23887 5.38327 6.70552 5.45664 7.32392 5.70068C7.94244 5.94484 8.3953 6.154 8.68295 6.32741C8.9706 6.50077 9.20108 6.64767 9.37472 6.76681C10.384 6.4848 11.4256 6.34377 12.4997 6.34377C13.5738 6.34377 14.6156 6.4848 15.6249 6.76681L16.2434 6.37638C16.6663 6.11586 17.1658 5.87712 17.7405 5.6601C18.3156 5.44319 18.7553 5.38344 19.0593 5.48121C19.5474 6.70736 19.5909 7.81402 19.1892 8.80125C20.0463 9.72361 20.4752 10.8413 20.4752 12.1542C20.4752 13.0764 20.3636 13.8927 20.1415 14.6035C19.9192 15.3144 19.6318 15.8837 19.2793 16.3125C18.9264 16.7412 18.4869 17.102 17.9607 17.3948C17.4344 17.6878 16.9242 17.8993 16.4307 18.0296C15.9369 18.16 15.3809 18.2579 14.7625 18.323C15.3265 18.8111 15.6086 19.5815 15.6086 20.634V24.0678C15.6086 24.2629 15.6764 24.4258 15.8122 24.5559C15.9478 24.6859 16.162 24.7241 16.455 24.6697C18.9726 23.8344 21.026 22.3289 22.6155 20.1533C24.2049 17.9779 24.9998 15.5286 24.9998 12.8049C24.9993 10.5377 24.4401 8.4465 23.323 6.53138Z" fill="white"/>
</svg>
