<svg width="48" height="46" viewBox="0 0 48 46" fill="none" xmlns="http://www.w3.org/2000/svg">
<path d="M11.5148 6.27834C11.5148 9.22801 8.95813 11.6192 5.80429 11.6192C2.65044 11.6192 0.09375 9.22801 0.09375 6.27834C0.09375 3.32868 2.65044 0.9375 5.80429 0.9375C8.95813 0.9375 11.5148 3.32868 11.5148 6.27834Z" fill="white"/>
<path d="M0.874678 15.5449H10.6363V45.125H0.874678V15.5449Z" fill="white"/>
<path d="M26.3524 15.5449H16.5909V45.125H26.3524C26.3524 45.125 26.3524 35.8128 26.3524 29.9903C26.3524 26.4956 27.5457 22.9856 32.307 22.9856C37.6879 22.9856 37.6555 27.559 37.6304 31.1021C37.5976 35.7334 37.6759 40.4596 37.6759 45.125H47.4375V29.5133C47.3548 19.5448 44.7573 14.9515 36.2117 14.9515C31.1367 14.9515 27.9909 17.2555 26.3524 19.34V15.5449Z" fill="white"/>
</svg>
