<svg width="25" height="25" viewBox="0 0 25 25" fill="none" xmlns="http://www.w3.org/2000/svg">
<path d="M16.7893 12.4999L18.934 14.6446L23.2233 10.3553C25.5922 7.98638 25.5922 4.1456 23.2233 1.77669C20.8544 -0.592229 17.0136 -0.592229 14.6446 1.77669L10.3553 6.06599L12.5 8.21064L16.7893 3.92134C17.9738 2.73688 19.8942 2.73688 21.0786 3.92134C22.2631 5.1058 22.2631 7.02618 21.0786 8.21064L16.7893 12.4999Z" fill="#00398F"/>
<path d="M12.5 16.7894L14.6447 18.934L10.3554 23.2233C7.98643 25.5922 4.14563 25.5922 1.7767 23.2233C-0.592233 20.8544 -0.592234 17.0136 1.7767 14.6447L6.06603 10.3554L8.2107 12.5001L3.92137 16.7894C2.7369 17.9738 2.7369 19.8942 3.92137 21.0787C5.10583 22.2631 7.02623 22.2631 8.2107 21.0787L12.5 16.7894Z" fill="#00398F"/>
<path d="M16.7894 10.3552C17.3816 9.76296 17.3816 8.80276 16.7894 8.21053C16.1971 7.61831 15.2369 7.61831 14.6447 8.21053L8.2107 14.6445C7.61846 15.2367 7.61846 16.1969 8.2107 16.7891C8.80293 17.3814 9.76313 17.3814 10.3554 16.7891L16.7894 10.3552Z" fill="#00398F"/>
</svg>
