<svg width="614" height="143" viewBox="0 0 614 143" fill="none" xmlns="http://www.w3.org/2000/svg">
<g clip-path="url(#clip0)">
<path d="M195.2 46.7H174.3V41.3H222V46.7H201.1V104.5H195.1V46.7H195.2Z" fill="black"/>
<path d="M224.3 102.4C221.2 100.5 218.7 97.8 217 94.2C215.3 90.7 214.4 86.5 214.4 81.7V81.6C214.4 76.8 215.3 72.6 217 69.1C218.7 65.6 221.2 62.9 224.3 61C227.4 59.1 231 58.1 235.1 58.1C239.2 58.1 242.9 59.1 246 61C249.1 62.9 251.5 65.6 253.3 69.1C255.1 72.6 255.9 76.8 255.9 81.6V81.7C255.9 86.5 255 90.7 253.3 94.2C251.5 97.7 249.1 100.4 246 102.4C242.9 104.3 239.3 105.3 235.1 105.3C231 105.3 227.4 104.3 224.3 102.4ZM243 97.9C245.2 96.4 246.9 94.3 248.2 91.6C249.4 88.8 250 85.5 250 81.7V81.6C250 77.7 249.4 74.5 248.2 71.7C247 69 245.2 66.9 243 65.4C240.8 64 238.1 63.2 235.1 63.2C232.2 63.2 229.6 63.9 227.4 65.4C225.2 66.9 223.5 69 222.2 71.7C221 74.4 220.3 77.7 220.3 81.5V81.6C220.3 85.4 220.9 88.7 222.2 91.5C223.4 94.3 225.2 96.4 227.4 97.8C229.6 99.3 232.2 100 235.2 100C238.1 100.1 240.7 99.4 243 97.9Z" fill="black"/>
<path d="M263.1 41.3H268.9V104.4H263.1V41.3Z" fill="black"/>
<path d="M285.5 103.2C283.1 101.8 281.3 99.9 280 97.3C278.7 94.7 278.1 91.7 278.1 88.1V59H283.9V87.2C283.9 91.4 284.9 94.7 287 96.9C289.1 99.1 292 100.2 295.9 100.2C298.6 100.2 300.9 99.6 302.9 98.4C304.9 97.2 306.4 95.5 307.5 93.4C308.6 91.3 309.2 88.8 309.2 86V59H314.9V104.5H309V96.7H308.8C307.7 99.2 305.8 101.2 303.4 102.8C300.9 104.4 297.8 105.2 294.1 105.2C290.8 105.2 287.9 104.6 285.5 103.2Z" fill="black"/>
<path d="M342.2 41.3H348.2V99.1H379.8V104.5H342.3V41.3H342.2Z" fill="black"/>
<path d="M391.2 103.6C388.9 102.5 387.2 100.9 385.9 98.9C384.6 96.9 384 94.5 384 91.9V91.8C384 87.9 385.4 84.9 388.2 82.6C391 80.3 395.1 79 400.3 78.7L417.4 77.6V82.1L401 83.2C397.4 83.5 394.7 84.3 392.8 85.8C390.9 87.3 389.9 89.3 389.9 91.8V91.9C389.9 94.4 390.9 96.4 392.8 98C394.7 99.5 397.2 100.3 400.3 100.3C403 100.3 405.4 99.7 407.5 98.6C409.6 97.5 411.4 95.9 412.6 94C413.9 92 414.5 89.9 414.5 87.4V73.8C414.5 70.5 413.5 67.9 411.5 66.1C409.5 64.2 406.8 63.3 403.2 63.3C399.9 63.3 397.2 64 395.1 65.5C393 67 391.7 69 391.2 71.6L391.1 72H385.5V71.5C385.8 68.9 386.7 66.6 388.2 64.5C389.7 62.5 391.7 60.9 394.2 59.8C396.7 58.6 399.7 58.1 403.1 58.1C406.6 58.1 409.6 58.7 412.1 60C414.6 61.2 416.6 63 418 65.3C419.4 67.6 420.1 70.3 420.1 73.4V104.6H414.3V96.2H414.2C413.4 98 412.2 99.6 410.7 101C409.2 102.4 407.4 103.4 405.4 104.2C403.4 105 401.3 105.4 399 105.4C396.1 105.3 393.5 104.7 391.2 103.6Z" fill="black"/>
<path d="M424.9 59H430.7L441 98H441.1L452.4 59H458.2L469.6 98H469.8L480 59H485.8L472.8 104.5H466.7L455.4 66.7H455.3L444 104.5H437.9L424.9 59Z" fill="black"/>
<path d="M497.3 103.6C494.7 102.4 492.7 100.9 491.2 98.8C489.7 96.8 488.8 94.4 488.5 91.7V91.3H494.2L494.3 91.7C494.8 94.4 496 96.5 498.1 98C500.2 99.6 502.9 100.3 506.3 100.3C508.6 100.3 510.6 100 512.3 99.3C514 98.7 515.3 97.7 516.2 96.5C517.1 95.3 517.6 93.9 517.6 92.3C517.6 90.3 517 88.7 515.8 87.6C514.6 86.4 512.4 85.5 509.4 84.8L502.5 83.2C498.2 82.2 495 80.7 492.9 78.7C490.8 76.7 489.8 74.2 489.8 71.1C489.8 68.6 490.5 66.3 491.9 64.4C493.3 62.5 495.2 60.9 497.6 59.8C500 58.7 502.8 58.1 506 58.1C509.2 58.1 512.1 58.7 514.5 59.8C516.9 61 518.8 62.5 520.2 64.6C521.6 66.6 522.4 69 522.6 71.6V72.1H517.1V71.8C516.7 69.1 515.6 67 513.7 65.4C511.8 63.8 509.2 63 506 63C503.9 63 502.1 63.3 500.6 64C499.1 64.7 497.9 65.6 497 66.8C496.2 68 495.7 69.3 495.7 70.9C495.7 72.7 496.4 74.2 497.7 75.4C499 76.6 501.2 77.6 504.2 78.3L511 79.9C515.6 81 518.8 82.5 520.7 84.4C522.6 86.3 523.6 88.9 523.6 92C523.6 94.6 522.9 96.9 521.4 98.9C519.9 100.9 517.9 102.4 515.3 103.6C512.7 104.7 509.8 105.3 506.4 105.3C502.9 105.3 499.9 104.7 497.3 103.6Z" fill="black"/>
<path d="M538 102.4C534.9 100.5 532.4 97.8 530.7 94.2C529 90.7 528.1 86.5 528.1 81.7V81.6C528.1 76.8 529 72.6 530.7 69.1C532.4 65.6 534.9 62.9 538 61C541.1 59.1 544.7 58.1 548.8 58.1C552.9 58.1 556.6 59.1 559.7 61C562.8 62.9 565.2 65.6 567 69.1C568.8 72.6 569.6 76.8 569.6 81.6V81.7C569.6 86.5 568.7 90.7 567 94.2C565.2 97.7 562.8 100.4 559.7 102.4C556.6 104.3 553 105.3 548.8 105.3C544.7 105.3 541.1 104.3 538 102.4ZM556.7 97.9C558.9 96.4 560.6 94.3 561.9 91.6C563.1 88.8 563.7 85.5 563.7 81.7V81.6C563.7 77.7 563.1 74.5 561.9 71.7C560.7 69 558.9 66.9 556.7 65.4C554.5 64 551.8 63.2 548.8 63.2C545.9 63.2 543.3 63.9 541.1 65.4C538.9 66.9 537.2 69 535.9 71.7C534.7 74.4 534 77.7 534 81.5V81.6C534 85.4 534.6 88.7 535.9 91.5C537.1 94.3 538.9 96.4 541.1 97.8C543.3 99.3 545.9 100 548.9 100C551.8 100.1 554.4 99.4 556.7 97.9Z" fill="black"/>
<path d="M576.4 59H582.2V66.8H582.3C583.5 64.3 585.3 62.3 587.8 60.7C590.3 59.1 593.4 58.3 597 58.3C602 58.3 606 59.8 608.8 62.9C611.6 65.9 613 70.1 613 75.5V104.6H607.2V76.3C607.2 72.1 606.2 68.8 604.1 66.6C602.1 64.4 599.1 63.3 595.2 63.3C592.5 63.3 590.2 63.9 588.2 65.1C586.2 66.3 584.7 68 583.6 70.1C582.5 72.2 582 74.7 582 77.6V104.6H576.2V59H576.4Z" fill="black"/>
<path d="M71.3 142.6C110.678 142.6 142.6 110.678 142.6 71.3C142.6 31.9221 110.678 0 71.3 0C31.9221 0 0 31.9221 0 71.3C0 110.678 31.9221 142.6 71.3 142.6Z" fill="#14489F"/>
<path d="M89.5 34.6H61V35.4C65.1 35.4 65.7 35.1 65.7 40.9V92.8C65.7 95.2 65.7 97 65.5 98.2C64.3 99.5 62.5 101 59.7 101C54.2 101 52.3 98.4 52.3 93.1V63.9H64.6V61H52.3V48.2L36.3 50.2V61H30.3V63.9H36.3V93.4C36.3 104.9 44.9 108 52.4 108C57.9 108 62.4 105.3 64.7 101.8H84.6V42.1C84.6 35.2 85.4 35.3 89.5 35.3V34.6Z" fill="white"/>
<path d="M111.4 81C111.4 96.3 97.7 100 88.5 100.7V101.8H112.3V81H111.4Z" fill="white"/>
</g>
<defs>
<clipPath id="clip0">
<rect width="613.1" height="142.5" fill="white"/>
</clipPath>
</defs>
</svg>
