<svg width="276" height="61" viewBox="0 0 276 61" fill="none" xmlns="http://www.w3.org/2000/svg">
<path d="M84.0459 22.2512V43.9861H81.1003V22.2512H73.5535V19.8365H91.5908V22.2512H84.0459Z" fill="white"/>
<path d="M107.63 34.3266C107.634 35.5774 107.495 36.8245 107.215 38.0436C106.961 39.1891 106.459 40.2648 105.744 41.1947C104.984 42.1432 104.007 42.8941 102.895 43.3838C101.457 43.9839 99.9058 44.267 98.348 44.2136C96.7964 44.2685 95.2514 43.9854 93.82 43.3838C92.7148 42.8916 91.7488 42.133 91.0086 41.1759C90.308 40.2395 89.8129 39.1657 89.5559 38.0248C89.2756 36.8124 89.1364 35.5717 89.141 34.3273C89.1386 33.0892 89.2778 31.8549 89.5559 30.6485C89.8106 29.5011 90.3058 28.4207 91.0086 27.4786C91.7537 26.5189 92.7265 25.7602 93.8389 25.2713C95.2774 24.6711 96.8284 24.3878 98.3862 24.441C99.9379 24.3865 101.483 24.6698 102.914 25.2713C104.022 25.767 104.994 26.5245 105.744 27.4786C106.457 28.4169 106.959 29.4982 107.216 30.6485C107.494 31.8548 107.633 33.0888 107.63 34.3266ZM104.762 34.3266C104.767 33.3635 104.672 32.4025 104.479 31.4588C104.314 30.6091 103.98 29.8009 103.498 29.0817C103.005 28.3788 102.335 27.8189 101.556 27.4586C100.558 27.0225 99.4745 26.8163 98.3862 26.855C97.3037 26.8147 96.2261 27.0211 95.2351 27.4586C94.46 27.8255 93.7913 28.3842 93.2923 29.0817C92.7981 29.7967 92.4568 30.6059 92.2896 31.4588C92.0971 32.4025 92.0022 33.3635 92.0063 34.3266C92.0009 35.3023 92.0959 36.2759 92.2896 37.2321C92.4573 38.0873 92.7908 38.9014 93.2711 39.6286C93.7554 40.337 94.4197 40.9035 95.1956 41.2699C96.1866 41.7078 97.2642 41.9144 98.3468 41.8741C99.4353 41.9127 100.519 41.7062 101.517 41.2699C102.299 40.9068 102.975 40.348 103.479 39.6474C103.975 38.9265 104.317 38.1104 104.482 37.2509C104.674 36.2881 104.768 35.3084 104.762 34.3266Z" fill="white"/>
<path d="M111.252 43.9867V17.3084H114.045V43.9867H111.252Z" fill="white"/>
<path d="M134.157 43.9861L133.593 40.5141C133.386 41.0274 133.1 41.5051 132.745 41.9299C132.341 42.4022 131.855 42.7982 131.311 43.0993C130.631 43.4729 129.9 43.7462 129.141 43.9109C128.15 44.1262 127.137 44.2275 126.122 44.2129C124.766 44.2606 123.413 44.0426 122.141 43.5712C121.192 43.1977 120.368 42.5633 119.764 41.7412C119.169 40.8775 118.775 39.8909 118.613 38.8546C118.402 37.6078 118.301 36.345 118.311 35.0806V24.6666H121.068V35.3074C121.06 36.2362 121.129 37.164 121.276 38.0812C121.383 38.8236 121.668 39.5292 122.106 40.1381C122.562 40.7218 123.178 41.1609 123.879 41.4022C124.846 41.7221 125.861 41.8689 126.879 41.8358C127.904 41.8688 128.927 41.7155 129.898 41.3834C130.619 41.1227 131.258 40.6729 131.747 40.0811C132.22 39.4683 132.537 38.7494 132.671 37.9866C132.844 37.0535 132.926 36.1059 132.917 35.157V24.6672H135.747V43.9867L134.157 43.9861Z" fill="white"/>
<path d="M150.043 43.9867V19.8365H152.988V41.5714H163.141V43.9861L150.043 43.9867Z" fill="white"/>
<path d="M181.588 43.9867L180.985 40.0623C180.369 41.3611 179.331 42.4122 178.039 43.0435C176.43 43.8648 174.639 44.2672 172.832 44.2136C171.853 44.2199 170.878 44.1058 169.927 43.8739C169.084 43.6756 168.284 43.3238 167.568 42.8361C166.904 42.3743 166.361 41.7595 165.984 41.0437C165.578 40.2501 165.377 39.3681 165.399 38.4773C165.346 37.7192 165.494 36.9605 165.829 36.2782C166.163 35.5958 166.672 35.014 167.304 34.5917C168.574 33.7616 170.58 33.1829 173.32 32.8558L180.339 32.026C180.35 31.2568 180.261 30.4895 180.076 29.7429C179.917 29.1085 179.591 28.5283 179.132 28.0633C178.612 27.5727 177.976 27.2223 177.283 27.0449C176.31 26.795 175.307 26.6807 174.302 26.7053C173.379 26.6811 172.457 26.7956 171.567 27.0449C170.938 27.2241 170.353 27.5325 169.85 27.9505C169.44 28.3018 169.133 28.7586 168.963 29.2716C168.8 29.7711 168.717 30.2934 168.718 30.819H165.926C165.928 30.0488 166.055 29.2841 166.302 28.5547C166.568 27.7761 167.014 27.0714 167.604 26.4978C168.33 25.8158 169.201 25.3064 170.151 25.0075C171.482 24.5945 172.871 24.404 174.264 24.4435C175.84 24.3937 177.413 24.5977 178.924 25.0476C179.959 25.3639 180.89 25.9501 181.623 26.746C182.266 27.507 182.696 28.425 182.868 29.4064C183.079 30.5576 183.18 31.7262 183.17 32.8965V43.9892L181.588 43.9867ZM180.343 34.1756L173.74 35.0812C172.284 35.2021 170.864 35.5923 169.551 36.2318C169.166 36.4536 168.85 36.7769 168.637 37.1663C168.424 37.5558 168.323 37.9964 168.344 38.4397C168.317 38.958 168.429 39.474 168.668 39.9348C168.906 40.3957 169.263 40.7849 169.702 41.0625C170.836 41.7117 172.133 42.0197 173.438 41.9493C174.352 41.9552 175.262 41.8149 176.132 41.5338C176.938 41.2782 177.683 40.8609 178.321 40.3073C178.951 39.7479 179.453 39.0591 179.793 38.2881C180.173 37.4072 180.36 36.4552 180.34 35.4961L180.343 34.1756Z" fill="white"/>
<path d="M208.305 43.9861H205.06L199.701 27.8734L194.494 43.9861H191.4L185.324 24.6666H188.458L193.061 40.8168L198.344 24.6666H201.137L206.57 40.9303L211.476 24.6666H214.533L208.305 43.9861Z" fill="white"/>
<path d="M233.814 38.7042C233.81 39.4016 233.655 40.0899 233.361 40.7222C233.03 41.4242 232.531 42.0335 231.908 42.4958C231.136 43.0638 230.266 43.4858 229.342 43.741C228.108 44.0805 226.83 44.2394 225.55 44.213C224.162 44.2381 222.777 44.0667 221.437 43.7041C220.403 43.4264 219.434 42.9451 218.588 42.2883C217.868 41.7142 217.303 40.9681 216.947 40.1187C216.587 39.2387 216.407 38.2955 216.418 37.3449H219.176C219.152 37.9657 219.273 38.5835 219.528 39.1499C219.784 39.7163 220.167 40.2159 220.647 40.6094C221.653 41.4767 223.276 41.9108 225.515 41.9117C226.384 41.9292 227.252 41.8404 228.1 41.6472C228.7 41.5097 229.274 41.274 229.798 40.9497C230.192 40.7092 230.517 40.3711 230.741 39.9683C230.924 39.6256 231.021 39.2436 231.024 38.8552C231.047 38.5733 231.01 38.2898 230.915 38.0232C230.821 37.7566 230.672 37.5128 230.477 37.3079C230.025 36.8652 229.485 36.5235 228.892 36.3052C228.157 36.0211 227.4 35.8001 226.627 35.6446C225.784 35.4691 224.917 35.293 224.024 35.1163C223.132 34.9396 222.251 34.7319 221.383 34.4933C220.58 34.2811 219.807 33.9706 219.081 33.5689C218.442 33.2156 217.883 32.7338 217.439 32.1538C216.995 31.5345 216.769 30.7849 216.798 30.023C216.757 29.2515 216.906 28.4817 217.232 27.7811C217.557 27.0805 218.05 26.4703 218.666 26.004C219.961 24.9594 222.081 24.4372 225.024 24.4372C226.341 24.4055 227.653 24.5904 228.91 24.9843C229.857 25.286 230.73 25.7807 231.476 26.437C232.11 27.0108 232.595 27.7291 232.891 28.5308C233.18 29.3228 233.328 30.1595 233.326 31.0026H230.684C230.684 30.4478 230.581 29.8978 230.382 29.38C230.176 28.8452 229.839 28.371 229.401 28.0013C228.878 27.5734 228.275 27.2529 227.628 27.0581C226.759 26.7996 225.855 26.6787 224.949 26.6996C224.087 26.6827 223.226 26.7649 222.383 26.9447C221.799 27.0686 221.242 27.2988 220.741 27.624C220.362 27.873 220.055 28.2192 219.855 28.6267C219.676 29.0163 219.598 29.4445 219.628 29.872C219.627 30.2281 219.728 30.5771 219.918 30.8779C220.109 31.1787 220.381 31.4187 220.704 31.5697C221.537 32.0181 222.425 32.3552 223.345 32.5725C224.39 32.837 225.522 33.0822 226.742 33.3082C227.908 33.5192 229.051 33.8413 230.156 34.2702C231.136 34.6363 232.029 35.2016 232.779 35.9304C233.131 36.2983 233.404 36.7339 233.582 37.2108C233.76 37.6877 233.839 38.1958 233.814 38.7042Z" fill="white"/>
<path d="M254.982 34.3266C254.986 35.5774 254.847 36.8245 254.567 38.0436C254.314 39.1891 253.811 40.2648 253.096 41.1947C252.337 42.1431 251.359 42.8941 250.247 43.3838C248.809 43.9839 247.258 44.267 245.7 44.2136C244.148 44.2686 242.603 43.9854 241.172 43.3838C240.067 42.8917 239.101 42.1331 238.361 41.1759C237.66 40.2396 237.165 39.1658 236.907 38.0248C236.627 36.8124 236.488 35.5717 236.492 34.3273C236.49 33.0892 236.629 31.8549 236.907 30.6485C237.162 29.501 237.658 28.4206 238.361 27.4786C239.106 26.5188 240.078 25.7602 241.19 25.2714C242.629 24.6711 244.18 24.3879 245.738 24.441C247.29 24.3866 248.835 24.6699 250.266 25.2714C251.374 25.7672 252.345 26.5246 253.096 27.4786C253.809 28.4169 254.311 29.4982 254.567 30.6485C254.845 31.8548 254.984 33.0888 254.982 34.3266ZM252.114 34.3266C252.119 33.3635 252.024 32.4025 251.831 31.4588C251.666 30.609 251.332 29.8008 250.85 29.0817C250.357 28.3788 249.686 27.8188 248.907 27.4586C247.909 27.0226 246.826 26.8163 245.738 26.855C244.655 26.8147 243.578 27.0211 242.587 27.4586C241.811 27.8256 241.143 28.3842 240.644 29.0817C240.15 29.7967 239.808 30.6059 239.641 31.4588C239.449 32.4025 239.354 33.3635 239.358 34.3266C239.352 35.3023 239.447 36.2759 239.641 37.2321C239.809 38.0872 240.142 38.9013 240.622 39.6286C241.106 40.337 241.771 40.9035 242.546 41.2699C243.537 41.7078 244.615 41.9144 245.698 41.8741C246.786 41.9127 247.869 41.7063 248.868 41.2699C249.65 40.907 250.326 40.3481 250.83 39.6474C251.326 38.9266 251.668 38.1105 251.832 37.2509C252.026 36.2882 252.12 35.3085 252.116 34.3266H252.114Z" fill="white"/>
<path d="M273.173 43.9867V33.458C273.181 32.5295 273.111 31.6019 272.966 30.6849C272.856 29.9404 272.578 29.2307 272.154 28.6092C271.715 28.015 271.111 27.5623 270.418 27.3069C269.461 26.9723 268.45 26.8188 267.437 26.8544C266.413 26.823 265.392 26.9697 264.419 27.2881C263.696 27.5375 263.056 27.9814 262.569 28.571C262.098 29.1781 261.781 29.8902 261.645 30.6466C261.471 31.5735 261.389 32.5151 261.4 33.458V43.9867H258.569V24.6672H259.887L260.717 28.1768C260.905 27.6527 261.186 27.1669 261.547 26.7429C261.956 26.2626 262.448 25.8593 263 25.5521C263.68 25.1787 264.411 24.9054 265.169 24.7405C266.161 24.5252 267.174 24.4238 268.188 24.4385C269.546 24.3899 270.9 24.6145 272.169 25.099C273.121 25.4865 273.945 26.1336 274.547 26.9666C275.141 27.8447 275.534 28.8435 275.697 29.8914C275.907 31.1444 276.008 32.4132 275.999 33.6836V43.9848L273.173 43.9867Z" fill="white"/>
<path d="M30.0042 60.0085C46.5751 60.0085 60.0085 46.5751 60.0085 30.0042C60.0085 13.4334 46.5751 0 30.0042 0C13.4334 0 0 13.4334 0 30.0042C0 46.5751 13.4334 60.0085 30.0042 60.0085Z" fill="white"/>
<path d="M37.6777 14.5565H25.6656V14.878C27.3934 14.878 27.6334 14.7577 27.6334 17.2087V39.0645C27.6593 39.8243 27.6384 40.5849 27.5708 41.342C27.2767 41.7033 26.9072 41.996 26.4881 42.1995C26.069 42.403 25.6106 42.5125 25.1448 42.5202C22.8147 42.5202 22.0113 41.4354 22.0113 39.1855V27.3125H27.1935V26.5304H22.0113V20.3015L15.2616 21.1451V26.5285H12.7304V27.3107H15.2616V39.3039C15.2616 44.1647 18.8771 45.4507 22.0514 45.4507C23.0652 45.4773 24.07 45.2528 24.9762 44.7973C25.8824 44.3418 26.662 43.6694 27.2456 42.8398H35.6308V17.7321C35.6308 14.8398 35.9524 14.8799 37.6796 14.8799L37.6777 14.5565Z" fill="#00398F"/>
<path d="M46.9179 34.123C46.9179 40.5511 41.1327 42.1173 37.276 42.3955V42.838H47.2795V34.123H46.9179Z" fill="#00398F"/>
</svg>
