<svg width="138" height="83" viewBox="0 0 138 83" fill="none" xmlns="http://www.w3.org/2000/svg">
<path d="M32.6281 21.5793H58.6008V23.6171H35.009V38.9547H57.1939V40.9925H35.009V57.8317H58.8713V59.8695H32.6281V21.5793ZM60.9275 21.5793H63.6871L75.9159 38.4184L88.4152 21.5793L105.416 0.189697L77.485 40.1881L91.8782 59.8695H89.0104L75.9159 41.9578L62.7672 59.8695H59.9535L74.4549 40.1881L60.9275 21.5793ZM92.9063 23.6171V21.5793H122.504V23.6171H108.869V59.8695H106.488V23.6171H92.9063Z" fill="white"/>
<path d="M0.134247 21.5793H3.11028L44.148 82.2005L27.1891 59.8695L2.62329 24.4752L2.51507 59.8695H0.134247V21.5793Z" fill="white"/>
<path d="M122.264 57.2167C122.757 57.2167 123.116 56.8446 123.116 56.3638C123.116 55.883 122.757 55.511 122.264 55.511C121.778 55.511 121.413 55.883 121.413 56.3638C121.413 56.8446 121.778 57.2167 122.264 57.2167ZM124.604 54.9729C124.604 56.3924 125.64 57.3197 127.152 57.3197C128.762 57.3197 129.734 56.3638 129.734 54.7039V48.8598H128.437V54.6982C128.437 55.6197 127.968 56.112 127.14 56.112C126.399 56.112 125.895 55.6541 125.878 54.9729H124.604ZM131.431 54.8985C131.524 56.3753 132.769 57.3197 134.622 57.3197C136.602 57.3197 137.841 56.3295 137.841 54.7497C137.841 53.5076 137.135 52.8207 135.421 52.4258L134.5 52.2026C133.412 51.9507 132.971 51.613 132.971 51.0234C132.971 50.2793 133.655 49.7928 134.68 49.7928C135.653 49.7928 136.324 50.2679 136.446 51.0292H137.708C137.633 49.6383 136.394 48.6595 134.697 48.6595C132.873 48.6595 131.657 49.6383 131.657 51.1093C131.657 52.3228 132.346 53.044 133.857 53.3931L134.934 53.6507C136.04 53.9083 136.527 54.2861 136.527 54.9157C136.527 55.6483 135.763 56.1807 134.72 56.1807C133.603 56.1807 132.827 55.6827 132.717 54.8985H131.431Z" fill="white"/>
</svg>
