<svg width="300" height="49" viewBox="0 0 300 49" fill="none" xmlns="http://www.w3.org/2000/svg">
<path fill-rule="evenodd" clip-rule="evenodd" d="M3.62694 5.08974C5.69948 7.24643 6.39033 9.40312 6.39033 11.5598C6.30397 19.0651 0 24.4137 0 33.0404C0 40.9771 5.52677 48.9999 21.5889 48.9999C35.924 48.9999 43.437 42.0123 43.437 34.5933C43.437 28.2095 38.8601 22.7746 29.9655 21.9982L29.8791 22.3433C31.9516 23.2059 36.4421 26.7429 36.4421 33.9031C36.4421 40.632 30.7427 47.3609 21.848 47.3609C10.7945 47.3609 6.90846 40.8908 6.90846 34.9383C6.90846 27.3468 12.2625 22.257 12.2625 15.2693C12.2625 10.4383 8.63558 5.69361 3.7133 4.83093L3.62694 5.08974Z" fill="white"/>
<path d="M92.8325 47.706L73.8342 23.206V45.2905L77.7202 46.2394V47.2747H68.8256V46.2394L72.0208 45.2905V21.2218C71.6753 20.963 70.5527 19.9278 69.2574 19.669C68.9119 19.5827 68.3075 19.4965 68.3075 19.4965V18.4613H75.8204L92.1417 39.5968V20.4454L88.2556 19.4965V18.4613H97.0639V19.4965L93.8688 20.4454V42.3574C93.8688 44.3415 94.0415 47.3609 94.0415 47.706H92.8325ZM132.643 32.0916C132.643 42.2711 125.561 48.1373 117.789 48.1373C109.931 48.1373 102.936 42.1849 102.936 32.868C102.936 23.5511 110.017 17.5986 117.789 17.5986C127.202 17.5986 132.643 25.0176 132.643 32.0916ZM127.634 33.6444C127.634 26.2254 123.143 18.9789 117.098 18.9789C110.622 18.9789 107.772 25.1901 107.772 31.919C107.772 38.5616 111.485 46.8433 118.394 46.8433C124.871 46.8433 127.634 40.2007 127.634 33.6444ZM138.774 20.4454L135.751 19.4965V18.4613H147.409V19.4965L143.782 20.4454L151.814 42.3574L159.845 20.4454L156.218 19.4965V18.4613H164.853V19.4965L161.831 20.4454L151.641 47.7923H149.05L138.774 20.4454ZM207.686 32.6092H205.872V20.0141C212.003 20.0141 215.63 21.3944 215.63 26.3979C215.544 30.1074 212.349 32.6092 207.686 32.6092ZM259.931 46.2394L263.99 45.2905V20.4454L259.931 19.4965V18.4613H272.625V19.4965L268.567 20.4454V45.2905L272.625 46.2394V47.2747H259.931V46.2394ZM162.953 46.2394L166.235 45.2905L176.339 18.4613L179.706 17.5986L190.069 45.2905L193.351 46.2394V47.2747H181.002V46.2394L185.147 45.2905L182.211 37.3539H171.157L168.221 45.2905L172.366 46.2394V47.2747H162.953V46.2394ZM171.848 35.1972H181.434L176.684 22.4296L171.848 35.1972ZM213.472 33.213C214.421 32.9542 220.207 31.4877 220.207 26.0528C220.207 21.7394 216.926 18.375 208.722 18.375C203.627 18.375 198.532 18.4613 197.927 18.4613V19.4965L201.295 20.4454V45.2905L197.927 46.2394V47.2747H209.758V46.2394L205.872 45.2905V34.0757H209.24L217.789 47.2747H225.389V46.2394L221.589 45.2905L213.472 33.213ZM238.428 20.0141V45.2905L234.37 46.2394V47.2747H247.064V46.2394L243.005 45.2905V20.0141H249.827L252.073 24.8451H252.936L252.245 18.5475H229.016L228.325 24.8451H229.188L231.434 20.0141H238.428ZM300 40.0282V39.7694C299.914 35.7148 297.755 33.5581 293.178 31.1426C292.055 30.5387 290.846 29.9349 289.81 29.4173C286.874 27.9507 285.233 26.3116 285.233 23.8099C285.233 20.963 287.478 18.9789 290.76 18.9789C293.005 18.9789 294.473 19.8415 294.905 20.1004L297.409 25.4489H298.273L297.582 18.8063C296.978 18.6338 294.214 17.6849 290.846 17.6849C284.37 17.6849 281.261 21.0493 281.261 25.4489C281.261 29.5035 284.715 32.0053 288.083 33.8169C289.033 34.3345 289.983 34.8521 290.933 35.2835C293.869 36.75 295.596 38.4754 295.596 41.2359C295.596 44.8592 292.401 46.9296 288.947 46.9296C286.615 46.9296 284.629 46.0669 283.765 45.6356L281.088 39.4243H280.311L281.088 47.0158C282.038 47.2747 284.801 48.2236 289.292 48.2236C295.164 48.1373 299.914 45.0317 300 40.0282ZM21.7617 38.3028L25.8204 0H17.3575L21.4163 38.3028H21.7617Z" fill="white"/>
</svg>
