<svg width="320" height="83" viewBox="0 0 320 83" fill="none" xmlns="http://www.w3.org/2000/svg">
<g clip-path="url(#clip0)">
<path d="M79.0139 72.3394C79.0139 78.1774 74.3062 83 68.4533 83C62.6004 83 57.8926 78.1774 57.8926 72.3394C57.8926 66.5015 62.6004 61.6789 68.4533 61.6789C74.3062 61.6789 79.0139 66.5015 79.0139 72.3394Z" fill="white"/>
<path d="M39.6978 52.0336L45.2962 46.3226C47.4592 43.7844 48.7316 40.6116 48.7316 37.0581C48.7316 29.3165 42.497 22.971 34.8628 22.971C27.2286 22.971 20.994 29.3165 20.994 37.0581C20.994 40.9924 22.5209 44.5459 25.0656 47.0841L15.2684 57.1101C10.1789 52.0336 7.12525 44.9266 7.12525 37.185C6.87078 21.5749 19.34 8.8838 34.7356 8.8838C50.1312 8.8838 62.6004 21.448 62.6004 37.0581C62.6004 42.2615 61.2008 47.211 58.7833 51.3991L63.8728 56.4755C67.5626 50.8914 69.5984 44.1651 69.5984 37.0581C69.5984 17.6407 54.0755 1.77676 34.8628 1.77676C15.5229 1.77676 0 17.6407 0 37.0581C0 56.6025 15.5229 72.3395 34.7356 72.3395C41.8608 72.3395 48.3499 70.182 53.9483 66.5015L39.6978 52.0336Z" fill="white"/>
<path d="M118.33 59.5214C118.33 60.1559 118.076 60.6636 117.694 61.1712C117.312 61.552 116.803 61.8058 116.167 61.8058H106.497C106.115 61.8058 105.734 61.6789 105.225 61.4251C104.843 61.1712 104.588 60.9174 104.461 60.5367L103.316 58.1254C101.153 59.5214 98.8628 60.6636 96.5726 61.4251C94.2823 62.1865 91.7376 62.6942 88.9384 62.6942C84.2306 62.6942 80.668 61.4251 78.2505 58.7599C75.833 56.2217 74.6879 52.4144 74.6879 47.4648V21.1942C74.6879 20.5596 74.9424 20.052 75.3241 19.6712C75.833 19.2905 76.2147 19.0367 76.8509 19.0367H89.4473C90.0835 19.0367 90.5925 19.2905 90.9742 19.6712C91.4831 20.052 91.6103 20.5596 91.6103 21.1942V44.1651C91.6103 47.4648 92.501 49.1147 94.4095 49.1147C94.7913 49.1147 95.3002 48.9877 95.9364 48.9877C96.5726 48.8608 97.2088 48.607 98.0994 48.3532H97.9722C98.6084 48.0994 99.2445 47.8455 99.7535 47.5917C100.262 47.3379 100.899 47.0841 101.28 46.8303V21.1942C101.28 20.5596 101.535 20.052 101.917 19.6712C102.425 19.2905 102.807 19.0367 103.443 19.0367H116.04C116.676 19.0367 117.185 19.2905 117.567 19.6712C117.948 20.052 118.203 20.5596 118.203 21.1942V59.5214H118.33Z" fill="white"/>
<path d="M123.547 61.8058C123.038 61.8058 122.529 61.552 122.274 61.1712C121.893 60.6636 121.765 60.1559 121.765 59.6483V20.1789C121.765 19.5443 121.893 19.0367 122.274 18.6559C122.656 18.1483 123.038 18.0214 123.547 18.0214H133.853C134.107 18.0214 134.362 18.1483 134.744 18.1483C135.125 18.2752 135.507 18.4021 135.761 18.6559C136.143 18.9098 136.398 19.0367 136.652 19.4174C136.907 19.6712 137.034 19.9251 137.034 20.3058V59.7752C137.034 60.4098 136.907 60.9174 136.525 61.2981C136.143 61.8058 135.761 61.9327 135.252 61.9327H123.547V61.8058Z" fill="white"/>
<path d="M175.968 19.0367C176.604 19.0367 177.113 19.2905 177.495 19.6712C177.877 20.052 178.131 20.6865 178.131 21.3211V30.9663L163.753 47.211H176.732C177.368 47.211 177.877 47.4648 178.258 47.8456C178.767 48.3532 178.895 48.8608 178.895 49.3685V59.5214C178.895 60.156 178.64 60.6636 178.258 61.1712C177.75 61.552 177.368 61.8058 176.732 61.8058H142.632C141.996 61.8058 141.487 61.552 141.105 61.1712C140.724 60.7905 140.469 60.156 140.469 59.5214V50.2569L154.847 33.6315H143.65C143.014 33.6315 142.505 33.3777 142.123 32.9969C141.742 32.4893 141.487 31.9816 141.487 31.474V21.3211C141.487 20.6865 141.742 20.1789 142.123 19.6712C142.505 19.2905 143.014 19.0367 143.65 19.0367H175.968Z" fill="white"/>
<path d="M137.288 7.8685C137.288 12.1835 133.726 15.737 129.527 15.737C125.201 15.737 121.765 12.1835 121.765 7.8685C121.765 3.55352 125.328 0 129.527 0C133.726 0 137.288 3.55352 137.288 7.8685Z" fill="white"/>
<path d="M220.247 42.0077H193.527L181.821 61.8058H178.131L213.249 2.53824H216.557L226.481 61.9327H223.3L220.247 42.0077ZM195.054 39.2156H219.738L214.266 6.72631H214.139L195.054 39.2156Z" fill="white"/>
<path d="M229.153 75.893L241.241 19.1636H244.421L242.386 28.8089H242.64C244.421 25.6361 246.712 23.0979 249.638 21.3211C252.565 19.4174 255.746 18.5291 259.181 18.5291C262.362 18.5291 265.161 19.2905 267.579 20.8135C269.869 22.3364 271.777 24.4939 273.05 27.159C274.322 29.8242 274.958 33.1239 274.958 36.6774C274.958 40.2309 274.449 43.7844 273.304 46.9572C272.159 50.13 270.759 52.7951 268.724 55.2064C266.815 57.6177 264.525 59.3945 261.853 60.6636C259.181 61.9327 256.382 62.5673 253.328 62.5673C250.656 62.5673 248.239 62.0596 246.076 60.9174C243.913 59.7752 242.131 58.2523 240.732 56.3486C239.332 54.445 238.441 52.1605 238.187 49.6223H237.932L232.334 75.893H229.153ZM260.453 57.8716C262.616 56.7294 264.652 55.0795 266.306 53.0489C267.96 51.0183 269.36 48.607 270.25 45.815C271.141 43.0229 271.65 39.9771 271.65 36.8043C271.65 31.9817 270.505 28.1743 268.087 25.5092C265.67 22.7171 262.489 21.3211 258.417 21.3211C255.746 21.3211 253.328 21.9557 251.038 23.2248C248.748 24.4939 246.839 26.1437 245.058 28.4281C243.276 30.5856 242.004 33.1239 240.986 35.9159C239.968 38.7079 239.586 41.7538 239.586 44.9266C239.586 49.3685 240.859 52.922 243.276 55.5872C245.821 58.2523 249.002 59.6483 253.201 59.6483C255.746 59.6483 258.163 59.0138 260.453 57.8716Z" fill="white"/>
<path d="M274.322 75.893L286.41 19.1636H289.59L287.555 28.8089H287.809C289.59 25.6361 291.881 23.0979 294.807 21.3211C297.734 19.4174 300.915 18.5291 304.35 18.5291C307.531 18.5291 310.33 19.2905 312.748 20.8135C315.038 22.3364 316.946 24.4939 318.219 27.159C319.491 29.8242 320.127 33.1239 320.127 36.6774C320.127 40.2309 319.618 43.7844 318.473 46.9572C317.328 50.13 315.928 52.7951 313.893 55.2064C311.984 57.6177 309.694 59.3945 307.022 60.6636C304.35 61.9327 301.551 62.5673 298.497 62.5673C295.825 62.5673 293.408 62.0596 291.245 60.9174C289.082 59.7752 287.3 58.2523 285.901 56.3486C284.501 54.445 283.61 52.1605 283.356 49.6223H283.229L277.63 75.893H274.322ZM305.622 57.8716C307.785 56.7294 309.821 55.0795 311.475 53.0489C313.129 51.0183 314.529 48.607 315.419 45.815C316.31 43.0229 316.819 39.9771 316.819 36.8043C316.819 31.9817 315.674 28.1743 313.256 25.5092C310.839 22.7171 307.658 21.3211 303.587 21.3211C300.915 21.3211 298.497 21.9557 296.207 23.2248C293.917 24.4939 292.008 26.1437 290.227 28.4281C288.445 30.5856 287.173 33.1239 286.155 35.9159C285.137 38.7079 284.755 41.7538 284.755 44.9266C284.755 49.3685 286.028 52.922 288.445 55.5872C290.99 58.2523 294.171 59.6483 298.37 59.6483C301.042 59.6483 303.459 59.0138 305.622 57.8716Z" fill="white"/>
</g>
<defs>
<clipPath id="clip0">
<rect width="320" height="83" fill="white"/>
</clipPath>
</defs>
</svg>
