<svg width="88" height="78" viewBox="0 0 88 78" fill="none" xmlns="http://www.w3.org/2000/svg">
<path d="M87.5771 39.0045C87.5771 33.2029 80.3118 27.7048 69.1727 24.2952C71.7433 12.942 70.6008 3.90937 65.5668 1.01751C64.4065 0.339169 63.0498 0.0178508 61.5682 0.0178508V3.99863C62.3893 3.99863 63.0498 4.15929 63.6032 4.46276C66.0309 5.85514 67.0841 11.1569 66.263 17.976C66.0666 19.654 65.7453 21.4212 65.3526 23.2242C61.8538 22.3673 58.0337 21.7068 54.0172 21.2784C51.6073 17.976 49.1082 14.977 46.5912 12.3529C52.4106 6.94405 57.873 3.98078 61.586 3.98078V0C56.677 0 50.2506 3.4988 43.7529 9.56815C37.2551 3.5345 30.8287 0.0714044 25.9197 0.0714044V4.05218C29.6148 4.05218 35.0951 6.9976 40.9145 12.3708C38.4154 14.9949 35.9163 17.976 33.5421 21.2784C29.5077 21.7068 25.6876 22.3673 22.1888 23.242C21.7782 21.4569 21.4748 19.7254 21.2606 18.0652C20.4216 11.2461 21.4569 5.94439 23.8668 4.53416C24.4023 4.21284 25.0985 4.07003 25.9197 4.07003V0.0892551C24.4202 0.0892551 23.0635 0.410573 21.8854 1.08891C16.8692 3.98078 15.7446 12.9955 18.333 24.3131C7.22966 27.7405 0 33.2208 0 39.0045C0 44.8061 7.26536 50.3042 18.4044 53.7137C15.8339 65.067 16.9763 74.0996 22.0103 76.9915C23.1706 77.6698 24.5273 77.9911 26.0268 77.9911C30.9358 77.9911 37.3622 74.4923 43.86 68.423C50.3577 74.4566 56.7841 77.9197 61.6931 77.9197C63.1926 77.9197 64.5493 77.5984 65.7275 76.9201C70.7436 74.0282 71.8682 65.0134 69.2798 53.6959C80.3475 50.2863 87.5771 44.7882 87.5771 39.0045ZM64.3351 27.0979C63.6746 29.4006 62.8534 31.7748 61.9252 34.149C61.1933 32.7209 60.4257 31.2928 59.5867 29.8648C58.7656 28.4367 57.8909 27.0443 57.0162 25.6876C59.551 26.0625 61.9966 26.5266 64.3351 27.0979ZM56.1593 46.1092C54.7669 48.5191 53.3389 50.804 51.8572 52.9283C49.1974 53.1603 46.5019 53.2853 43.7886 53.2853C41.0931 53.2853 38.3976 53.1603 35.7556 52.9461C34.274 50.8219 32.828 48.5548 31.4356 46.1627C30.079 43.8243 28.8473 41.4501 27.7226 39.058C28.8294 36.666 30.079 34.274 31.4178 31.9355C32.8102 29.5256 34.2383 27.2407 35.7199 25.1164C38.3797 24.8843 41.0752 24.7594 43.7886 24.7594C46.4841 24.7594 49.1796 24.8843 51.8215 25.0985C53.3032 27.2228 54.7491 29.4899 56.1415 31.8819C57.4981 34.2204 58.7299 36.5946 59.8545 38.9866C58.7299 41.3787 57.4981 43.7707 56.1593 46.1092ZM61.9252 43.7886C62.8891 46.1806 63.7103 48.5726 64.3886 50.8933C62.0502 51.4645 59.5867 51.9465 57.034 52.3214C57.9087 50.9468 58.7834 49.5366 59.6046 48.0907C60.4257 46.6626 61.1933 45.2166 61.9252 43.7886ZM43.8243 62.8356C42.1641 61.1219 40.504 59.2118 38.8617 57.1233C40.4683 57.1947 42.1106 57.2482 43.7707 57.2482C45.4487 57.2482 47.1089 57.2125 48.7333 57.1233C47.1267 59.2118 45.4666 61.1219 43.8243 62.8356ZM30.5431 52.3214C28.0083 51.9465 25.5627 51.4824 23.2242 50.9111C23.8847 48.6083 24.7058 46.2342 25.6341 43.86C26.366 45.288 27.1336 46.7161 27.9726 48.1442C28.8116 49.5723 29.6684 50.9647 30.5431 52.3214ZM43.735 15.1734C45.3952 16.8871 47.0553 18.7971 48.6976 20.8857C47.091 20.8143 45.4487 20.7607 43.7886 20.7607C42.1106 20.7607 40.4504 20.7964 38.826 20.8857C40.4326 18.7971 42.0927 16.8871 43.735 15.1734ZM30.5253 25.6876C29.6506 27.0622 28.7758 28.4724 27.9547 29.9183C27.1336 31.3464 26.366 32.7745 25.6341 34.2026C24.6701 31.8105 23.849 29.4185 23.1706 27.0979C25.5091 26.5445 27.9726 26.0625 30.5253 25.6876ZM14.3701 48.0371C8.05081 45.3416 3.96293 41.8071 3.96293 39.0045C3.96293 36.2019 8.05081 32.6495 14.3701 29.9719C15.9053 29.3114 17.5833 28.7223 19.3148 28.1689C20.3323 31.6677 21.6711 35.3093 23.3313 39.0402C21.689 42.7532 20.368 46.377 19.3684 49.8579C17.6011 49.3045 15.9231 48.6976 14.3701 48.0371ZM23.9739 73.5462C21.5462 72.1538 20.493 66.8521 21.3141 60.033C21.5105 58.355 21.8318 56.5877 22.2245 54.7848C25.7233 55.6416 29.5434 56.3021 33.5599 56.7305C35.9698 60.033 38.469 63.032 40.9859 65.6561C35.1665 71.0649 29.7041 74.0282 25.9911 74.0282C25.1878 74.0103 24.5095 73.8497 23.9739 73.5462ZM66.3166 59.9437C67.1555 66.7628 66.1202 72.0646 63.7103 73.4748C63.1748 73.7961 62.4786 73.9389 61.6574 73.9389C57.9623 73.9389 52.482 70.9935 46.6626 65.6204C49.1617 62.9963 51.6609 60.0151 54.035 56.7127C58.0694 56.2843 61.8895 55.6238 65.3883 54.7491C65.7989 56.552 66.1202 58.2836 66.3166 59.9437ZM73.1892 48.0371C71.654 48.6976 69.976 49.2867 68.2445 49.8401C67.227 46.3413 65.8881 42.6996 64.228 38.9688C65.8703 35.2558 67.1913 31.632 68.1909 28.1511C69.9582 28.7044 71.6362 29.3114 73.207 29.9719C79.5263 32.6674 83.6142 36.2019 83.6142 39.0045C83.5963 41.8071 79.5085 45.3595 73.1892 48.0371Z" fill="white"/>
<path d="M43.7707 47.1625C48.2762 47.1625 51.9286 43.5101 51.9286 39.0046C51.9286 34.4991 48.2762 30.8467 43.7707 30.8467C39.2652 30.8467 35.6128 34.4991 35.6128 39.0046C35.6128 43.5101 39.2652 47.1625 43.7707 47.1625Z" fill="white"/>
</svg>
