<svg width="323" height="120" viewBox="0 0 323 120" fill="none" xmlns="http://www.w3.org/2000/svg">
<path d="M52.5177 72.9827C52.8957 73.2741 53.3038 73.5246 53.7349 73.73C54.1701 73.9162 54.6845 74.1027 55.2784 74.2895C55.9941 74.4986 56.7318 74.624 57.4766 74.6632C57.9135 68.9383 58.5999 62.777 59.5356 56.1791C60.4713 49.5813 61.8437 42.5799 63.6527 35.1749C63.827 34.4502 64.1996 33.7881 64.729 33.2623C65.2473 32.7407 65.919 32.3978 66.6463 32.2837C67.4982 32.1606 68.3595 32.1135 69.2198 32.1432C70.1288 32.2009 70.9963 32.5434 71.6988 33.1218C72.2674 33.4738 72.7039 34.003 72.9409 34.6273C73.1778 35.2517 73.202 35.9366 73.0097 36.576C72.7594 37.6353 72.3851 39.3 71.887 41.5702C71.3888 43.8405 70.8428 46.5789 70.2489 49.7856C69.6544 52.9911 69.0617 56.6008 68.4707 60.6147C67.8798 64.6285 67.3965 68.9072 67.0208 73.4506C69.9272 72.5169 72.7083 71.2323 75.3023 69.6254C78.3763 67.7815 81.1657 65.5019 83.5829 62.8582C86.0993 60.1186 88.1394 56.9791 89.6191 53.5691C91.1663 49.9517 91.731 45.9914 91.2563 42.0871C91.0751 39.8041 90.3539 37.5965 89.1518 35.6455C88.0192 33.8663 86.596 32.2889 84.941 30.9787C83.2768 29.6657 81.453 28.5676 79.5131 27.7103C77.6052 26.8599 75.6342 26.158 73.6178 25.6109C71.7898 25.1103 69.9294 24.7358 68.0499 24.49C66.3027 24.273 64.8366 24.1018 63.6518 23.9767C62.8439 26.553 61.8426 29.0649 60.6565 31.4911C59.3142 34.2239 57.6832 36.8059 55.7912 39.1932C53.6436 41.9008 51.2295 44.3869 48.5851 46.6142C45.5241 49.1816 42.199 51.4181 38.6655 53.2862C36.7877 54.3412 34.8142 55.2166 32.7711 55.9007C30.5444 56.6811 28.2608 57.2893 25.9405 57.7199C22.9478 58.2777 19.9078 58.5438 16.8635 58.5143C13.0919 58.5872 9.3716 57.6338 6.10211 55.7566C4.59658 54.8992 3.28652 53.7384 2.25542 52.3482C1.22432 50.958 0.494787 49.3687 0.113229 47.6817C-0.448563 42.8898 1.08017 38.5335 4.69941 34.6127C6.55397 32.6927 8.64441 31.0144 10.921 29.6176C14.062 27.7185 17.4246 26.2106 20.9334 25.1278C25.7394 23.6099 30.6493 22.4414 35.6247 21.6317C42.3291 20.5471 49.0964 19.8934 55.8848 19.6746C56.4428 16.3707 56.4729 12.9995 55.974 9.68625C55.4741 6.76245 54.6631 4.64671 53.5413 3.33901C53.363 3.14799 53.2354 2.91549 53.1702 2.66269C53.1049 2.40989 53.104 2.14482 53.1677 1.89163C53.2248 1.63618 53.3509 1.40118 53.5323 1.21208C53.7137 1.02297 53.9435 0.886976 54.1968 0.81878C55.0247 0.549406 55.8683 0.33103 56.723 0.164914C57.6314 -0.0194092 58.5645 -0.0494629 59.483 0.075976C60.3967 0.204513 61.2733 0.52237 62.0565 1.00914C62.9378 1.58008 63.6744 2.34715 64.2083 3.25004C64.454 3.77766 64.6577 4.32378 64.8173 4.88334C65.0349 5.59917 65.2064 6.23701 65.3319 6.79686C65.5527 8.46783 65.6463 10.1531 65.6118 11.8382C65.5659 14.4766 65.2525 17.1036 64.6764 19.6791C66.2976 19.8072 68.3097 20.0148 70.7126 20.3018C73.2958 20.6219 75.8569 21.1 78.3815 21.7332C81.1411 22.4166 83.8466 23.3021 86.4757 24.3824C89.0961 25.4456 91.5655 26.8468 93.8209 28.5501C96.0171 30.2104 97.8619 32.2881 99.2489 34.6634C100.704 37.2472 101.492 40.1514 101.542 43.1145C101.689 46.2499 101.244 49.385 100.231 52.3566C99.2623 55.1622 97.8742 57.8057 96.1136 60.1974C94.3583 62.5711 92.3152 64.7189 90.031 66.5919C87.7738 68.4554 85.3633 70.126 82.825 71.586C80.4509 72.9596 77.9806 74.1607 75.4334 75.18C73.251 76.0681 70.9973 76.7707 68.6963 77.2803C72.938 84.6248 76.6185 90.6459 79.7378 95.3436C82.2438 99.2698 85.127 102.943 88.3465 106.312C90.4653 108.599 93.0919 110.358 96.0155 111.448C98.6783 112.271 101.491 112.494 104.251 112.101C104.45 112.066 104.656 112.077 104.85 112.134C105.045 112.191 105.224 112.292 105.373 112.429C105.669 112.68 105.868 113.026 105.935 113.408C105.92 114.021 105.841 114.63 105.701 115.227C105.524 115.988 105.19 116.703 104.72 117.327C103.895 118.474 102.709 119.313 101.351 119.709C99.9742 120.113 98.5079 120.096 97.1408 119.662C95.9406 119.255 94.7937 118.706 93.7246 118.027C92.2262 117.083 90.8168 116.005 89.5139 114.807C87.7407 113.182 86.0834 111.435 84.554 109.58C82.5291 107.122 80.669 104.533 78.986 101.83C77.1146 98.9684 75.1653 95.9034 73.1381 92.6356C71.1109 89.3679 68.9113 85.805 66.5393 81.9471C66.2884 87.3001 66.3038 92.8079 66.5856 98.4705C66.8742 104.198 67.5151 109.902 68.5046 115.551C68.63 116.416 68.4299 117.297 67.9428 118.024C67.4757 118.778 66.7408 119.328 65.8847 119.565C65.0139 119.75 64.1259 119.843 63.2354 119.844C62.3361 119.845 61.4511 119.62 60.6619 119.19C60.1767 118.953 59.7593 118.597 59.4485 118.157C59.1377 117.716 58.9434 117.204 58.8837 116.668C58.6971 115.673 58.4477 114.101 58.1356 111.953C57.8235 109.805 57.5422 107.145 57.292 103.973C57.0423 100.799 56.8865 97.1266 56.8247 92.9568C56.7629 88.7869 56.8562 84.1815 57.1047 79.1405C54.7803 79.2798 52.4498 78.9953 50.2277 78.3007C48.1817 77.679 46.3079 76.5929 44.7533 75.1275C43.8509 74.2074 43.1788 73.088 42.7915 71.86C42.5713 71.2491 42.516 70.5911 42.631 69.952C42.746 69.313 43.0274 68.7153 43.4469 68.2189C44.2525 67.3512 45.2929 66.7351 46.4423 66.4451C46.6002 66.371 46.7732 66.3347 46.9477 66.3388C47.1221 66.343 47.2932 66.3875 47.4474 66.469C47.6016 66.5504 47.7348 66.6666 47.8363 66.8082C47.9377 66.9497 48.0048 67.1129 48.0322 67.2849C48.4771 68.419 49.0757 69.4869 49.8112 70.4589C50.5554 71.4544 51.472 72.3091 52.5177 72.9827ZM49.3359 36.8554C50.6707 34.8101 51.8291 32.6554 52.7985 30.4147C53.704 28.3251 54.4548 26.1722 55.0448 23.9731C48.7811 24.2021 42.5341 24.763 36.3301 25.6536C31.7461 26.3075 27.2126 27.2747 22.7615 28.5483C19.5645 29.4396 16.4858 30.7089 13.5909 32.3291C11.5542 33.478 9.66734 34.873 7.97298 36.4826C4.66584 39.7818 3.35585 43.4227 4.04308 47.4051C4.35094 48.9077 5.1194 50.2777 6.24209 51.3255C7.39245 52.3576 8.74748 53.1368 10.2192 53.6127C11.881 54.1618 13.6153 54.4616 15.3654 54.5023C17.2458 54.5652 19.1278 54.4403 20.9833 54.1295C23.9055 53.6966 26.7746 52.9611 29.544 51.9349C32.2863 50.9257 34.92 49.6442 37.4055 48.1096C39.8163 46.6256 42.0731 44.9058 44.1425 42.9758C46.1095 41.1471 47.8528 39.0927 49.3359 36.8554Z" fill="white"/>
<path d="M119.891 78.3043C120.167 78.5209 120.376 78.8119 120.491 79.143C120.607 79.474 120.626 79.8312 120.545 80.1724C120.359 81.0442 119.969 82.4442 119.375 84.3722C118.74 86.4087 117.942 88.3911 116.989 90.3005C116.039 92.2533 114.792 94.048 113.293 95.6211C112.651 96.3379 111.865 96.912 110.987 97.306C110.108 97.7001 109.156 97.9053 108.193 97.9083C105.645 98.0256 103.124 97.3409 100.987 95.9512C100.042 95.3266 99.2051 94.5543 98.5069 93.664C97.6557 92.5763 96.9772 91.3644 96.4952 90.071C95.8847 88.4326 95.4914 86.7216 95.3252 84.9816C95.1128 82.6656 95.1601 80.3332 95.4661 78.0276C95.8399 75.2612 96.5955 72.5597 97.7115 69.9999C98.1555 68.9902 98.6878 68.0216 99.3024 67.1052C99.9089 66.1908 100.633 65.3595 101.455 64.6321C102.281 63.9071 103.232 63.3377 104.262 62.9516C105.399 62.5365 106.609 62.3614 107.818 62.4375C109.266 62.4629 110.652 63.0296 111.701 64.0254C112.596 64.9399 113.171 66.1189 113.339 67.3863C113.516 68.8251 113.405 70.2848 113.012 71.6804C112.6 73.2479 111.92 74.7323 111 76.0678C110.059 77.4424 108.869 78.6294 107.49 79.5675C106.123 80.52 104.522 81.0847 102.859 81.2017C102.871 82.4027 102.95 83.6022 103.093 84.7948C103.238 86.1514 103.553 87.4846 104.03 88.7633C104.446 89.9327 105.154 90.9769 106.088 91.7968C106.604 92.1978 107.205 92.4774 107.845 92.6146C108.485 92.7519 109.148 92.7433 109.785 92.5894C110.533 92.466 111.359 91.7971 112.264 90.5825C113.231 89.2682 114.092 87.879 114.837 86.4281C115.647 84.8737 116.38 83.3338 117.036 81.8084C117.693 80.2831 118.145 79.147 118.393 78.4003C118.412 78.291 118.461 78.1893 118.536 78.1068C118.61 78.0244 118.706 77.9645 118.813 77.9342C118.915 77.9023 119.022 77.8937 119.128 77.9091C119.233 77.9245 119.334 77.9635 119.422 78.0232C119.588 78.0986 119.746 78.1929 119.891 78.3043ZM108.007 67.663C107.761 67.7001 107.523 67.7786 107.304 67.8951C106.823 68.1824 106.421 68.5836 106.134 69.0632C105.549 69.9738 105.063 70.9439 104.684 71.957C104.031 73.7121 103.545 75.5248 103.234 77.3711C104.082 76.9613 104.882 76.4604 105.62 75.8775C106.625 75.0794 107.467 74.0972 108.101 72.9836C108.618 72.1805 108.997 71.2972 109.224 70.37C109.35 69.817 109.35 69.2426 109.224 68.6895C109.152 68.3345 108.952 68.018 108.662 67.7999C108.57 67.73 108.463 67.6813 108.35 67.6576C108.236 67.6339 108.119 67.6358 108.007 67.663Z" fill="white"/>
<path d="M158.817 78.3043C159.085 78.5256 159.282 78.8211 159.382 79.1535C159.482 79.486 159.481 79.8405 159.379 80.1724C159.253 80.7317 159.035 81.5715 158.724 82.6918C158.413 83.8121 158.008 85.0412 157.508 86.3791C156.988 87.7633 156.395 89.1187 155.729 90.4392C155.067 91.7685 154.284 93.0344 153.389 94.2209C152.59 95.3013 151.609 96.2345 150.489 96.9787C149.464 97.6519 148.25 97.9788 147.025 97.9109C144.218 97.7864 142.159 96.1685 140.849 93.0573C139.539 89.9461 139.009 85.8697 139.258 80.8281C138.362 82.5273 137.378 84.1788 136.31 85.776C135.179 87.489 133.896 89.0968 132.476 90.5798C131.15 91.9825 129.62 93.1781 127.937 94.1266C126.409 95.0089 124.639 95.3848 122.883 95.2004C121.354 95.1082 119.902 94.4992 118.766 93.4736C117.765 92.5037 117.052 91.2756 116.708 89.9259C116.328 88.4159 116.248 86.846 116.474 85.3054C116.705 83.5731 117.113 81.8688 117.69 80.2187C118.278 78.5154 119.064 76.8863 120.03 75.3642C120.921 73.93 122.008 72.6261 123.259 71.49C124.595 70.2897 126.071 69.2553 127.657 68.4093C129.164 67.5805 130.787 66.9828 132.472 66.6364C133.984 66.3251 135.544 66.3251 137.057 66.6364C138.535 66.9542 139.886 67.7011 140.94 68.7829C141.06 67.9943 141.232 67.2146 141.455 66.4487C141.673 65.7026 141.876 64.9245 142.064 64.1144C142.163 63.7 142.405 63.3334 142.747 63.0779C143.089 62.8225 143.51 62.6941 143.936 62.715C144.99 62.804 146.037 62.9597 147.071 63.1812C148.261 63.4201 149.391 63.8964 150.392 64.5814C150.768 64.8935 151.058 65.2949 151.236 65.7486C151.421 66.2085 151.452 66.7159 151.325 67.195C151.138 68.0674 150.874 69.2965 150.531 70.8824C150.188 72.4682 149.829 74.1795 149.454 76.0162C149.08 77.8547 148.753 79.7229 148.473 81.6207C148.193 83.5185 148.006 85.2609 147.912 86.8479C147.807 88.1561 147.854 89.472 148.052 90.7693C148.24 91.7959 148.614 92.34 149.175 92.4017C149.985 92.5274 150.811 92.0144 151.654 90.8627C152.578 89.5718 153.377 88.1966 154.041 86.7554C154.79 85.1684 155.461 83.5656 156.052 81.9472C156.644 80.3287 157.065 79.1464 157.317 78.4004C157.336 78.2911 157.385 78.1895 157.459 78.107C157.534 78.0246 157.63 77.9647 157.737 77.9342C157.838 77.9023 157.946 77.8937 158.051 77.9091C158.157 77.9245 158.258 77.9635 158.346 78.0232C158.513 78.0982 158.672 78.1926 158.817 78.3043ZM125.785 89.8806C126.221 89.9434 126.845 89.6012 127.658 88.854C128.62 87.945 129.527 86.9783 130.371 85.9593C131.368 84.7773 132.381 83.4547 133.412 81.9916C134.443 80.5285 135.41 79.1438 136.313 77.8372C137.217 76.5325 137.997 75.3817 138.653 74.3847C139.308 73.3878 139.73 72.7354 139.916 72.4276C139.715 72.0795 139.431 71.7864 139.088 71.5745C138.746 71.3626 138.357 71.2385 137.955 71.2133C136.858 71.1182 135.757 71.3282 134.773 71.82C133.402 72.4779 132.153 73.3615 131.077 74.4337C129.642 75.8615 128.457 77.5177 127.569 79.3344C126.484 81.2045 125.62 83.1939 124.995 85.2627C124.685 86.2743 124.574 87.336 124.668 88.3896C124.681 88.7217 124.795 89.042 124.994 89.3082C125.194 89.5744 125.469 89.7739 125.785 89.8806Z" fill="white"/>
<path d="M178.935 91.8403C178.68 90.8873 178.477 89.9213 178.326 88.9465C178.171 87.9513 178.03 87.0179 177.905 86.146C177.779 85.1509 177.686 84.1551 177.625 83.1588C176.752 84.591 175.754 86.0538 174.631 87.5472C173.53 89.0155 172.274 90.3615 170.885 91.5619C169.573 92.7064 168.109 93.6643 166.534 94.4086C165.065 95.1144 163.426 95.3899 161.807 95.203C160.278 95.1111 158.827 94.502 157.691 93.4763C156.692 92.5113 155.994 91.2791 155.679 89.9277C155.33 88.4132 155.251 86.8492 155.445 85.3072C155.645 83.5733 156.037 81.8669 156.615 80.2196C157.207 78.5096 158.008 76.8791 159.001 75.3651C159.918 73.9362 161.019 72.6336 162.277 71.4909C163.41 70.4264 164.667 69.502 166.022 68.7376C167.34 67.9827 168.736 67.3721 170.186 66.9166C171.515 66.4914 172.908 66.3017 174.302 66.3561C175.598 66.4061 176.864 66.758 177.999 67.3836C178.487 62.1684 179.236 56.981 180.245 51.8406C181.073 47.4376 182.167 43.0884 183.52 38.8169C184.45 35.7072 185.705 32.7037 187.266 29.8561C187.834 28.7869 188.475 27.7577 189.184 26.7754C189.857 25.8291 190.643 24.9674 191.524 24.2089C192.311 23.5263 193.214 22.989 194.19 22.6219C195.12 22.2804 196.133 22.2313 197.092 22.4813C198.34 22.7933 199.229 23.8667 199.759 25.7017C200.334 27.9886 200.555 30.35 200.413 32.7037C200.273 35.9186 199.882 39.1178 199.244 42.2721C198.518 45.9618 197.533 49.5959 196.295 53.1474C195 56.8882 193.453 60.5374 191.664 64.0699C189.937 67.5191 187.867 70.7871 185.487 73.8252C185.113 76.813 184.864 79.6446 184.738 82.3199C184.607 84.684 184.637 87.0543 184.828 89.4144C184.927 91.0991 185.307 92.7556 185.951 94.3161C186.12 94.8321 186.444 95.2837 186.879 95.6092C187.315 95.9348 187.84 96.1185 188.384 96.1353C189.193 96.1353 190.067 95.3575 191.004 93.8019C192.023 92.0799 192.914 90.2855 193.67 88.4332C194.513 86.4126 195.262 84.4214 195.916 82.4596C196.571 80.4977 197.023 79.1438 197.273 78.3977C197.523 77.8372 197.897 77.713 198.397 78.0249C198.54 78.1384 198.697 78.2323 198.864 78.3043C199.125 78.5309 199.317 78.8266 199.416 79.1573C199.516 79.4879 199.519 79.8399 199.426 80.1724C199.3 80.7317 199.066 81.6494 198.723 82.9257C198.381 84.202 197.929 85.6333 197.367 87.2198C196.806 88.808 196.153 90.4419 195.405 92.1215C194.702 93.7184 193.857 95.249 192.879 96.6949C192.038 97.9593 191.013 99.092 189.838 100.056C188.863 100.887 187.61 101.32 186.328 101.269C185.302 101.259 184.311 100.897 183.521 100.243C182.53 99.4818 181.703 98.5292 181.089 97.4421C180.1 95.6898 179.375 93.8025 178.935 91.8403ZM164.805 89.8832C165.303 90.009 166.083 89.5734 167.144 88.5764C168.206 87.5795 169.36 86.3658 170.606 84.9353C171.855 83.5043 173.103 81.9795 174.351 80.361C175.6 78.7426 176.66 77.3735 177.533 76.2538C177.533 75.4448 177.549 74.651 177.58 73.8723C177.612 73.0936 177.659 72.2693 177.72 71.3992C176.951 71.1458 176.129 71.0973 175.335 71.2587C174.297 71.4692 173.311 71.8818 172.433 72.473C171.292 73.2216 170.254 74.1161 169.346 75.1338C168.214 76.4025 167.255 77.8146 166.493 79.3335C165.405 81.1963 164.556 83.188 163.966 85.2618C163.682 86.2782 163.587 87.3381 163.686 88.3887C163.722 88.7143 163.845 89.0243 164.042 89.2866C164.238 89.5489 164.502 89.754 164.805 89.8806V89.8832ZM191.848 41.6201C191.535 42.7398 191.161 44.1865 190.725 45.9604C190.29 47.7342 189.822 49.7415 189.322 51.9821C188.822 54.2227 188.339 56.6343 187.872 59.2171C187.405 61.7999 186.953 64.3984 186.514 67.0126C188.905 62.7154 190.834 58.1782 192.269 53.4766C193.492 49.5001 194.446 45.446 195.123 41.3416C195.787 37.3612 196.131 33.3343 196.152 29.2992C195.652 30.4189 195.153 31.694 194.654 33.1244C194.156 34.5549 193.688 35.8925 193.251 37.1374C192.751 38.6301 192.284 40.1235 191.848 41.6174V41.6201Z" fill="white"/>
<path d="M237.513 78.3043C237.781 78.5257 237.977 78.8213 238.077 79.1537C238.176 79.4861 238.175 79.8406 238.074 80.1724C237.949 80.7317 237.731 81.5715 237.419 82.6918C237.108 83.8121 236.702 85.0412 236.202 86.3791C235.683 87.7634 235.089 89.1187 234.424 90.4392C233.762 91.769 232.979 93.035 232.084 94.2209C231.285 95.3016 230.304 96.2348 229.183 96.9787C228.159 97.652 226.945 97.9788 225.721 97.9109C222.913 97.7864 220.854 96.1685 219.544 93.0573C218.233 89.9461 217.703 85.8697 217.954 80.8281C217.057 82.5271 216.073 84.1786 215.005 85.776C213.875 87.489 212.591 89.0968 211.171 90.5798C209.846 91.9824 208.316 93.1781 206.634 94.1266C205.106 95.0087 203.336 95.3846 201.58 95.2004C200.051 95.1086 198.599 94.4995 197.463 93.4736C196.461 92.5038 195.749 91.2757 195.404 89.9259C195.025 88.4158 194.946 86.8459 195.172 85.3054C195.403 83.5731 195.811 81.8688 196.388 80.2187C196.976 78.5154 197.762 76.8863 198.728 75.3642C199.619 73.93 200.705 72.6262 201.956 71.49C203.292 70.2902 204.769 69.2558 206.354 68.4093C207.861 67.5805 209.484 66.9828 211.169 66.6364C212.682 66.3251 214.243 66.3251 215.755 66.6364C217.234 66.9546 218.585 67.7014 219.639 68.7829C219.758 67.9943 219.93 67.2144 220.153 66.4487C220.372 65.7026 220.574 64.9245 220.762 64.1144C220.861 63.7 221.103 63.3334 221.445 63.0779C221.787 62.8225 222.208 62.6941 222.634 62.715C223.688 62.8041 224.735 62.9598 225.77 63.1812C226.96 63.4203 228.09 63.8965 229.091 64.5814C229.466 64.8936 229.755 65.295 229.933 65.7486C230.118 66.2085 230.15 66.7159 230.022 67.195C229.836 68.0674 229.571 69.2965 229.228 70.8824C228.885 72.4682 228.526 74.1795 228.151 76.0162C227.777 77.8547 227.45 79.7229 227.171 81.6207C226.891 83.5185 226.704 85.2609 226.609 86.8479C226.504 88.1561 226.552 89.4719 226.75 90.7693C226.936 91.7959 227.311 92.34 227.873 92.4017C228.683 92.5274 229.509 92.0144 230.352 90.8627C231.276 89.5717 232.075 88.1965 232.738 86.7554C233.487 85.1684 234.158 83.5656 234.75 81.9472C235.343 80.3287 235.764 79.1464 236.014 78.4004C236.033 78.2911 236.083 78.1894 236.157 78.1069C236.232 78.0245 236.328 77.9646 236.435 77.9342C236.536 77.9024 236.644 77.8938 236.749 77.9092C236.855 77.9246 236.956 77.9635 237.044 78.0232C237.211 78.0984 237.368 78.1927 237.513 78.3043ZM204.48 89.8806C204.916 89.9434 205.54 89.6012 206.353 88.854C207.316 87.945 208.222 86.9783 209.067 85.9593C210.064 84.7773 211.078 83.4547 212.107 81.9916C213.137 80.5285 214.104 79.1438 215.009 77.8372C215.913 76.5325 216.693 75.3817 217.349 74.3847C218.005 73.3878 218.425 72.7354 218.611 72.4276C218.41 72.0794 218.125 71.7862 217.783 71.5743C217.441 71.3624 217.051 71.2384 216.649 71.2133C215.553 71.1182 214.451 71.3282 213.467 71.82C212.097 72.4784 210.848 73.3619 209.771 74.4337C208.337 75.8615 207.151 77.5177 206.263 79.3344C205.179 81.2047 204.315 83.1941 203.689 85.2627C203.38 86.2744 203.269 87.336 203.362 88.3896C203.376 88.7218 203.49 89.0421 203.689 89.3083C203.889 89.5744 204.165 89.774 204.48 89.8806Z" fill="white"/>
<path d="M250.986 98.7489C250.988 99.4686 250.925 100.187 250.799 100.896C250.673 101.518 250.519 102.156 250.331 102.809C250.147 103.456 249.863 104.07 249.49 104.629C248.549 106.19 247.23 107.49 245.655 108.411C244.064 109.319 242.247 109.757 240.415 109.671C239.04 109.521 237.705 109.109 236.485 108.458C235.431 107.911 234.518 107.128 233.818 106.17C232.983 104.92 232.634 103.41 232.837 101.922C233.034 99.9465 233.853 98.0838 235.177 96.6006C236.76 94.7677 238.893 93.4918 241.259 92.9612C241.009 92.5253 240.76 92.1206 240.51 91.7469C239.695 90.6008 238.96 89.3999 238.311 88.153C237.716 87.003 237.233 85.9607 236.86 85.026C236.423 83.9063 236.049 82.8795 235.737 81.9454C235.033 79.6764 234.655 77.3192 234.615 74.9443C234.614 74.02 234.693 73.0975 234.849 72.1865C234.992 71.3218 235.277 70.4864 235.691 69.7135C236.117 68.9418 236.689 68.2601 237.376 67.7065C238.154 67.0859 239.067 66.6544 240.042 66.446C241.052 66.2046 242.097 66.1414 243.13 66.2591C243.93 66.3811 244.705 66.6336 245.423 67.0064C246.161 67.4057 246.714 68.0756 246.966 68.8746C247.154 69.5604 247.061 70.0417 246.686 70.321C246.312 70.6004 245.89 70.9438 245.423 71.3485C244.893 71.8365 244.463 72.4231 244.159 73.0752C243.735 74.2068 243.607 75.4273 243.785 76.6221C243.949 77.5367 244.168 78.4406 244.441 79.3291C244.752 80.2015 245.141 81.2595 245.61 82.5032C246.136 83.877 246.746 85.2177 247.435 86.5179L248.371 88.386C248.729 89.0485 249.041 89.7345 249.306 90.4392C249.618 91.2499 249.93 92.1215 250.241 93.0538C252.613 93.8823 254.737 95.2947 256.417 97.1601C257.126 98.0346 257.753 98.9723 258.289 99.9614C258.744 100.818 259.089 101.727 259.318 102.668C259.57 103.621 259.539 104.627 259.229 105.562C259.033 106.364 258.61 107.093 258.012 107.664C257.594 108.032 257.07 108.26 256.516 108.317C256.046 108.353 255.576 108.256 255.159 108.035C254.852 107.896 254.579 107.689 254.363 107.43C254.121 107.138 253.975 106.78 253.942 106.403C253.907 106.054 253.955 105.702 254.083 105.376C254.207 105.063 254.363 104.723 254.551 104.349C254.386 103.358 254.071 102.398 253.616 101.502C253.009 100.361 252.099 99.409 250.986 98.7489ZM240.974 104.163C241.802 103.406 242.374 102.411 242.612 101.316C242.958 99.926 243.006 98.4786 242.753 97.0685C241.332 97.3224 239.979 97.8624 238.775 98.6555C237.854 99.2059 237.121 100.019 236.669 100.991C236.439 101.469 236.357 102.005 236.435 102.53C236.517 102.895 236.626 103.254 236.762 103.603C236.945 103.909 237.165 104.191 237.417 104.443C237.753 104.74 238.186 104.906 238.635 104.91C239.017 104.918 239.398 104.855 239.757 104.723C240.179 104.575 240.587 104.388 240.974 104.163Z" fill="white"/>
<path d="M321.729 44.698C322.168 45.2633 322.515 45.8937 322.758 46.5662C322.948 47.1532 323.027 47.7704 322.992 48.3863C322.929 49.1186 322.653 49.8165 322.196 50.3932C321.559 51.0407 320.771 51.5216 319.904 51.7935C318.808 52.1771 317.647 52.3357 316.488 52.2596C315.975 52.2696 315.466 52.1745 314.991 51.9803C314.579 51.8348 314.198 51.613 313.868 51.3264C313.664 51.1342 313.501 50.9029 313.389 50.6465C313.276 50.39 313.216 50.1136 313.213 49.8337C313.026 48.1535 311.701 47.3135 309.236 47.3135C305.815 47.4341 302.415 47.8873 299.083 48.6665C294.779 49.5698 289.696 50.7675 283.834 52.2596C277.972 53.7517 271.578 55.152 264.652 56.4603C264.09 59.1996 263.56 62.0781 263.061 65.0956C262.562 68.1131 262.125 71.1003 261.75 74.0574C261.376 77.0138 261.111 79.8142 260.956 82.4587C260.798 84.7898 260.798 87.1287 260.956 89.4598C261.032 91.123 261.379 92.7627 261.985 94.3143C262.14 94.8296 262.454 95.2829 262.883 95.6096C263.312 95.9362 263.833 96.1196 264.372 96.1335C265.182 96.1335 266.055 95.356 266.992 93.801C268.014 92.0734 268.921 90.2798 269.705 88.4323C270.578 86.4118 271.342 84.4205 271.998 82.4587C272.654 80.4968 273.106 79.1429 273.355 78.3968C273.604 77.8363 273.978 77.7121 274.479 78.024C274.621 78.1375 274.778 78.2314 274.946 78.3034C275.207 78.53 275.398 78.8257 275.498 79.1564C275.597 79.487 275.601 79.839 275.508 80.1715C275.382 80.7308 275.148 81.6486 274.805 82.9248C274.463 84.2011 274.011 85.6325 273.449 87.2189C272.887 88.8071 272.233 90.441 271.487 92.1206C270.784 93.7175 269.939 95.2481 268.961 96.694C268.119 97.9581 267.095 99.0908 265.92 100.055C264.945 100.886 263.691 101.319 262.41 101.268C260.96 101.106 259.624 100.407 258.665 99.3112C257.419 97.8412 256.437 96.1672 255.763 94.3632C254.635 91.2086 253.974 87.9067 253.801 84.5617C253.487 80.3826 253.471 76.1864 253.754 72.0051C254.035 67.3697 254.519 62.7177 255.206 58.0491C251.029 58.7088 246.787 58.8656 242.573 58.5161C239.656 58.2651 236.79 57.6063 234.057 56.559C232.097 55.8107 230.313 54.6665 228.818 53.1981C227.704 52.0837 226.787 50.7906 226.103 49.3729C225.74 48.5689 225.595 47.6839 225.682 46.8064C225.773 45.9728 226.062 45.1727 226.524 44.4721C227.007 43.744 227.667 43.1497 228.442 42.7445C229.312 42.2936 230.271 42.0386 231.25 41.9972H232.186C232.702 41.9816 233.205 42.1655 233.588 42.5105C233.767 42.664 233.904 42.8602 233.986 43.0809C234.068 43.3016 234.092 43.5394 234.056 43.772C233.936 45.1045 234.128 46.4468 234.617 47.6924C235.162 49.0588 236.067 50.2525 237.237 51.1467C238.726 52.2648 240.407 53.1029 242.197 53.6198C244.691 54.3313 247.278 54.6613 249.871 54.5983C250.745 54.5983 251.696 54.5518 252.725 54.4587C253.753 54.3656 254.798 54.2568 255.859 54.1322C256.421 50.9581 257.03 47.9709 257.685 45.1704C258.34 42.37 259.01 39.8791 259.697 37.6978C259.815 37.3269 260.054 37.0061 260.377 36.7863C260.699 36.5665 261.085 36.4603 261.475 36.4844C262.341 36.5062 263.204 36.6156 264.048 36.8109C265.162 37.0752 266.182 37.6403 266.996 38.4442C267.481 38.7987 267.828 39.3099 267.977 39.8907C268.134 40.4584 268.117 41.0597 267.931 41.6183C267.617 42.6775 267.242 44.14 266.807 46.0057C266.372 47.8715 265.904 50.0499 265.404 52.5407C268.585 51.8563 271.845 51.0782 275.183 50.2064C278.522 49.3346 281.813 48.4323 285.056 47.4994L294.46 44.7924C297.485 43.9217 300.214 43.1436 302.648 42.4581C305.597 41.6091 308.656 41.1999 311.725 41.2438C313.722 41.2974 315.704 41.6111 317.62 42.1769C319.17 42.6812 320.578 43.5452 321.729 44.698Z" fill="white"/>
<path d="M292.065 78.3043C292.308 78.5434 292.487 78.8399 292.586 79.1665C292.684 79.493 292.698 79.839 292.626 80.1724C292.513 81.1958 292.325 82.2097 292.065 83.2059C291.752 84.4816 291.347 85.8661 290.849 87.3595C290.329 88.902 289.719 90.4133 289.024 91.8857C288.345 93.3436 287.531 94.7345 286.591 96.0401C285.764 97.2056 284.753 98.2299 283.598 99.0736C282.588 99.8265 281.347 100.206 280.088 100.147C279.121 100.142 278.17 99.9108 277.309 99.4732C276.448 99.0357 275.701 98.4035 275.128 97.6271C273.742 95.6518 272.888 93.3543 272.649 90.9552C272.244 87.589 272.274 84.1848 272.738 80.8263C273.289 76.5002 274.181 72.2241 275.404 68.0374C275.416 67.8273 275.475 67.6223 275.575 67.4372C275.676 67.252 275.816 67.0913 275.986 66.9664C276.156 66.8415 276.351 66.7556 276.558 66.7146C276.765 66.6737 276.979 66.6789 277.183 66.7297C278.238 66.7511 279.288 66.8762 280.318 67.1034C281.508 67.342 282.638 67.8183 283.639 68.5036C284.014 68.8157 284.304 69.2172 284.482 69.6707C284.668 70.1306 284.699 70.6381 284.571 71.1172C284.384 71.989 284.103 73.1713 283.729 74.664C283.354 76.1568 282.995 77.775 282.652 79.5186C282.309 81.2616 281.982 83.0194 281.671 84.7921C281.361 86.5648 281.143 88.1826 281.016 89.6457C280.881 90.8582 280.911 92.0833 281.105 93.2877C281.293 94.2526 281.668 94.7659 282.229 94.8276C283.038 94.9509 283.849 94.4219 284.661 93.2406C285.58 91.8563 286.364 90.3871 287 88.8531C287.749 87.1107 288.435 85.2745 289.059 83.3447C289.682 81.4149 290.15 79.7656 290.463 78.3968C290.482 78.2875 290.532 78.1858 290.606 78.1033C290.681 78.0209 290.777 77.9611 290.884 77.9306C291.121 77.87 291.372 77.9018 291.587 78.0196C291.732 78.1357 291.893 78.2315 292.065 78.3043ZM281.023 65.6088C280.121 65.5235 279.261 65.1842 278.544 64.6303C278.25 64.4351 278.019 64.1596 277.877 63.8367C277.736 63.5137 277.691 63.1571 277.748 62.8093C277.827 62.4831 277.989 62.1829 278.219 61.9376C278.449 61.6923 278.738 61.5103 279.059 61.4091C279.893 61.0892 280.796 60.9929 281.679 61.1298C282.55 61.2277 283.376 61.5666 284.065 62.1083C284.351 62.2884 284.578 62.5474 284.72 62.8539C284.861 63.1604 284.91 63.5012 284.861 63.835C284.795 64.1775 284.639 64.4963 284.408 64.7587C284.178 65.0212 283.882 65.2178 283.55 65.3286C282.748 65.6475 281.876 65.7443 281.023 65.6088Z" fill="white"/>
<path d="M307.222 69.1557C307.19 69.4951 307.069 69.8201 306.872 70.0986C306.675 70.3772 306.408 70.5995 306.099 70.7436C305.542 71.0934 304.875 71.2262 304.226 71.1163C303.992 71.1435 303.756 71.0816 303.565 70.9432C303.375 70.8047 303.243 70.5998 303.197 70.3691C303.139 70.2717 303.101 70.1636 303.086 70.0512C303.07 69.9389 303.078 69.8246 303.108 69.7152C303.197 69.4268 303.21 69.1202 303.144 68.8255C303.078 68.5308 302.937 68.2583 302.733 68.0348C302.359 67.7246 302.079 67.6004 301.891 67.6621C301.571 67.7461 301.269 67.8881 301 68.0811C300.39 68.5128 299.879 69.0701 299.503 69.7152C298.837 70.8151 298.302 71.9895 297.911 73.214C297.289 75.201 296.896 77.2523 296.741 79.3282C296.593 81.7345 296.75 84.1499 297.208 86.517C297.392 87.3753 297.642 88.2179 297.957 89.0372C298.242 89.8003 298.653 90.5101 299.174 91.1367C299.661 91.7208 300.289 92.171 300.999 92.4444C301.826 92.7329 302.718 92.7816 303.572 92.5849C304.654 92.2648 305.573 91.5477 306.146 90.578C307.113 89.2635 307.973 87.8743 308.719 86.4236C309.528 84.8692 310.246 83.3293 310.871 81.8039C311.497 80.2786 311.933 79.1426 312.181 78.3959C312.43 77.8355 312.805 77.7112 313.305 78.0232C313.447 78.1366 313.604 78.2306 313.772 78.3025C314.033 78.5291 314.224 78.8249 314.324 79.1555C314.423 79.4861 314.427 79.8381 314.334 80.1706C314.146 81.0424 313.756 82.4424 313.164 84.3704C312.527 86.4067 311.729 88.3891 310.777 90.2987C309.827 92.2517 308.581 94.0464 307.081 95.6194C306.44 96.3363 305.654 96.9104 304.775 97.3044C303.896 97.6985 302.944 97.9036 301.981 97.9065C299.433 98.0238 296.912 97.3391 294.775 95.9494C293.831 95.3251 292.993 94.5527 292.296 93.6622C291.445 92.574 290.767 91.3622 290.284 90.0692C289.674 88.4305 289.281 86.7197 289.114 84.9798C288.902 82.6638 288.95 80.3314 289.255 78.0258C289.628 75.2593 290.384 72.5577 291.501 69.9981C291.944 68.9882 292.477 68.0195 293.092 67.1034C293.698 66.1891 294.421 65.3577 295.244 64.6303C296.07 63.9055 297.022 63.3362 298.052 62.9499C299.188 62.5345 300.399 62.3594 301.607 62.4357C302.471 62.4229 303.326 62.6102 304.106 62.9828C304.885 63.3554 305.567 63.9032 306.099 64.5832C307.039 65.9107 307.441 67.5446 307.222 69.1557Z" fill="white"/>
</svg>
