<svg width="116" height="57" viewBox="0 0 116 57" fill="none" xmlns="http://www.w3.org/2000/svg">
<g clip-path="url(#clip0)">
<path d="M62.6008 32.1173C62.6008 32.3534 62.5491 32.5896 62.5491 32.7785C62.4457 34.0538 61.9287 35.4235 60.2229 35.4235C58.6204 35.4235 58 33.9593 57.845 32.8258C57.7933 32.1645 57.7933 31.645 57.7933 29.7085C57.7933 27.4414 57.845 26.8274 57.8967 26.4495C58.0517 25.0326 58.6204 23.899 60.2229 23.899C61.8254 23.899 62.5491 25.1743 62.5491 26.4495C62.5491 26.4495 62.6008 26.7801 62.6008 27.4414H66.4261C66.4261 27.2052 66.4261 27.0163 66.3744 26.9218C65.9608 22.1042 62.7041 20.9235 60.1712 20.9235C56.6043 20.9235 54.3815 23.0016 54.0196 26.9691C53.968 27.2997 53.9163 27.8665 53.9163 29.7085C53.9163 31.0782 54.0196 32.1645 54.0196 32.4479C54.2781 36.1319 56.6043 38.399 60.2229 38.399C63.9965 38.399 66.0642 36.3209 66.4261 32.4479C66.4261 32.3062 66.4778 32.2117 66.4261 32.1173H62.6008Z" fill="white"/>
<path d="M87.9305 53.7492H28.1729L4.13547 28.386L28.1729 2.83388H87.8788L111.865 28.4805L87.9305 53.7492ZM89.4296 0H26.6738L0 28.2915L26.6738 56.3942H89.4296L116 28.3388L89.4296 0Z" fill="white"/>
<path d="M78.3672 21.7263C77.6435 21.2068 76.4545 20.9234 75.3173 20.9234C74.0766 20.9234 72.8877 21.3012 72.0606 21.9153V14.7833H68.1836V38.0211H72.0606V25.9299C72.0606 25.0798 72.836 24.1351 74.2834 24.0879C74.9037 24.0407 75.8342 24.324 76.2478 24.9381C76.713 25.5993 76.713 26.4495 76.713 27.3941V38.0684H80.59V27.2524C80.59 24.0879 80.1248 22.9543 78.3672 21.7263Z" fill="white"/>
<path d="M48.2817 29.7085C48.2817 31.9756 48.23 32.6368 48.1783 32.8258C48.0749 34.101 47.4546 35.4235 45.8521 35.4235C44.2496 35.4235 43.5776 34.0065 43.5259 32.7785C43.5259 32.7785 43.4225 32.0228 43.4225 29.7085C43.4225 27.4414 43.5259 26.4968 43.5259 26.4495C43.5259 25.1743 44.2496 23.899 45.8521 23.899C47.4546 23.899 48.1783 25.1743 48.1783 26.4495C48.1783 26.4968 48.2817 27.4414 48.2817 29.7085ZM52.0036 26.9691C51.435 22.0098 48.385 20.9235 45.8521 20.9235C42.2852 20.9235 40.0624 23.0016 39.7006 26.9691C39.6489 27.2997 39.5972 27.8665 39.5972 29.7085C39.5972 31.0782 39.7006 32.1645 39.7006 32.4479C39.959 36.1319 42.2335 38.399 45.9038 38.399C49.5223 38.399 51.8485 36.0847 52.0553 32.4479C52.0553 32.2117 52.1587 31.0782 52.1587 29.7085C52.1587 29.0945 52.0553 27.4414 52.0036 26.9691Z" fill="white"/>
<path d="M86.1728 27.6303C86.2245 26.8746 86.2245 26.6857 86.2245 26.4968C86.3279 25.1271 86.9999 23.9463 88.5507 23.9463C90.4117 23.9463 90.8253 25.5994 90.8769 26.4968C90.9286 26.9691 90.9286 27.2997 90.9286 27.6303H86.1728ZM90.9286 32.3062C90.9286 32.3062 90.9286 32.5424 90.8769 32.873C90.7736 33.6759 90.4117 35.4235 88.5507 35.4235C86.9482 35.4235 86.3279 34.101 86.2245 32.7785C86.2245 32.4007 86.1212 31.9756 86.1212 30.5587H94.7023C94.7023 30.5587 94.7023 29.3779 94.7023 28.6694C94.7023 28.386 94.7023 27.9137 94.5989 26.9691C94.4955 25.4577 93.8752 23.8518 92.9447 22.8127C91.8591 21.5847 90.36 20.9707 88.5507 20.9707C85.0873 20.9707 82.9162 23.0489 82.4509 27.0163C82.3992 27.3469 82.3475 27.8665 82.3475 29.7557C82.3475 31.1254 82.4509 32.259 82.4509 32.4951C82.6577 36.132 85.0356 38.4463 88.5507 38.4463C92.0659 38.4463 94.3921 36.1792 94.6506 32.3062H90.9286Z" fill="white"/>
<path d="M28.9484 17.9479H30.7576C32.722 17.9479 33.8075 18.8925 33.8592 20.64C33.8592 20.7817 33.8592 20.9234 33.8592 21.1596C33.8592 21.4902 33.8592 21.5847 33.8592 21.7264C33.7558 22.7655 33.2389 24.513 30.9127 24.513H28.9484V17.9479ZM38.0981 36.6042L37.6845 30.8892C37.5295 28.3387 36.8058 26.8273 35.3583 26.0716C36.3922 25.5049 37.7362 24.0879 37.7362 21.1124C37.7362 16.5782 34.6346 15.0195 31.0161 14.9723H25.123V38.0212H28.9484V27.4886H31.0678C32.3084 27.4886 33.6525 28.4804 33.8592 31.2199L34.2728 36.6042C34.3245 37.3599 34.4796 38.0212 34.4796 38.0212H38.3049C38.3049 38.0212 38.1498 37.4072 38.0981 36.6042Z" fill="white"/>
<path d="M62.6008 32.1173C62.6008 32.3534 62.5491 32.5896 62.5491 32.7785C62.4457 34.0538 61.9287 35.4235 60.2229 35.4235C58.6204 35.4235 58 33.9593 57.845 32.8258C57.7933 32.1645 57.7933 31.645 57.7933 29.7085C57.7933 27.4414 57.845 26.8274 57.8967 26.4495C58.0517 25.0326 58.6204 23.899 60.2229 23.899C61.8254 23.899 62.5491 25.1743 62.5491 26.4495C62.5491 26.4495 62.6008 26.7801 62.6008 27.4414H66.4261C66.4261 27.2052 66.4261 27.0163 66.3744 26.9218C65.9608 22.1042 62.7041 20.9235 60.1712 20.9235C56.6043 20.9235 54.3815 23.0016 54.0196 26.9691C53.968 27.2997 53.9163 27.8665 53.9163 29.7085C53.9163 31.0782 54.0196 32.1645 54.0196 32.4479C54.2781 36.1319 56.6043 38.399 60.2229 38.399C63.9965 38.399 66.0642 36.3209 66.4261 32.4479C66.4261 32.3062 66.4778 32.2117 66.4261 32.1173H62.6008Z" fill="white"/>
</g>
<defs>
<clipPath id="clip0">
<rect width="116" height="56.4414" fill="white"/>
</clipPath>
</defs>
</svg>
