<svg width="231" height="49" viewBox="0 0 231 49" fill="none" xmlns="http://www.w3.org/2000/svg">
<path d="M165.407 8.51819H160.682V40.4818H165.407V8.51819Z" fill="white"/>
<path fill-rule="evenodd" clip-rule="evenodd" d="M109.593 12.5746C103.237 12.5746 98.1852 17.9289 98.1852 24.5812C98.1852 31.1524 103.319 36.3444 109.837 36.3444C116.274 36.3444 121.407 31.1524 121.407 24.5812C121.326 17.7666 116.274 12.5746 109.593 12.5746ZM109.756 8.2749C118.882 8.2749 126.052 15.414 126.052 24.5812C126.052 33.505 118.719 40.8064 109.756 40.8064C100.711 40.8064 93.3778 33.505 93.3778 24.5812C93.3778 15.4951 100.63 8.2749 109.756 8.2749Z" fill="white"/>
<path fill-rule="evenodd" clip-rule="evenodd" d="M11 12.1688C8.06667 12.1688 5.54074 14.197 5.86667 17.1986C6.02963 18.4967 6.68148 19.3079 7.9037 20.1192C8.22963 20.3625 8.96296 20.6059 9.85926 20.9304C10.7556 21.2549 11.8963 21.6606 13.037 22.0662C15.3185 22.8774 17.6815 23.7698 18.6593 24.7433C20.3704 26.3659 21.3481 28.394 21.3481 30.8278C21.3481 36.8311 16.4593 40.8874 10.7556 40.8874C5.05185 40.9685 0.162963 36.9933 0 31.1523H4.56296C5.13333 35.1275 7.65926 36.9122 10.837 36.9122C13.7704 36.9122 16.8667 35.0463 16.8667 31.639C16.8667 29.7731 15.9704 28.394 14.2593 27.5016C13.8519 27.2582 13.2 27.0149 12.3852 26.7715C11.6519 26.5281 10.7556 26.2036 9.85926 25.9602C8.06667 25.3923 6.19259 24.7433 5.05185 24.0132C2.77037 22.6341 1.3037 20.2814 1.3037 17.5231C1.22222 12.0066 5.37778 8.11255 11.163 8.11255C15.7259 8.11255 20.4519 11.6821 20.7778 16.793H16.2148C15.9704 14.0347 13.6074 12.1688 11 12.1688Z" fill="white"/>
<path fill-rule="evenodd" clip-rule="evenodd" d="M137.052 8.51819H152.207V12.8179H138.6V23.202H152.207V27.5016H138.6V40.4818H133.956V11.6821C133.874 9.89733 135.341 8.51819 137.052 8.51819Z" fill="white"/>
<path fill-rule="evenodd" clip-rule="evenodd" d="M65.5111 15.9819V40.4819H60.7852V11.5199C60.7852 9.73517 62.2518 8.2749 64.0444 8.2749C65.1852 8.2749 66.1629 8.76166 66.8148 9.81629C71.4592 17.2799 80.0148 31.4769 80.9111 33.0183V8.51828H85.637V37.4802C85.637 39.265 84.1703 40.7252 82.3777 40.7252C81.237 40.7252 80.2592 40.2385 79.6074 39.1838C74.9629 31.7203 66.4074 17.5232 65.5111 15.9819Z" fill="white"/>
<path fill-rule="evenodd" clip-rule="evenodd" d="M39.6815 14.4404L34.9556 27.3394H44.4074L39.6815 14.4404ZM33.4074 31.4768L30.1482 40.4818H25.2593L36.7482 10.2219C37.1556 9.08611 38.3778 8.19373 39.6815 8.19373C40.9852 8.19373 42.2074 9.00498 42.6148 10.2219L54.1037 40.4818H49.2148L45.8741 31.4768H33.4074Z" fill="white"/>
<path d="M229.859 17.1175C221.956 5.51656 212.993 15.7384 204.111 14.4404C195.23 13.2235 194.904 1.05464 205.822 0.0811258C206.067 0.0811258 206.311 0 206.637 0C217.474 0.0811258 226.682 7.30132 229.859 17.1175Z" fill="white"/>
<path fill-rule="evenodd" clip-rule="evenodd" d="M230.022 17.7665C230.593 19.8758 230.919 22.1473 230.919 24.4999C230.919 38.048 219.919 48.9999 206.311 48.9999C200.363 48.9999 194.904 46.8907 190.585 43.3211C192.296 43.9701 194.252 44.2946 195.963 44.2946C218.289 44.4569 208.756 14.9271 230.022 17.7665Z" fill="white"/>
<path fill-rule="evenodd" clip-rule="evenodd" d="M197.348 41.3742C194.252 43.2401 189.363 42.6722 185.941 38.048C185.207 36.9934 184.556 35.9387 184.067 34.9652C182.6 31.8013 181.704 28.2318 181.704 24.5C181.704 23.5265 181.785 22.553 181.867 21.5795C187.244 28.7997 193.437 28.5563 197.348 30.9089C199.059 31.9636 200.282 33.9106 200.282 36.101C200.282 38.2914 199.059 40.3195 197.348 41.3742Z" fill="white"/>
</svg>
