<svg width="256" height="152" viewBox="0 0 256 152" fill="none" xmlns="http://www.w3.org/2000/svg">
<g clip-path="url(#clip0)">
<path d="M163.649 46.0425C163.649 58.7191 154.198 61.5893 148.576 61.5893C146.542 61.5893 144.508 61.3501 142.594 60.8717C142.594 65.0574 142.594 70.439 142.594 71.7545C142.594 75.9402 143.193 80.1259 144.389 84.0724C145.107 85.3879 146.183 86.5838 147.379 87.4209C148.695 88.2581 150.131 88.7364 151.566 88.9756C152.882 89.2148 154.437 89.3344 154.437 90.0519C154.437 90.7695 154.079 90.8891 152.882 90.8891C150.37 90.8891 144.389 88.9756 138.647 88.9756C134.46 89.2148 130.393 89.6931 126.325 90.5303C125.966 90.5303 125.249 90.5303 125.249 89.9323C125.249 89.3344 127.761 88.9756 130.273 87.6601C131.35 87.0621 132.307 86.1054 133.024 85.0291C133.742 83.9528 134.221 82.7569 134.34 81.4414C135.417 72.7112 136.015 63.8615 136.015 55.0118C136.254 51.1849 135.895 47.4776 134.819 43.7702C133.264 40.3021 129.555 40.0629 126.445 39.8237C124.292 39.8237 123.933 39.5846 123.933 38.7474C123.933 37.9103 124.411 37.9103 125.488 37.9103C126.565 37.9103 128.479 38.0299 131.23 38.0299C133.622 38.0299 136.015 37.9103 138.288 37.5515C144.748 36.834 146.662 34.8009 151.806 34.8009C157.189 34.8009 163.649 36.834 163.649 46.0425ZM142.475 59.1975C144.15 59.6758 145.944 59.7954 147.738 59.7954C153.959 59.7954 156.351 53.2179 156.351 46.76C156.351 41.3784 154.677 36.4752 149.293 36.4752C145.107 36.4752 143.551 39.5846 142.953 44.4878C142.594 47.8363 142.475 53.6963 142.475 59.1975Z" fill="white"/>
<path d="M200.135 42.9331C200.135 55.6098 190.684 58.4799 185.062 58.4799C183.028 58.4799 180.994 58.2408 179.08 57.7624C179.08 61.9481 179.08 67.3297 179.08 68.6452C179.08 72.8309 179.679 77.0165 180.875 80.963C181.593 82.2785 182.669 83.4744 183.865 84.3116C185.181 85.1487 186.617 85.6271 188.052 85.8663C189.368 86.1054 190.923 86.225 190.923 86.9426C190.923 87.6601 190.564 87.7797 189.368 87.7797C186.856 87.7797 180.875 85.8663 175.133 85.8663C170.946 86.1054 166.879 86.5838 162.811 87.4209C162.452 87.4209 161.735 87.4209 161.735 86.823C161.735 86.225 164.247 85.8663 166.759 84.5508C167.836 83.9528 168.793 82.9961 169.51 81.9198C170.228 80.8434 170.707 79.6475 170.826 78.332C171.903 69.6019 172.501 60.7522 172.501 51.9025C172.74 48.0755 172.381 44.3682 171.305 40.6609C169.75 37.1928 166.041 36.9536 162.931 36.7144C160.778 36.7144 160.419 36.4752 160.419 35.6381C160.419 34.801 160.897 34.801 161.974 34.801C163.05 34.801 164.964 34.9205 167.716 34.9205C170.108 34.9205 172.501 34.801 174.774 34.4422C181.234 33.7246 183.148 31.6916 188.292 31.6916C193.555 31.8112 200.135 33.7246 200.135 42.9331ZM178.961 56.0881C180.636 56.5665 182.43 56.6861 184.224 56.6861C190.445 56.6861 192.837 50.1086 192.837 43.6507C192.837 38.2691 191.163 33.3659 185.779 33.3659C181.593 33.3659 180.037 36.4752 179.439 41.3784C179.08 44.727 178.961 50.587 178.961 56.0881Z" fill="white"/>
<path d="M44.0224 104.403C44.0224 112.655 35.7682 115.884 32.7776 116.96C37.3234 116.96 48.6879 119.71 48.6879 131.789C48.9271 135.496 47.7308 139.204 45.3383 141.954C42.9458 144.825 39.4766 146.499 35.7682 146.858C34.0935 147.097 32.4187 147.097 30.7439 147.097C28.471 147.097 26.6766 146.977 24.7626 146.977C17.4654 146.977 12.9196 152 11.2449 152C10.886 152 10.6467 151.761 10.6467 151.282C10.6467 149.847 13.9963 148.532 16.628 146.499C17.585 145.781 18.3028 144.825 18.9009 143.748C19.4991 142.672 19.7383 141.596 19.8579 140.4C20.2168 137.051 20.3364 133.822 20.2168 130.474C20.2168 128.201 20.2168 125.092 20.2168 121.624C20.2168 114.448 19.9776 106.197 18.5421 102.968C17.9439 101.772 17.1065 100.696 16.0299 99.8584C14.9533 99.1408 13.6374 98.6625 12.3215 98.5429C11.3645 98.4233 11.1252 98.1841 11.1252 97.8254C11.1252 97.4666 11.3645 97.347 11.843 97.347C13.1589 97.347 14.714 97.8254 17.9439 97.8254C24.643 97.8254 27.7533 95.4335 33.615 95.4335C38.5196 95.4335 44.0224 97.2274 44.0224 104.403ZM25.1215 110.382C25.1215 112.655 25.3607 114.927 25.6 117.319C27.6336 117.199 29.5477 116.721 31.3421 116.003C33.1365 115.286 34.572 114.09 35.6486 112.415C36.7252 110.861 37.2037 108.947 37.0841 107.034C37.0841 99.8584 33.2561 97.7058 28.9495 97.7058C27.3944 97.7058 25.8393 97.9449 24.4037 98.4233C24.643 101.652 24.8822 106.436 25.1215 110.382ZM27.2748 139.563C27.6336 143.27 29.1888 145.901 32.8972 145.901C38.0411 145.901 41.8692 141.835 41.8692 132.507C41.8692 123.179 37.0841 118.754 30.7439 118.754C29.0692 118.754 27.3944 118.993 25.8393 119.591C26.0785 125.69 26.7963 137.051 27.2748 139.563Z" fill="white"/>
<path d="M93.1889 121.504C93.1889 131.909 86.7291 142.433 72.6132 142.433C58.6169 142.433 51.559 133.463 51.559 121.146C51.559 108.828 59.6935 100.576 71.5365 100.576C84.4562 100.576 93.1889 109.186 93.1889 121.504ZM58.6169 119.352C58.6169 128.56 62.0861 140.878 73.3309 140.878C82.1833 140.878 85.1739 133.105 85.1739 125.451C85.1739 115.764 82.3029 102.011 70.3403 102.011C63.1627 102.011 58.4973 108.708 58.6169 119.352Z" fill="white"/>
<path d="M141.159 121.504C141.159 131.909 134.699 142.433 120.583 142.433C106.467 142.433 99.5291 133.463 99.5291 121.146C99.5291 108.828 107.783 100.576 119.507 100.576C132.426 100.576 141.159 109.186 141.159 121.504ZM106.467 119.352C106.467 128.56 109.937 140.878 121.181 140.878C130.034 140.878 133.024 133.105 133.024 125.451C133.024 115.764 130.153 102.011 118.191 102.011C111.133 102.011 106.467 108.708 106.467 119.352Z" fill="white"/>
<path d="M146.423 95.4335C151.088 96.1511 155.753 96.3902 160.538 96.3902C168.314 96.3902 170.826 95.1943 173.697 95.1943C175.372 95.1943 175.731 96.0315 175.731 97.347C175.731 100.935 174.774 110.143 173.578 110.024C173.099 110.024 173.099 108.469 172.86 105.479C172.621 101.054 171.424 98.9017 167.596 98.1841C165.682 97.8253 163.649 97.7058 161.735 97.8253V133.463C161.735 141.237 163.888 142.672 165.443 143.389C166.998 143.868 168.434 143.987 169.989 144.107C171.424 144.107 172.262 144.107 172.262 144.825C172.262 145.542 171.783 145.901 169.391 145.901C167.477 145.901 165.802 145.781 163.888 145.781C158.266 145.781 152.882 147.456 148.097 150.326C147.38 150.804 146.662 151.163 145.824 151.402H145.705C145.705 151.402 145.585 151.402 145.585 151.282C145.585 151.282 145.585 151.163 145.466 151.163V151.043C145.466 150.206 147.858 149.01 150.49 146.618C154.198 143.15 154.796 140.041 155.036 135.138L156.95 97.8253C153.48 97.8253 152.643 97.8253 149.892 97.8253C142.236 97.8253 141.877 99.978 141.877 103.924C141.996 106.795 142.355 109.545 143.193 112.296C143.432 113.013 143.552 113.851 143.671 114.568C143.671 114.688 143.671 115.046 143.312 115.046C141.877 115.046 140.082 108.11 139.006 104.522C138.288 102.011 137.929 99.4996 137.809 96.9882C137.809 95.5531 138.168 94.716 139.723 94.716C141.279 94.716 143.791 95.1943 146.423 95.4335Z" fill="white"/>
<path d="M185.181 96.6294C188.89 97.2274 192.598 97.7057 196.307 97.8253C196.785 97.8253 197.144 97.9449 197.144 98.3037C197.144 98.6625 196.785 98.7821 196.307 98.7821C195.469 98.7821 193.794 98.6625 192 98.6625C189.368 98.6625 188.052 99.4996 188.052 102.25C187.933 103.805 187.933 107.273 187.933 110.861C187.933 115.046 187.933 119.232 187.933 120.069C187.933 121.983 188.77 122.341 189.847 122.341C192.957 122.341 200.733 121.385 202.049 121.146C204.561 120.667 204.8 118.515 204.8 116.123C204.68 113.253 204.441 110.382 203.963 107.512C203.484 104.642 202.049 104.522 201.092 104.522C199.895 104.522 198.34 104.642 197.623 104.642C196.905 104.642 196.546 104.283 196.546 103.805C196.546 103.327 196.665 102.968 197.862 102.848C200.733 102.729 203.723 102.37 206.594 101.891C209.346 101.054 212.097 100.337 214.968 99.8584C215.806 99.8584 215.925 100.098 215.925 100.456C215.925 100.815 215.447 101.174 214.849 101.174C214.011 101.174 213.054 101.413 212.337 101.772C211.978 102.131 211.619 102.609 211.38 103.087C211.14 103.566 211.021 104.044 211.021 104.642C210.662 107.273 210.542 113.133 210.542 116.601C210.542 119.232 210.183 129.876 210.183 137.051C210.183 139.084 210.183 140.758 210.183 141.954C210.303 144.227 211.38 144.825 212.097 145.183C213.054 145.423 213.892 145.662 214.849 145.781C215.327 145.781 215.447 146.02 215.447 146.26C215.447 146.499 215.447 146.738 214.37 146.738C213.294 146.738 209.465 146.26 207.193 146.26C204.082 146.26 201.211 146.858 199.417 146.858C197.503 146.858 197.623 146.379 197.623 145.901C197.623 145.423 198.101 145.183 198.819 145.183C200.374 145.303 201.929 145.064 203.365 144.466C204.082 144.107 204.68 143.509 205.039 142.792C205.398 142.074 205.518 141.237 205.398 140.519C205.398 138.845 204.68 128.201 204.202 125.331C203.843 123.059 203.125 122.939 201.929 122.939C197.742 123.179 193.675 123.657 189.488 124.494C188.052 124.972 188.052 126.049 187.933 126.766C187.933 129.995 188.172 140.998 188.172 144.585C188.172 148.173 189.129 148.651 190.325 149.13C190.923 149.489 191.641 149.728 191.641 150.087C191.641 150.565 191.402 150.445 191.043 150.445C188.651 149.847 186.138 149.489 183.626 149.369C180.636 149.608 177.765 149.967 174.894 150.565C174.176 150.565 173.937 150.326 173.937 149.847C173.937 149.369 174.295 149.13 174.774 148.891C175.252 148.651 176.927 148.532 178.722 148.054C180.994 147.456 180.994 145.901 181.234 144.466C181.234 143.748 181.593 133.105 181.712 126.049C181.712 124.972 181.712 120.787 181.712 116.003C181.712 109.784 181.712 102.489 181.353 100.696C181.353 99.8584 180.994 98.9016 180.516 98.1841C180.037 97.4666 179.32 96.8686 178.602 96.3902C176.927 95.4335 175.492 95.0747 175.492 94.2376C175.492 93.8788 175.731 93.6396 176.209 93.6396C177.765 94.118 180.994 95.7923 185.181 96.6294Z" fill="white"/>
<path d="M31.3421 80.6043C31.3421 84.0724 29.9066 87.0622 27.3945 89.5736C24.4038 92.3242 20.5758 93.7593 15.7907 93.7593C13.8767 93.7593 11.6038 93.5201 8.97202 92.9221L5.62249 92.2046C4.42623 92.2046 3.11034 93.2809 1.79445 95.3139C1.5552 95.5531 1.31595 96.0315 1.0767 96.749C0.957069 97.2274 0.717817 97.347 0.358939 97.2274C5.99995e-05 97.2274 -0.119566 96.5098 6.0007e-05 94.9552C0.717817 90.1715 0.837443 83.4744 0.478565 74.7443C0.478565 73.5484 0.837443 72.9504 1.43557 72.9504C2.15333 72.9504 2.51221 73.07 2.75146 73.1896C2.87109 73.4288 2.99071 73.9072 2.87109 74.3855C2.87109 74.6247 2.75146 75.2227 2.51221 75.9402C2.39258 76.8969 2.27296 77.7341 2.27296 78.5712C2.27296 79.0496 2.39258 80.0063 2.63184 81.561C3.22997 84.9095 4.06735 87.3013 5.26361 88.7364C7.29726 91.1282 10.886 92.3242 15.9103 92.3242C18.5421 92.3242 20.5758 91.6066 22.0113 89.9323C23.4468 88.2581 24.2842 85.7467 24.4038 82.2785C24.5234 79.8867 23.3272 77.6145 20.6954 75.4618C19.4991 74.5051 17.2262 73.3092 13.8767 71.6349C13.3982 71.3958 12.4412 71.037 11.2449 70.439C10.0487 69.9607 9.09165 69.4823 8.49352 69.1235C6.22062 68.0472 4.42623 66.4925 2.99071 64.5791C1.31595 62.1873 0.478565 59.1975 0.478565 55.6098C0.478565 53.2179 1.19632 50.8261 2.39258 48.6735C4.90473 44.0095 9.3309 41.6176 15.6711 41.498C17.4655 41.498 19.1402 41.7372 20.6954 42.2156C22.4898 42.694 23.5664 42.9331 23.686 42.9331C24.2842 42.9331 24.7627 42.694 25.1216 42.2156C25.8393 41.3785 26.3178 40.6609 26.6767 40.1825C27.3945 38.867 27.9926 37.5515 28.3515 36.236C28.4711 35.8773 28.5907 35.6381 28.83 35.6381C29.1888 35.7577 29.3085 35.9969 29.1888 36.4752C29.0692 37.3124 28.7103 39.5846 28.4711 43.2919C28.1122 48.5539 27.873 54.0551 27.9926 59.5563C27.9926 60.513 27.873 60.9914 27.5141 60.9914C27.2748 60.9914 27.0356 60.9914 26.9159 60.7522C26.3178 60.513 26.3178 60.0346 26.3178 59.5563C26.3178 49.0323 23.686 43.5311 18.4225 42.8135C17.944 42.694 17.3459 42.694 16.3888 42.694C13.1589 42.694 10.6468 43.8899 8.97202 46.2817C7.77576 48.0755 7.058 50.2282 6.93838 52.9788C6.93838 53.2179 6.93838 53.4571 6.93838 53.6963C6.93838 53.9355 6.93838 54.1747 6.93838 54.2943C6.93838 56.4469 7.53651 58.3604 8.73277 60.0346C10.1683 61.9481 13.0393 64.1007 17.2262 66.1338C22.729 68.7648 26.3178 71.037 28.1122 72.8308C30.3851 74.8639 31.4617 77.4949 31.3421 80.6043Z" fill="white"/>
<path d="M85.1739 36.9536C85.1739 37.0732 84.815 37.3123 83.9777 37.6711C83.2599 37.7907 82.1833 38.1495 80.8674 38.3887C79.4319 38.7474 78.4749 38.9866 77.7571 39.2258C75.4842 39.8238 74.4076 41.0197 74.4076 42.6939C74.4076 64.2203 74.4076 74.9835 74.5272 75.1031C74.6468 81.4414 74.8861 84.7899 75.1253 85.5075C75.6038 87.1817 77.3982 88.856 80.3889 90.2911C81.1066 90.7695 81.4655 91.0086 81.4655 91.1282C81.4655 91.3674 81.1066 91.487 80.2692 91.487C74.0487 91.487 69.9814 91.3674 68.3066 91.0086C67.4692 90.8891 66.7515 90.4107 66.3926 89.454C56.344 65.775 49.645 50.8261 46.2954 44.9662C45.0992 57.882 44.501 70.9174 44.501 84.3116C44.501 85.9858 46.0562 87.3013 49.0468 88.0189C49.8842 88.1385 51.0805 88.4972 52.8749 88.7364C54.5496 89.0952 55.8655 89.3344 56.7029 89.5736C57.0618 89.6931 57.1814 89.9323 57.4207 90.1715C57.4207 90.4107 57.301 90.5303 56.9421 90.5303C50.7216 90.7695 44.9795 90.8891 39.4767 90.8891C38.1608 90.8891 36.7253 90.8891 34.9309 90.8891C33.1365 90.8891 31.9403 90.8891 31.3421 90.8891C30.8636 90.8891 30.6244 90.7695 30.6244 90.4107C30.6244 90.0519 30.8636 89.9323 31.3421 89.9323C37.9216 89.3344 41.3907 87.3013 41.7496 83.594C42.9459 71.7545 43.544 60.3934 43.7833 49.5106C43.7833 48.6735 43.9029 47.358 44.0225 45.5641C44.1421 43.2919 44.2618 41.9764 44.2618 41.6176C44.2618 39.8238 43.6636 38.5083 42.3478 37.9103C41.1515 37.3124 38.2805 36.9536 33.8543 36.4752C32.2992 36.3556 31.5814 36.1164 31.5814 35.8773C31.5814 35.7577 32.0599 35.6381 33.1365 35.5185C38.6393 34.9205 44.3814 34.9205 50.0038 35.1597C51.9178 35.2793 55.7459 42.2156 61.4879 55.8489C66.3926 68.2864 69.5029 76.5382 70.5795 80.8434C70.6992 81.4414 70.8188 81.6806 71.2973 81.6806C71.6562 81.6806 71.8954 81.4414 71.8954 80.963C72.6132 64.4595 72.4935 51.9024 71.4169 43.2919C70.9384 39.7042 67.1104 37.6711 59.9328 37.0732C58.9758 37.0732 58.4973 36.834 58.4973 36.4752C58.4973 36.1164 58.9758 35.9969 59.9328 35.9969C61.0094 35.9969 63.0431 36.1164 66.1534 36.236C69.3833 36.3556 71.5365 36.4752 72.4935 36.4752C79.073 36.4752 83.0207 36.4752 84.0973 36.5948C84.815 36.5948 85.1739 36.7144 85.1739 36.9536Z" fill="white"/>
<path d="M137.69 90.5303C137.69 90.7695 137.331 90.8891 136.613 90.8891C134.101 90.7695 131.589 90.6499 128.837 90.2911C125.129 89.9323 122.497 89.6932 120.942 89.6932C119.267 89.6932 116.875 90.0519 113.884 90.8891C110.894 91.7262 108.621 92.085 106.946 92.2046C106.228 92.2046 105.869 92.085 105.869 91.8458C105.869 91.487 106.228 91.2478 106.946 91.1282C109.219 90.4107 110.774 89.8127 111.492 89.3344C113.047 88.1385 113.765 86.1054 113.765 83.3548C113.765 79.6475 112.688 76.7773 110.654 74.6247C108.381 72.2329 105.032 71.037 100.845 71.037C100.366 71.037 100.008 71.2762 99.8879 71.8741C97.8543 77.7341 96.8972 81.8002 96.8972 83.9528C96.8972 86.823 97.1365 88.856 97.4954 89.9323C97.9739 91.0087 99.0505 91.7262 100.606 92.3242C101.323 92.5633 102.52 92.9221 103.955 93.2809C105.391 93.6397 106.467 93.9984 107.185 94.2376C107.544 94.3572 107.544 94.4768 107.424 94.8356C107.305 95.0747 107.065 95.1943 106.826 95.0747C101.922 93.5201 97.615 92.5633 94.0262 92.3242C86.729 91.9654 82.901 91.7262 82.5421 91.7262C82.1832 91.7262 82.0636 91.6066 82.0636 91.3674C82.0636 91.2478 82.3029 91.1282 82.6617 91.1282C83.4991 91.0087 84.815 90.7695 86.4898 90.6499C87.8057 90.4107 89.0019 90.0519 90.3178 89.454C91.7533 88.6168 92.7103 87.3013 93.4281 85.6271C94.5047 82.7569 96.2991 76.7773 98.8113 67.5688C101.443 58.0016 102.759 52.1416 102.759 50.1086C102.759 48.1951 102.041 46.6404 100.606 45.5641C99.4094 44.727 97.7346 44.129 95.5814 43.8899C94.9832 43.7703 93.9066 43.6507 92.5907 43.5311C91.2748 43.4115 90.3178 43.2919 89.6001 43.1723C89.1215 43.0527 89.0019 42.9331 89.2412 42.6939C90.3178 41.7372 96.0599 41.2589 106.348 41.2589C108.022 41.2589 109.099 41.3784 109.697 41.6176C110.654 46.8796 112.688 54.653 115.798 64.8183C119.507 76.299 122.378 83.4744 124.531 86.1054C125.727 87.5405 127.761 88.4972 130.393 88.9756C130.751 88.9756 132.905 89.3344 136.733 89.8127C137.451 90.0519 137.69 90.2911 137.69 90.5303ZM110.774 71.3958V71.037C110.774 70.7978 110.654 70.6782 110.654 70.439C110.654 68.6452 109.937 65.2966 108.381 60.513C106.826 55.3706 105.63 52.7396 104.673 52.7396C104.434 52.8592 103.596 55.251 102.4 60.0346C101.204 64.5791 100.606 67.4493 100.606 68.5256V68.7648C103.836 70.1998 106.946 71.1566 110.176 71.6349C110.535 71.3958 110.654 71.3958 110.774 71.3958Z" fill="white"/>
<path d="M252.89 46.8796C252.89 46.9992 252.531 46.9992 251.813 46.9992C250.856 46.8796 249.899 46.6404 248.942 46.4013C248.583 46.2817 247.985 46.1621 247.387 46.0425C246.789 45.8033 246.31 45.6837 246.071 45.6837C243.439 45.2053 241.406 45.8033 239.731 47.1188C238.295 48.3147 235.664 52.2612 231.836 58.8387C228.008 65.2966 225.735 69.6019 225.017 71.7545C224.419 73.4288 223.94 75.9402 223.342 79.1692C222.026 87.1817 222.505 92.2046 224.658 94.3572C225.615 95.3139 227.05 96.0315 228.965 96.749C229.802 96.9882 230.639 97.2274 231.237 97.5862C231.955 97.8253 232.434 98.0645 232.912 98.1841L233.391 98.3037C234.228 98.6625 234.587 99.0212 234.587 99.2604C234.587 99.4996 234.108 99.4996 233.151 99.38C231.118 99.0212 228.486 98.5429 225.136 97.7057C221.189 96.749 218.318 96.1511 216.763 96.0315C215.686 95.9119 213.533 95.7923 210.303 95.6727C207.073 95.4335 204.441 95.3139 202.408 95.0747C201.331 94.9552 200.852 94.5964 200.972 94.118C200.972 93.8788 201.331 93.7592 201.929 93.6397C207.432 92.9221 211.021 91.6066 212.815 89.8127C214.37 88.0189 215.686 84.5507 216.523 79.4083C216.882 77.0165 217.361 74.7443 217.72 72.8308C214.968 65.177 211.738 56.9253 208.03 48.0755C206.953 45.3249 206.116 43.7703 205.637 43.4115C204.92 42.5743 203.245 41.8568 200.613 41.2588C199.656 41.0197 199.297 40.7805 199.297 40.6609C199.297 40.4217 199.776 40.3021 200.733 40.3021C209.585 39.9434 217.361 39.7042 224.299 39.7042C225.136 39.7042 225.615 39.9434 225.495 40.3021C225.495 40.5413 225.136 40.7805 224.419 40.9001C218.079 41.7372 214.849 42.9331 214.609 44.3682C214.37 45.8033 215.447 49.8694 218.079 56.4469C220.351 62.4264 222.146 66.6121 223.462 68.8843C225.256 66.0142 227.409 62.4264 229.682 58.2408C232.673 52.7396 234.348 49.2714 234.587 47.9559C235.065 45.3249 234.228 43.0527 232.194 41.3784C231.477 40.7805 229.682 39.3454 226.811 37.1928C226.333 36.7144 226.213 36.4752 226.333 36.3556C226.452 36.236 226.692 36.236 227.17 36.3556C231.836 38.3887 236.142 40.1825 239.97 41.7372C241.047 42.096 242.841 42.8135 245.473 43.8898C248.105 44.9662 250.258 45.6837 251.813 46.4013C252.65 46.5208 253.009 46.6404 252.89 46.8796Z" fill="white"/>
<path d="M242.243 39.5846C234.228 33.1267 228.725 27.1471 208.508 36.236L202.766 11.6003L218.198 20.3305L232.314 0L236.74 21.8851L256 10.8828L242.243 39.5846Z" fill="white"/>
</g>
<defs>
<clipPath id="clip0">
<rect width="256" height="152" fill="white"/>
</clipPath>
</defs>
</svg>
