<svg width="25" height="25" viewBox="0 0 25 25" fill="none" xmlns="http://www.w3.org/2000/svg">
<g clip-path="url(#clip0)">
<path d="M12.5 0C5.60417 0 0 5.60417 0 12.5C0 19.3958 5.60417 25 12.5 25C13.2812 25 14.0417 24.9271 14.7917 24.7917L13.9375 22.2292C13.8125 22.3542 13.6771 22.4583 13.5417 22.5521V21.0312L11.6042 15.2292C11.5 14.9271 11.4583 14.6146 11.4583 14.3125V16.4271C10.4688 16.4688 9.5 16.5521 8.58333 16.7083C8.39583 15.7292 8.27083 14.6667 8.21875 13.5208H11.4583V14.3125C11.4583 13.5729 11.75 12.8542 12.3021 12.3021C12.8333 11.7604 13.5521 11.4583 14.3229 11.4583C14.6354 11.4583 14.9375 11.5104 15.2396 11.6042L20.9792 13.5208H22.8646C22.8438 13.7292 22.8229 13.9271 22.7812 14.125L24.7917 14.7917C24.9271 14.0417 25 13.2812 25 12.5C25 5.60417 19.3958 0 12.5 0V0ZM11.4583 18.5104V22.5521C10.5625 21.9479 9.70833 20.6146 9.10417 18.7292C9.86458 18.6146 10.6458 18.5417 11.4583 18.5104ZM3.75 6.86458C4.58333 7.26042 5.52083 7.59375 6.54167 7.86458C6.32292 8.97917 6.1875 10.1771 6.13542 11.4375H2.13542C2.30208 9.77083 2.88542 8.21875 3.75 6.86458ZM2.13542 13.5208H6.13542C6.1875 14.8021 6.32292 16.0104 6.54167 17.1354C5.52083 17.4062 4.58333 17.7396 3.75 18.1354C2.875 16.7812 2.30208 15.2083 2.13542 13.5208ZM8.27083 22.0104C7.07292 21.4792 6 20.7292 5.09375 19.8125C5.6875 19.5521 6.34375 19.3333 7.04167 19.1562C7.375 20.2292 7.79167 21.1979 8.27083 22.0104ZM7.04167 5.84375C6.34375 5.66667 5.6875 5.44792 5.09375 5.1875C6 4.27083 7.07292 3.52083 8.27083 2.98958C7.79167 3.80208 7.375 4.77083 7.04167 5.84375ZM11.4583 11.4375H8.21875C8.27083 10.3125 8.39583 9.26042 8.58333 8.29167C9.5 8.44792 10.4688 8.53125 11.4583 8.57292V11.4375ZM11.4583 6.48958C10.6458 6.45833 9.86458 6.38542 9.10417 6.27083C9.70833 4.38542 10.5625 3.05208 11.4583 2.44792V6.48958ZM13.5417 2.44792C14.4375 3.05208 15.2917 4.38542 15.8958 6.27083C15.1354 6.38542 14.3542 6.45833 13.5417 6.48958V2.44792ZM13.5417 11.4375V8.57292C14.5312 8.53125 15.5 8.44792 16.4167 8.29167C16.6042 9.26042 16.7292 10.3125 16.7812 11.4375H13.5417ZM16.7292 2.98958C17.9271 3.52083 19 4.27083 19.9062 5.1875C19.3125 5.44792 18.6562 5.66667 17.9583 5.84375C17.625 4.77083 17.2083 3.80208 16.7292 2.98958ZM18.8646 11.4375C18.8125 10.1771 18.6771 8.97917 18.4583 7.86458C19.4792 7.59375 20.4167 7.26042 21.25 6.86458C22.1146 8.21875 22.6979 9.77083 22.8646 11.4375H18.8646Z" fill="white"/>
<path d="M17.6219 25C17.6167 25 17.6104 25 17.6042 25C17.275 24.9927 16.9854 24.7792 16.8813 24.4656L13.5823 14.5698C13.4886 14.2885 13.5615 13.9792 13.7708 13.7698C13.9802 13.5594 14.2896 13.4864 14.5708 13.5812L24.4667 16.8802C24.7792 16.9844 24.9927 17.2739 25.0011 17.6031C25.0083 17.9323 24.8083 18.2323 24.5 18.35L20.0594 20.0583L18.3511 24.4989C18.2344 24.8021 17.9438 25 17.6219 25Z" fill="white"/>
</g>
<defs>
<clipPath id="clip0">
<rect width="25" height="25" fill="white"/>
</clipPath>
</defs>
</svg>
