<svg width="277" height="78" viewBox="0 0 277 78" fill="none" xmlns="http://www.w3.org/2000/svg">
<g clip-path="url(#clip0)">
<path opacity="0.54" d="M83.1432 59.3968H77.9616V19.3614H101.494V24.2801H83.1438V37.4243H99.6959V42.2294H83.1438V59.3968L83.1432 59.3968ZM111.237 25.1232C110.002 26.3552 108.062 26.5487 106.605 25.5854C105.148 24.6221 104.579 22.7703 105.247 21.1632C105.915 19.5561 107.633 18.6414 109.35 18.9788C111.067 19.3162 112.305 20.8118 112.306 22.5502C112.323 23.5185 111.934 24.4502 111.233 25.1232H111.237H111.237ZM111.237 59.3968H106.056V31.9989H111.237V59.3969V59.3968ZM122.608 59.3968H117.426V31.9989H122.379V36.4721H122.603C123.202 34.8958 124.351 33.5857 125.841 32.7809C127.264 31.8737 128.91 31.3706 130.6 31.3262C131.927 31.2888 133.248 31.5176 134.484 31.9989L132.514 36.804C131.625 36.5103 130.691 36.3772 129.756 36.4109C127.856 36.4204 126.047 37.2225 124.772 38.6212C123.326 40.0948 122.604 42.0242 122.604 44.4092L122.608 59.3968L122.608 59.3968ZM148.683 60.2704C144.516 60.2704 141.129 58.8915 138.522 56.1341C135.915 53.3766 134.61 49.8976 134.607 45.6982C134.531 41.9172 135.887 38.2456 138.408 35.4109C140.822 32.5893 144.393 31.0057 148.12 31.1032C152.211 31.1032 155.486 32.4268 157.946 35.0739C160.407 37.7211 161.635 41.2624 161.632 45.6977L161.575 46.65H139.78C139.929 49.4077 140.859 51.592 142.568 53.2024C144.167 54.7608 146.323 55.6251 148.563 55.605C152.278 55.605 154.793 54.0391 156.107 50.9091L160.725 52.8093C159.789 54.9755 158.246 56.8286 156.278 58.1473C154.211 59.5626 151.679 60.2703 148.682 60.2703L148.683 60.2704ZM156.117 42.3604C156.005 40.7937 155.282 39.3027 153.948 37.8873C152.614 36.4719 150.63 35.7789 147.997 35.808C146.17 35.7762 144.396 36.4138 143.013 37.599C141.564 38.8599 140.55 40.5406 140.114 42.4041L156.117 42.3604L156.117 42.3604ZM180.353 60.2704C178.393 60.309 176.454 59.8584 174.714 58.96C173.186 58.1947 171.894 57.0361 170.971 55.6051H170.747V59.3968H165.789V19.3614H170.971V31.9989L170.747 35.7993H170.971C171.894 34.3683 173.186 33.2097 174.714 32.4445C176.451 31.5356 178.39 31.0744 180.353 31.1034C183.919 31.1034 186.998 32.5013 189.59 35.297C192.183 38.0927 193.477 41.5597 193.474 45.6979C193.472 49.8361 192.18 53.3031 189.59 56.0988C187.001 58.8945 183.922 60.2851 180.353 60.2705L180.353 60.2704ZM179.509 55.5745C181.869 55.5931 184.124 54.6054 185.702 52.8618C187.429 51.0533 188.293 48.6581 188.293 45.6759C188.293 42.6938 187.429 40.2986 185.702 38.49C184.106 36.7673 181.858 35.7849 179.501 35.7798C177.144 35.7748 174.892 36.7479 173.289 38.4637C171.582 40.2518 170.729 42.6558 170.729 45.6758C170.729 48.6958 171.591 51.107 173.315 52.9097C174.903 54.6468 177.164 55.6248 179.526 55.5962L179.509 55.5743L179.509 55.5745ZM206.666 60.2704C203.733 60.2704 201.285 59.4317 199.32 57.7543C197.355 56.077 196.37 53.8593 196.364 51.1014C196.364 48.1193 197.528 45.7809 199.857 44.0859C202.185 42.3909 205.056 41.5436 208.469 41.5436C211.51 41.5436 214.003 42.1027 215.947 43.221V42.4391C216.021 40.5975 215.255 38.821 213.862 37.6034C212.443 36.39 210.618 35.7494 208.746 35.808C207.314 35.7903 205.904 36.1565 204.665 36.8695C203.504 37.5082 202.613 38.5411 202.157 39.7788L197.429 37.765C198.068 36.1196 199.326 34.5936 201.209 33.1871C203.091 31.7805 205.563 31.0815 208.643 31.0903C212.161 31.0903 215.094 32.1096 217.44 34.148C219.786 36.1865 220.95 39.0755 220.932 42.8147V59.3968H215.962V55.5964H215.738C213.67 58.7124 210.648 60.2646 206.672 60.2646L206.666 60.2704ZM207.51 55.5745C209.688 55.5669 211.778 54.7232 213.343 53.2199C215.011 51.8234 215.976 49.769 215.982 47.6023C214.516 46.4083 212.317 45.8112 209.384 45.8112C206.868 45.8112 204.972 46.3514 203.697 47.4319C202.506 48.3407 201.801 49.7413 201.783 51.2323C201.759 52.5298 202.429 53.7437 203.543 54.4211C204.715 55.2035 206.099 55.6134 207.511 55.5962V55.5743L207.51 55.5745ZM236.168 60.2704C233.089 60.2704 230.546 59.5249 228.54 58.0338C226.589 56.6025 225.068 54.6692 224.142 52.4424L228.76 50.5422C230.227 53.9728 232.719 55.6881 236.238 55.6881C237.636 55.7449 239.018 55.3744 240.197 54.6266C241.169 54.0271 241.756 52.9673 241.745 51.8309C241.745 50.0428 240.487 48.8313 237.965 48.1964L232.392 46.8554C230.558 46.3735 228.85 45.5066 227.382 44.313C225.82 43.1031 224.939 41.2206 225.016 39.2546C225.016 36.8318 226.095 34.8659 228.253 33.3573C230.511 31.8183 233.2 31.0263 235.937 31.0945C238.223 31.0582 240.477 31.6299 242.465 32.7501C244.342 33.8085 245.793 35.478 246.573 37.4766L242.073 39.3025C241.062 36.8798 238.959 35.6681 235.766 35.6681C234.407 35.6232 233.063 35.9529 231.882 36.6204C230.914 37.1184 230.307 38.1108 230.307 39.1933C230.307 40.7601 231.527 41.8231 233.967 42.3822L239.426 43.6708C242.015 44.2533 243.93 45.2726 245.17 46.7286C246.372 48.0889 247.032 49.838 247.026 51.6473C247.05 54.0597 245.923 56.3409 243.987 57.7979C241.961 59.4462 239.352 60.2704 236.162 60.2704L236.168 60.2704ZM264.037 60.2704C259.87 60.2704 256.483 58.8915 253.876 56.1341C251.27 53.3766 249.964 49.8899 249.961 45.676C249.885 41.895 251.241 38.2234 253.762 35.3887C256.185 32.5742 259.76 30.999 263.487 31.1034C267.592 31.1034 270.868 32.427 273.314 35.0742C275.759 37.7213 276.988 41.2626 277 45.6978L276.943 46.6501H255.129C255.279 49.4079 256.208 51.5922 257.918 53.2026C259.522 54.761 261.683 55.6223 263.927 55.5963C267.642 55.5963 270.157 54.0304 271.47 50.9004L276.089 52.8006C275.153 54.967 273.61 56.82 271.642 58.1386C269.575 59.5597 267.04 60.2703 264.037 60.2703L264.037 60.2704ZM271.471 42.3604C271.36 40.7937 270.637 39.3027 269.303 37.8873C267.968 36.4719 265.987 35.7789 263.36 35.808C261.534 35.7767 259.76 36.4142 258.376 37.599C256.927 38.8599 255.914 40.5406 255.478 42.4041L271.471 42.3604V42.3604Z" fill="black"/>
<path d="M0.492188 62.4701L10.0202 1.47172C10.1366 0.723628 10.7182 0.133901 11.4642 0.00709154C12.2103 -0.119718 12.9538 0.24511 13.3105 0.912778L23.1641 19.3003L27.0917 11.8185C27.3959 11.24 27.9955 10.8778 28.6489 10.8778C29.3023 10.8778 29.9019 11.24 30.2061 11.8185L56.7974 62.47H0.492188V62.4701Z" fill="#FFA000"/>
<path d="M33.4089 38.7089L23.1596 19.2915L0.492249 62.4701L33.4089 38.7089Z" fill="#F57C00"/>
<path d="M56.7978 62.4701L49.5001 17.2891C49.3898 16.6402 48.927 16.1072 48.3003 15.9063C47.6735 15.7054 46.9875 15.8726 46.5221 16.3378L0.492249 62.4695L25.9617 76.7597C27.5611 77.6531 29.509 77.6531 31.1084 76.7597L56.7978 62.4695V62.4701Z" fill="#FFCA28"/>
<path d="M49.5 17.2891C49.3897 16.6402 48.9269 16.1072 48.3001 15.9063C47.6734 15.7054 46.9874 15.8726 46.522 16.3378L37.3861 25.5014L30.2021 11.8182C29.898 11.2397 29.2983 10.8775 28.6449 10.8775C27.9915 10.8775 27.3919 11.2397 27.0877 11.8182L23.1601 19.3L13.306 0.912775C12.9487 0.24493 12.2043 -0.119307 11.4574 0.00844788C10.7104 0.136202 10.1309 0.727407 10.0157 1.47609L0.492138 62.4701H0.461426L0.492138 62.5054L0.742855 62.6286L46.5087 16.7873C46.9739 16.3196 47.6616 16.1515 48.29 16.3518C48.9184 16.5521 49.382 17.0872 49.4912 17.7379L56.7273 62.514L56.7977 62.47L49.5 17.2889L49.5 17.2891ZM0.575711 62.3865L10.0201 1.90745C10.1352 1.15877 10.7161 0.567566 11.4624 0.439812C12.2087 0.312057 12.9531 0.676175 13.311 1.34414L23.164 19.7316L27.0916 12.2498C27.3958 11.6713 27.9955 11.3091 28.6489 11.3091C29.3023 11.3091 29.9019 11.6713 30.2061 12.2498L37.2443 25.6422L0.575297 62.3865H0.575711Z" fill="white" fill-opacity="0.2"/>
<path opacity="0.2" d="M31.1084 76.329C29.509 77.2225 27.5611 77.2225 25.9617 76.329L0.553789 62.0785L0.492188 62.4703L25.9617 76.7561C27.5611 77.6496 29.5089 77.6496 31.1083 76.7561L56.7977 62.4703L56.7318 62.0654L31.1084 76.3292V76.329Z" fill="#A52714"/>
<path d="M49.4271 17.2984C49.3172 16.6498 48.856 16.1166 48.2314 15.9168C47.6069 15.7171 46.9233 15.8832 46.4595 16.3482L37.355 25.5072L30.1967 11.8303C29.8936 11.252 29.296 10.8899 28.645 10.8899C27.994 10.8899 27.3964 11.252 27.0933 11.8303L23.1788 19.3088L13.3598 0.929266C13.0037 0.261716 12.262 -0.102462 11.5183 0.0253521C10.7746 0.153166 10.1956 0.743898 10.081 1.4924L0.590637 62.4597L25.9711 76.7392C27.5649 77.6323 29.506 77.6323 31.0998 76.7392L56.6994 62.4597L49.4271 17.2983V17.2984Z" fill="url(#paint0_linear)"/>
</g>
<defs>
<linearGradient id="paint0_linear" x1="-1.36756" y1="13.175" x2="68.6661" y2="50.0988" gradientUnits="userSpaceOnUse">
<stop stop-color="white" stop-opacity="0.1"/>
<stop offset="0.14" stop-color="white" stop-opacity="0.08"/>
<stop offset="0.61" stop-color="white" stop-opacity="0.02"/>
<stop offset="1" stop-color="white" stop-opacity="0"/>
</linearGradient>
<clipPath id="clip0">
<rect width="277" height="78" fill="white"/>
</clipPath>
</defs>
</svg>
