<svg width="375" height="107" viewBox="0 0 375 107" fill="none" xmlns="http://www.w3.org/2000/svg">
<g clip-path="url(#clip0)">
<path fill-rule="evenodd" clip-rule="evenodd" d="M349.155 44.3133C348.818 44.3807 348.48 45.1245 348.48 45.5297C348.412 48.2351 348.345 55.403 348.345 60.2715C348.345 60.407 348.547 60.6774 348.75 60.6774C349.764 60.7448 352.197 60.8123 354.292 60.8123C357.198 60.8123 358.888 60.407 359.835 60.0018C362.268 58.784 363.417 56.1467 363.417 53.2384C363.417 46.6802 358.821 44.1778 351.994 44.1778C351.521 44.1104 350.17 44.1104 349.155 44.3133V44.3133ZM366.594 74.5399C366.594 67.8453 361.66 64.1258 352.738 64.1258C352.332 64.1258 349.493 64.0584 348.817 64.1932C348.615 64.2614 348.345 64.3969 348.345 64.5999C348.345 69.4003 348.277 77.0423 348.48 80.0173C348.614 81.3018 349.562 83.1279 350.711 83.6686C351.927 84.345 354.698 84.4798 356.591 84.4798C361.93 84.4798 366.594 81.5048 366.594 74.5399V74.5399ZM335.368 40.5946C336.043 40.5946 338.071 40.7968 343.275 40.7968C348.209 40.7968 352.129 40.662 356.928 40.662C362.808 40.662 370.919 42.7577 370.919 51.5486C370.919 55.8764 367.877 59.3255 363.89 61.016C363.688 61.0834 363.688 61.2182 363.89 61.2856C369.567 62.7064 374.569 66.2223 374.569 72.8486C374.569 79.3409 370.514 83.4657 364.633 86.0355C361.051 87.5904 356.591 88.1312 352.062 88.1312C348.614 88.1312 339.355 87.7259 334.219 87.8615C333.678 87.6578 334.692 85.2236 335.164 84.8183C336.382 84.7502 337.327 84.6828 338.612 84.2768C340.437 83.8042 340.639 83.2627 340.909 80.4906C341.045 78.1238 341.045 69.7381 341.045 63.788C341.045 55.606 341.113 50.0611 341.045 47.3565C340.978 45.2608 340.234 44.5837 338.747 44.1778C337.597 43.9755 335.706 43.7044 334.151 43.5022C333.812 43.1636 334.961 40.8642 335.368 40.5946ZM296.368 82.6545C297.991 83.9383 301.168 84.4791 304.006 84.4791C307.656 84.4791 311.306 83.8042 314.821 80.6247C318.403 77.3801 320.903 72.376 320.903 64.3969C320.903 56.7549 317.997 50.5338 312.049 46.8831C308.67 44.786 304.344 43.9081 299.342 43.9081C297.855 43.9081 296.436 43.9755 295.558 44.3807C295.354 44.5163 294.882 45.1245 294.882 45.4623C294.746 46.815 294.746 57.2283 294.746 63.3146C294.746 69.6032 294.746 78.3942 294.882 79.4083C294.882 80.4232 295.354 81.9781 296.369 82.6545H296.368ZM281.025 40.5938C282.31 40.5938 287.243 40.7968 289.609 40.7968C293.868 40.7968 296.909 40.5946 304.952 40.5946C311.711 40.5946 317.388 42.4199 321.444 45.8683C326.377 50.1285 328.947 56.0119 328.947 63.1791C328.947 73.3902 324.283 79.2735 319.619 82.6545C314.956 86.1029 308.873 88.1312 300.221 88.1312C295.625 88.1312 287.717 87.9963 281.161 87.9282H281.093C280.756 87.32 281.634 84.9532 282.174 84.8858C283.932 84.6828 284.405 84.6146 285.284 84.2776C286.703 83.736 286.974 82.9923 287.177 80.4906C287.379 75.8244 287.312 70.2122 287.312 63.8554C287.312 59.3255 287.379 50.4664 287.243 47.6262C287.041 45.2601 286.028 44.6511 284 44.2452C282.986 44.0429 281.634 43.7718 279.742 43.5696C279.471 43.0955 280.688 40.9998 281.025 40.5946V40.5938Z" fill="#8E714E"/>
<path fill-rule="evenodd" clip-rule="evenodd" d="M199.243 85.291C197.553 85.088 196.337 84.8183 194.85 84.142C194.647 84.0064 194.309 83.3308 194.309 83.0597C194.174 80.6929 194.174 73.9309 194.174 69.401C194.174 65.7489 193.566 62.5709 192.011 60.3396C190.186 57.7691 187.551 56.2823 184.17 56.2823C181.197 56.2823 177.209 58.3106 173.897 61.1508C173.829 61.2182 173.289 61.6923 173.356 60.9478C173.356 60.204 173.492 58.7165 173.559 57.7016C173.627 56.7549 173.086 56.2823 173.086 56.2823C170.923 57.3638 164.84 58.7839 162.609 58.9862C160.988 59.3255 160.582 60.8804 162.272 61.4212H162.34C164.164 61.9619 165.381 62.5709 166.326 63.1798C167.002 63.7206 166.935 64.4643 166.935 65.0733C167.002 70.144 167.002 77.9208 166.8 82.1811C166.733 83.8716 166.26 84.4798 165.042 84.7502L165.178 84.6828C164.232 84.8857 163.488 85.088 162.339 85.2235C161.933 85.6295 161.933 87.7933 162.339 88.2667C163.083 88.2667 167.002 88.0637 170.248 88.0637C174.708 88.0637 177.007 88.2667 178.155 88.2667C178.628 87.7259 178.764 85.6969 178.493 85.2235C177.209 85.1561 176.262 85.0213 175.384 84.7502C174.168 84.4791 173.829 83.8716 173.761 82.4515C173.627 78.8668 173.627 71.2937 173.627 66.1548C173.627 64.7347 174.032 64.0584 174.437 63.6524C175.992 62.3005 178.493 61.3537 180.724 61.3537C182.886 61.3537 184.305 62.0301 185.387 62.9094C186.874 64.1258 187.347 65.8844 187.55 67.169C187.887 70.0766 187.753 75.8244 187.753 80.8284C187.753 83.5331 187.55 84.2094 186.537 84.5472C186.063 84.7502 184.846 85.0213 183.427 85.1554C182.954 85.6295 183.089 87.7259 183.427 88.1993C185.387 88.1993 187.685 87.9963 191.065 87.9963C195.255 87.9963 197.959 88.1993 199.041 88.1993C199.378 87.7933 199.513 85.8325 199.243 85.291V85.291ZM217.965 59.461C214.384 59.461 212.153 62.2331 212.153 66.56C212.153 70.9559 214.113 76.0273 219.655 76.0273C220.601 76.0273 222.359 75.6214 223.169 74.6747C224.454 73.4583 225.333 71.0233 225.333 68.4535C225.333 62.8413 222.561 59.4603 217.965 59.4603V59.461ZM217.492 89.3483C216.141 89.3483 215.194 89.7542 214.586 90.0928C211.747 91.9173 210.463 93.676 210.463 95.7731C210.463 97.7333 211.206 99.2882 212.829 100.641C214.789 102.331 217.492 103.143 220.939 103.143C227.833 103.143 230.875 99.4238 230.875 95.7731C230.875 93.2026 229.59 91.5121 226.955 90.5661C225.062 89.7542 221.615 89.3483 217.492 89.3483V89.3483ZM217.965 106.93C213.842 106.93 210.868 106.051 208.3 104.09C205.799 102.197 204.718 99.3564 204.718 97.3955C204.718 96.8547 204.853 95.3665 206.07 94.0145C206.813 93.2026 208.436 91.6477 212.288 89.0105C212.423 88.943 212.49 88.8756 212.49 88.7393C212.49 88.6045 212.355 88.4689 212.22 88.4023C209.043 87.1851 208.097 85.2235 207.826 84.142V84.0064C207.76 83.6005 207.624 83.1952 208.233 82.7893C208.706 82.4515 209.382 82.0455 210.125 81.5729C211.274 80.8958 212.49 80.1521 213.234 79.5432C213.369 79.4083 213.369 79.2735 213.369 79.1379C213.369 79.0024 213.234 78.8668 213.098 78.8001C208.368 77.2445 206.002 73.7279 206.002 68.4535C206.002 65.0051 207.557 61.8945 210.327 59.9336C212.22 58.4461 216.951 56.6201 220.061 56.6201H220.263C223.44 56.6875 225.197 57.3638 227.698 58.2432C229.05 58.7165 230.334 58.9188 232.092 58.9188C234.727 58.9188 235.876 58.1076 236.822 57.1616C236.89 57.2964 237.026 57.635 237.093 58.5136C237.16 59.3929 236.89 60.6774 236.214 61.6241C235.674 62.3679 234.457 62.9094 233.24 62.9094H232.902C231.686 62.7738 231.144 62.6383 231.144 62.6383L230.875 62.7738C230.807 62.9094 230.875 63.0442 230.942 63.2472L231.01 63.3828C231.145 63.991 231.415 65.8163 231.415 66.2904C231.415 71.8352 229.185 74.2687 226.819 76.0948C224.521 77.7852 221.886 78.8668 218.911 79.1379C218.844 79.1379 218.574 79.1379 217.965 79.2053C217.627 79.2053 217.154 79.2735 217.086 79.2735H217.019C216.478 79.4083 215.127 80.0847 215.127 81.2336C215.127 82.2478 215.735 83.4656 218.641 83.6686C219.249 83.736 219.857 83.736 220.534 83.8042C224.386 84.0738 229.185 84.4124 231.415 85.1561C234.524 86.3051 236.484 89.0779 236.484 92.3914C236.484 97.3962 232.903 102.062 226.955 104.969C224.049 106.254 221.142 106.93 217.965 106.93V106.93ZM256.49 59.7988C255.072 59.7988 253.787 60.1359 252.841 60.8122C250.206 62.4353 248.854 65.6814 248.854 70.4144C248.854 79.2735 253.314 85.4947 259.668 85.4947C261.56 85.4947 263.047 84.9531 264.331 83.8716C266.291 82.2478 267.305 79.0024 267.305 74.4717C267.305 65.6815 262.912 59.7981 256.491 59.7981L256.49 59.7988ZM257.708 88.7401C246.218 88.7401 242.095 80.2876 242.095 72.376C242.095 66.8312 244.325 62.5709 248.785 59.5277C251.963 57.5668 255.748 56.4853 259.127 56.4853C267.913 56.4853 274.064 62.7738 274.064 71.8352C274.064 77.9882 271.631 82.8567 266.967 85.8325C264.737 87.32 260.884 88.7401 257.707 88.7401H257.708V88.7401ZM137.264 59.7981C135.844 59.7981 134.561 60.1359 133.614 60.8122C130.978 62.4353 129.626 65.6814 129.626 70.4144C129.626 79.2735 134.087 85.4947 140.44 85.4947C142.333 85.4947 143.82 84.9531 145.105 83.8716C147.064 82.2478 148.078 79.0024 148.078 74.4717C148.078 65.6815 143.752 59.7981 137.264 59.7981ZM138.48 88.7401C126.99 88.7401 122.867 80.2876 122.867 72.376C122.867 66.8312 125.098 62.5709 129.558 59.5277C132.735 57.5668 136.521 56.4853 139.9 56.4853C148.687 56.4853 154.837 62.7738 154.837 71.8352C154.837 77.9882 152.404 82.8567 147.74 85.8325C145.577 87.32 141.724 88.7401 138.48 88.7401ZM61.2261 88.0637C61.0906 87.8615 60.9551 87.2526 61.0232 86.5088C61.0232 85.9673 61.1587 85.6295 61.2261 85.4947C62.6455 85.291 63.3889 85.088 64.1997 84.8857C65.5518 84.5472 66.0923 83.8042 66.1597 82.1137C66.3633 78.0564 66.3633 70.347 66.2952 65.0051V64.8695C66.2952 64.2614 66.2952 63.5169 65.5518 62.9761C64.47 62.3005 63.1861 61.6923 61.4964 61.2174C60.8884 61.0159 60.4827 60.6774 60.5501 60.2722C60.5501 59.8662 60.9558 59.3929 61.8347 59.2573C64.065 59.0543 69.8767 57.635 72.1751 56.6201C72.3106 56.7549 72.5134 57.1616 72.5134 57.7024L72.4461 58.4454C72.378 59.1899 72.3106 60.0692 72.3106 60.9478C72.3106 61.2182 72.5816 61.4212 72.8511 61.4212C72.9866 61.4212 73.1221 61.3537 73.2569 61.2856C77.5825 57.9046 81.5025 56.6875 83.5298 56.6875C86.8425 56.6875 89.4112 58.2432 91.3711 61.4886C91.5059 61.6923 91.6414 61.7597 91.8443 61.7597C91.979 61.7597 92.1812 61.6923 92.2493 61.5567C96.2373 58.5136 100.225 56.6875 102.861 56.6875C109.146 56.6875 112.864 61.3537 112.864 69.2654C112.864 71.4967 112.864 74.4043 112.797 77.0422C112.797 79.4083 112.729 81.5722 112.729 83.1278C112.729 83.4649 113.202 84.5472 113.945 84.7502C114.891 85.2235 116.176 85.4265 117.866 85.6969H117.933C118.069 86.1703 117.798 87.9282 117.528 88.2667C117.122 88.2667 116.514 88.2667 115.838 88.1993C114.127 88.11 112.414 88.0648 110.701 88.0637C106.511 88.0637 104.348 88.1311 102.252 88.2667C102.118 87.7259 102.05 86.1029 102.252 85.6969C103.469 85.4947 104.077 85.291 104.821 85.0887C106.173 84.6828 106.511 84.0738 106.579 82.3159C106.579 81.0314 106.849 70.0766 106.443 67.4394C106.038 64.7347 104.01 61.5567 99.5486 61.5567C97.8589 61.5567 95.2236 62.2331 92.655 64.1932C92.5203 64.3288 92.3841 64.6666 92.3841 64.8695V64.9377C92.655 66.3571 92.655 67.9809 92.655 70.4825V74.8776C92.655 77.9208 92.5869 80.761 92.655 82.9241C92.655 84.4124 93.534 84.7502 94.2774 85.0213C94.6831 85.088 94.9527 85.1561 95.291 85.2235C95.8989 85.3591 96.5076 85.4947 97.4539 85.6969C97.5894 85.968 97.5894 86.8466 97.3865 87.5904C97.3184 87.9963 97.1829 88.1986 97.1155 88.2667C94.8179 88.1993 92.4522 88.1311 89.0054 88.1311C87.9917 88.1311 86.2339 88.1993 84.7471 88.1993C83.5298 88.1993 82.3814 88.2667 81.7061 88.2667C81.638 88.1311 81.5025 87.6585 81.5025 86.914C81.5025 86.3058 81.638 85.8325 81.7735 85.6969C82.1111 85.6295 82.3814 85.5621 82.7197 85.5621C83.5298 85.4265 84.2066 85.291 84.8819 85.1561C86.0318 84.8183 86.4368 84.2094 86.5042 82.7219C86.7071 79.3409 86.9099 69.6714 86.4368 67.2364C85.626 63.3146 83.3958 61.3537 79.8128 61.3537C77.718 61.3537 75.0813 62.3679 72.9192 63.9917C72.5808 64.2614 72.3106 64.937 72.3106 65.5459V69.5358C72.3106 74.4043 72.3106 80.4906 72.3779 83.1278C72.4461 83.9383 72.7156 84.8857 74.2705 85.2235C74.6089 85.291 75.1494 85.4265 75.8255 85.4947L77.0413 85.6969C77.1775 86.1029 77.1094 87.7259 76.8391 88.2667C76.1631 88.2667 75.3523 88.1993 74.4053 88.1993C72.9866 88.1311 71.1614 88.0637 69.1341 88.0637C66.7683 88.0637 65.0786 88.1311 63.7266 88.1993C62.7803 88.0637 62.0369 88.0637 61.2261 88.0637V88.0637Z" fill="#442D22"/>
<path fill-rule="evenodd" clip-rule="evenodd" d="M25.6736 104.293L22.9028 103.346C22.9028 103.346 23.2412 89.2135 18.1714 88.1993C14.7927 84.2768 18.7134 -78.1477 30.8789 87.6578C30.8789 87.6578 26.688 89.7535 25.9446 93.3382C25.1331 96.8547 25.6736 104.293 25.6736 104.293V104.293Z" fill="white"/>
<path fill-rule="evenodd" clip-rule="evenodd" d="M25.6736 104.293L22.9028 103.346C22.9028 103.346 23.2412 89.2135 18.1714 88.1993C14.7927 84.2768 18.7134 -78.1477 30.8789 87.6578C30.8789 87.6578 26.688 89.7535 25.9446 93.3382C25.1331 96.8547 25.6736 104.293 25.6736 104.293V104.293Z" fill="#A6A385"/>
<path fill-rule="evenodd" clip-rule="evenodd" d="M27.1611 90.6336C27.1611 90.6336 51.4262 74.6747 45.7478 41.4724C40.2737 17.3329 27.364 9.4213 25.9446 6.37813C24.3904 4.21427 22.9028 0.428082 22.9028 0.428082L23.9172 67.5742C23.9172 67.6423 21.8218 88.1312 27.1619 90.6343" fill="white"/>
<path fill-rule="evenodd" clip-rule="evenodd" d="M27.1611 90.6336C27.1611 90.6336 51.4262 74.6747 45.7478 41.4724C40.2737 17.3329 27.364 9.4213 25.9446 6.37813C24.3904 4.21427 22.9028 0.428082 22.9028 0.428082L23.9172 67.5742C23.9172 67.6423 21.8218 88.1312 27.1619 90.6343" fill="#499D4A"/>
<path fill-rule="evenodd" clip-rule="evenodd" d="M21.4841 91.5121C21.4841 91.5121 -1.29419 75.9592 0.0578632 48.5736C1.3418 21.1873 17.428 7.73081 20.5371 5.29657C22.5652 3.13272 22.6326 2.32081 22.7681 0.15696C24.1875 3.20013 23.9172 45.666 24.1194 50.6693C24.7273 69.941 23.0383 87.8615 21.4841 91.5121Z" fill="white"/>
<path fill-rule="evenodd" clip-rule="evenodd" d="M21.4841 91.5121C21.4841 91.5121 -1.29419 75.9592 0.0578632 48.5736C1.3418 21.1873 17.428 7.73081 20.5371 5.29657C22.5652 3.13272 22.6326 2.32081 22.7681 0.15696C24.1875 3.20013 23.9172 45.666 24.1194 50.6693C24.7273 69.941 23.0383 87.8615 21.4841 91.5121Z" fill="#58AA50"/>
</g>
<defs>
<clipPath id="clip0">
<rect width="375" height="107" fill="white"/>
</clipPath>
</defs>
</svg>
