<svg width="304" height="184" viewBox="0 0 304 184" fill="none" xmlns="http://www.w3.org/2000/svg">
<path d="M71.7312 47.8333H129.068V52.3905H76.9871V86.6897H125.963V91.247H76.9871V128.904H129.666V133.461H71.7312V47.8333ZM134.205 47.8333H140.297L167.293 85.4905L194.887 47.8333L232.418 0L170.757 89.4481L202.532 133.461H196.201L167.293 93.4057L138.266 133.461H132.055L164.068 89.4481L134.205 47.8333ZM204.801 52.3905V47.8333H270.142V52.3905H240.04V133.461H234.784V52.3905H204.801ZM0 47.8333H6.56989L97.1648 183.4L59.7262 133.461L5.49481 54.3094L5.25591 133.461H0V47.8333ZM269.612 127.529C268.538 127.529 267.733 126.697 267.733 125.622C267.733 124.546 268.538 123.714 269.612 123.714C270.699 123.714 271.491 124.546 271.491 125.622C271.491 126.697 270.699 127.529 269.612 127.529ZM274.777 122.511H277.589C277.627 124.034 278.74 125.058 280.376 125.058C282.204 125.058 283.239 123.958 283.239 121.897V108.841H286.103V121.91C286.103 125.622 283.955 127.759 280.402 127.759C277.065 127.759 274.777 125.686 274.777 122.511ZM289.849 122.345H292.687C292.929 124.098 294.642 125.212 297.11 125.212C299.411 125.212 301.098 124.022 301.098 122.383C301.098 120.975 300.024 120.13 297.583 119.554L295.205 118.978C291.868 118.198 290.347 116.585 290.347 113.871C290.347 110.581 293.032 108.393 297.059 108.393C300.804 108.393 303.54 110.581 303.706 113.692H300.919C300.651 111.989 299.168 110.927 297.02 110.927C294.757 110.927 293.249 112.015 293.249 113.679C293.249 114.997 294.221 115.753 296.624 116.316L298.656 116.815C302.44 117.698 304 119.234 304 122.012C304 125.545 301.264 127.759 296.892 127.759C292.802 127.759 290.053 125.647 289.849 122.345Z" fill="black"/>
</svg>
