<svg width="233" height="143" viewBox="0 0 233 143" fill="none" xmlns="http://www.w3.org/2000/svg">
<path d="M115.08 142.588C114.291 142.588 113.555 142.377 112.871 142.009L105.876 137.85C104.824 137.271 105.35 137.061 105.665 136.956C107.085 136.482 107.348 136.377 108.821 135.534C108.979 135.429 109.189 135.482 109.347 135.587L114.712 138.798C114.922 138.903 115.185 138.903 115.343 138.798L136.329 126.639C136.539 126.534 136.644 126.323 136.644 126.06V101.796C136.644 101.532 136.539 101.322 136.329 101.217L115.343 89.1106C115.133 89.0054 114.87 89.0054 114.712 89.1106L93.726 101.217C93.5156 101.322 93.4104 101.585 93.4104 101.796V126.06C93.4104 126.271 93.5156 126.534 93.726 126.639L99.4589 129.955C102.562 131.534 104.508 129.692 104.508 127.85V103.901C104.508 103.585 104.771 103.269 105.139 103.269H107.822C108.137 103.269 108.453 103.533 108.453 103.901V127.85C108.453 132.008 106.191 134.429 102.247 134.429C101.037 134.429 100.09 134.429 97.4077 133.113L91.8851 129.955C90.5176 129.166 89.6761 127.692 89.6761 126.113V101.848C89.6761 100.269 90.5176 98.7954 91.8851 98.0059L112.871 85.8473C114.186 85.1104 115.974 85.1104 117.289 85.8473L138.275 98.0059C139.642 98.7954 140.484 100.269 140.484 101.848V126.113C140.484 127.692 139.642 129.166 138.275 129.955L117.289 142.114C116.605 142.43 115.816 142.588 115.08 142.588ZM121.549 125.902C112.345 125.902 110.451 121.692 110.451 118.112C110.451 117.797 110.714 117.481 111.083 117.481H113.818C114.133 117.481 114.396 117.691 114.396 118.007C114.817 120.797 116.027 122.165 121.602 122.165C126.02 122.165 127.913 121.165 127.913 118.797C127.913 117.428 127.387 116.428 120.497 115.744C114.764 115.165 111.188 113.902 111.188 109.322C111.188 105.059 114.764 102.533 120.76 102.533C127.493 102.533 130.806 104.848 131.227 109.901C131.227 110.059 131.174 110.217 131.069 110.375C130.964 110.48 130.806 110.586 130.648 110.586H127.913C127.65 110.586 127.387 110.375 127.335 110.112C126.704 107.217 125.073 106.27 120.76 106.27C115.921 106.27 115.343 107.954 115.343 109.217C115.343 110.744 116.027 111.217 122.549 112.059C129.018 112.902 132.068 114.112 132.068 118.639C132.016 123.271 128.229 125.902 121.549 125.902Z" fill="#539E43"/>
<path d="M49.9661 47.6871C49.9661 46.7397 49.4402 45.8449 48.5986 45.3712L26.298 32.5283C25.9298 32.3177 25.509 32.2125 25.0883 32.1598H24.8779C24.4571 32.1598 24.0363 32.3177 23.6682 32.5283L1.36749 45.3712C0.525959 45.8449 0 46.7397 0 47.6871L0.0525959 82.2155C0.0525959 82.6892 0.315576 83.1629 0.736343 83.3735C1.15711 83.6366 1.68307 83.6366 2.05124 83.3735L15.3054 75.7941C16.147 75.3203 16.6729 74.4256 16.6729 73.4781V57.3193C16.6729 56.3718 17.1989 55.477 18.0404 55.0033L23.6682 51.74C24.0889 51.4768 24.5623 51.3715 25.0357 51.3715C25.509 51.3715 25.9824 51.4768 26.3506 51.74L31.9783 55.0033C32.8199 55.477 33.3458 56.3718 33.3458 57.3193V73.4781C33.3458 74.4256 33.8718 75.3203 34.7133 75.7941L47.9675 83.3735C48.3883 83.6366 48.9142 83.6366 49.335 83.3735C49.7558 83.1629 50.0187 82.6892 50.0187 82.2155L49.9661 47.6871Z" fill="#333333"/>
<path d="M157.157 0.157904C156.736 -0.0526348 156.21 -0.0526348 155.842 0.157904C155.421 0.421078 155.158 0.842156 155.158 1.31587V35.5285C155.158 35.8443 155 36.1601 154.685 36.3706C154.369 36.5285 154.054 36.5285 153.738 36.3706L148.163 33.1599C147.321 32.6862 146.322 32.6862 145.48 33.1599L123.18 46.0554C122.338 46.5291 121.812 47.4239 121.812 48.3713V74.1097C121.812 75.0572 122.338 75.952 123.18 76.4257L145.48 89.3212C146.322 89.7949 147.321 89.7949 148.163 89.3212L170.463 76.4257C171.305 75.952 171.831 75.0572 171.831 74.1097V9.94797C171.831 8.94791 171.305 8.05312 170.463 7.57941L157.157 0.157904ZM155.105 65.6355C155.105 65.8987 155 66.1093 154.79 66.2145L147.163 70.6358C146.953 70.7411 146.69 70.7411 146.48 70.6358L138.853 66.2145C138.643 66.1093 138.538 65.8461 138.538 65.6355V56.7929C138.538 56.5297 138.643 56.3192 138.853 56.2139L146.48 51.7926C146.69 51.6873 146.953 51.6873 147.163 51.7926L154.79 56.2139C155 56.3192 155.105 56.5824 155.105 56.7929V65.6355Z" fill="#333333"/>
<path d="M231.37 56.5824C232.211 56.1086 232.684 55.2139 232.684 54.2664V48.0029C232.684 47.0555 232.158 46.1607 231.37 45.687L209.227 32.8441C208.385 32.3704 207.386 32.3704 206.544 32.8441L184.244 45.7396C183.402 46.2133 182.876 47.1081 182.876 48.0555V73.7939C182.876 74.7414 183.402 75.6361 184.244 76.1099L206.386 88.7422C207.228 89.2159 208.227 89.2159 209.016 88.7422L222.428 81.2681C222.849 81.0575 223.112 80.5838 223.112 80.1101C223.112 79.6364 222.849 79.1627 222.428 78.9521L200.022 66.0566C199.602 65.7934 199.339 65.3724 199.339 64.8987V56.8455C199.339 56.3718 199.602 55.8981 200.022 55.6876L207.018 51.6873C207.438 51.4242 207.964 51.4242 208.385 51.6873L215.38 55.6876C215.801 55.9507 216.064 56.3718 216.064 56.8455V63.1617C216.064 63.6354 216.327 64.1091 216.748 64.3197C217.169 64.5828 217.695 64.5828 218.115 64.3197L231.37 56.5824Z" fill="#333333"/>
<path d="M207.544 55.3718C207.701 55.2665 207.912 55.2665 208.07 55.3718L212.33 57.8456C212.488 57.9509 212.593 58.1088 212.593 58.3193V63.267C212.593 63.4775 212.488 63.6354 212.33 63.7407L208.07 66.2145C207.912 66.3198 207.701 66.3198 207.544 66.2145L203.283 63.7407C203.126 63.6354 203.02 63.4775 203.02 63.267V58.3193C203.02 58.1088 203.126 57.9509 203.283 57.8456L207.544 55.3718Z" fill="#539E43"/>
<mask id="mask0" mask-type="alpha" maskUnits="userSpaceOnUse" x="61" y="32" width="50" height="58">
<path d="M87.2566 32.9494C86.4151 32.4757 85.4158 32.4757 84.5742 32.9494L62.4314 45.7396C61.5898 46.2133 61.1165 47.1081 61.1165 48.0555V73.6887C61.1165 74.6361 61.6424 75.5309 62.4314 76.0046L84.5742 88.7948C85.4158 89.2686 86.4151 89.2686 87.2566 88.7948L109.4 76.0046C110.241 75.5309 110.714 74.6361 110.714 73.6887V48.0555C110.714 47.1081 110.188 46.2133 109.4 45.7396L87.2566 32.9494Z" fill="white"/>
</mask>
<g mask="url(#mask0)">
<path d="M87.2566 32.9494C86.4151 32.4757 85.4158 32.4757 84.5742 32.9494L62.4314 45.7396C61.5898 46.2133 61.1165 47.1081 61.1165 48.0555V73.6887C61.1165 74.6361 61.6424 75.5309 62.4314 76.0046L84.5742 88.7948C85.4158 89.2686 86.4151 89.2686 87.2566 88.7948L109.4 76.0046C110.241 75.5309 110.714 74.6361 110.714 73.6887V48.0555C110.714 47.1081 110.188 46.2133 109.4 45.7396L87.2566 32.9494Z" fill="url(#paint0_linear)"/>
<path d="M109.452 45.7396L87.2041 32.9494C86.9937 32.8441 86.7307 32.7388 86.5203 32.6862L61.5898 75.4256C61.8002 75.6888 62.0632 75.8993 62.3262 76.0572L84.5743 88.8475C85.2054 89.2159 85.9418 89.3212 86.6255 89.1107L110.031 46.266C109.873 46.0554 109.663 45.8975 109.452 45.7396Z" fill="url(#paint1_linear)"/>
<path fill-rule="evenodd" clip-rule="evenodd" d="M109.505 76.0046C110.136 75.6362 110.609 75.0046 110.82 74.3203L86.4151 32.6336C85.7839 32.5283 85.1002 32.5809 84.5216 32.9494L62.4313 45.687L86.2573 89.1633C86.5729 89.1107 86.941 89.0054 87.2566 88.8475L109.505 76.0046Z" fill="url(#paint2_linear)"/>
<path fill-rule="evenodd" clip-rule="evenodd" d="M109.505 76.0046L87.3092 88.7949C86.9936 88.9528 86.678 89.058 86.3099 89.1107L86.7306 89.9002L111.346 75.6362V75.3204L110.714 74.2677C110.609 75.0046 110.136 75.6362 109.505 76.0046Z" fill="url(#paint3_linear)"/>
<path fill-rule="evenodd" clip-rule="evenodd" d="M109.505 76.0046L87.3092 88.7949C86.9936 88.9528 86.678 89.058 86.3099 89.1107L86.7306 89.9002L111.346 75.6362V75.3204L110.714 74.2677C110.609 75.0046 110.136 75.6362 109.505 76.0046Z" fill="url(#paint4_linear)"/>
</g>
<defs>
<linearGradient id="paint0_linear" x1="94.9365" y1="42.4839" x2="70.6394" y2="80.6322" gradientUnits="userSpaceOnUse">
<stop stop-color="#41873F"/>
<stop offset="0.3288" stop-color="#418B3D"/>
<stop offset="0.6352" stop-color="#419637"/>
<stop offset="0.9319" stop-color="#3FA92D"/>
<stop offset="1" stop-color="#3FAE2A"/>
</linearGradient>
<linearGradient id="paint1_linear" x1="82.5534" y1="63.8741" x2="143.358" y2="30.8633" gradientUnits="userSpaceOnUse">
<stop offset="0.1376" stop-color="#41873F"/>
<stop offset="0.4032" stop-color="#54A044"/>
<stop offset="0.7136" stop-color="#66B848"/>
<stop offset="0.9081" stop-color="#6CC04A"/>
</linearGradient>
<linearGradient id="paint2_linear" x1="60.3077" y1="60.8729" x2="111.545" y2="60.8729" gradientUnits="userSpaceOnUse">
<stop offset="0.0919165" stop-color="#6CC04A"/>
<stop offset="0.2864" stop-color="#66B848"/>
<stop offset="0.5968" stop-color="#54A044"/>
<stop offset="0.8624" stop-color="#41873F"/>
</linearGradient>
<linearGradient id="paint3_linear" x1="60.3076" y1="82.127" x2="111.545" y2="82.127" gradientUnits="userSpaceOnUse">
<stop offset="0.0919165" stop-color="#6CC04A"/>
<stop offset="0.2864" stop-color="#66B848"/>
<stop offset="0.5968" stop-color="#54A044"/>
<stop offset="0.8624" stop-color="#41873F"/>
</linearGradient>
<linearGradient id="paint4_linear" x1="119.01" y1="41.2722" x2="106.011" y2="109.336" gradientUnits="userSpaceOnUse">
<stop stop-color="#41873F"/>
<stop offset="0.3288" stop-color="#418B3D"/>
<stop offset="0.6352" stop-color="#419637"/>
<stop offset="0.9319" stop-color="#3FA92D"/>
<stop offset="1" stop-color="#3FAE2A"/>
</linearGradient>
</defs>
</svg>
