<svg width="285" height="76" viewBox="0 0 285 76" fill="none" xmlns="http://www.w3.org/2000/svg">
<g clip-path="url(#clip0)">
<path d="M285 61.6994H280.206C278.789 61.6994 277.365 61.6605 275.948 61.6994C275.385 61.7339 274.824 61.6027 274.334 61.3217C273.844 61.0408 273.447 60.6225 273.192 60.1183C271.426 57.1183 269.685 54.0987 267.932 51.0857C267.852 50.872 267.713 50.6855 267.531 50.5479C266.748 52.2715 265.706 53.8396 264.768 55.4659C263.946 56.898 263.092 58.3105 262.258 59.7425C262.064 60.0453 261.847 60.3334 261.611 60.6043C261.323 60.9757 260.948 61.2701 260.519 61.4611C260.09 61.6522 259.62 61.734 259.152 61.6994C256.648 61.6476 254.144 61.6994 251.64 61.6994C251.453 61.6994 251.2 61.8031 251.103 61.5957C251.006 61.3884 251.226 61.2458 251.33 61.0838C254.586 56.0729 257.856 51.0576 261.138 46.038C261.329 45.8188 261.433 45.538 261.433 45.2475C261.433 44.957 261.329 44.6763 261.138 44.457C258 39.8111 254.921 35.1392 251.809 30.4544C251.724 30.3184 251.634 30.1888 251.556 30.0462C251.479 29.9037 251.524 29.7741 251.712 29.7546C251.852 29.7448 251.992 29.7448 252.132 29.7546C254.921 29.7546 257.709 29.7546 260.498 29.7546C261.056 29.7115 261.615 29.835 262.103 30.1095C262.591 30.3839 262.987 30.7971 263.241 31.2968C264.872 34.1154 266.58 36.8823 268.262 39.6685C268.346 39.8111 268.378 40.0573 268.598 40.0249C268.818 39.9925 268.767 39.7722 268.844 39.6426L272.04 33.9729C272.558 33.0593 273.089 32.1586 273.6 31.2385C273.825 30.7716 274.182 30.3817 274.628 30.1177C275.073 29.8537 275.587 29.7274 276.104 29.7546C278.692 29.7546 281.28 29.7546 283.868 29.7546C284.068 29.7546 284.347 29.651 284.45 29.8713C284.554 30.0916 284.314 30.2536 284.198 30.422C281.071 35.014 277.939 39.5929 274.803 44.1589C274.643 44.3273 274.549 44.5477 274.539 44.7798C274.528 45.0119 274.601 45.2401 274.745 45.4225C278.109 50.6969 281.457 55.9843 284.786 61.2847L285 61.5892V61.6994Z" fill="#303030"/>
<path d="M41.0332 0C42.4203 0.198192 43.7867 0.521325 45.1158 0.96547C48.7787 2.30768 51.9821 4.67055 54.3486 7.7756C57.4607 11.7282 59.1623 16.2834 60.0228 21.195C60.2157 22.2802 60.3539 23.3745 60.4369 24.4737C60.4887 25.0828 60.4369 25.1217 59.874 24.9338C58.5088 24.4802 57.1372 24.0396 55.7396 23.6897C55.5877 23.6634 55.4502 23.5837 55.3517 23.4649C55.2533 23.3462 55.2004 23.1961 55.2026 23.0417C54.6762 18.2423 52.7854 13.695 49.7548 9.93981C47.7942 7.35786 44.9257 5.62026 41.7319 5.08006C39.522 4.80355 37.2784 5.02493 35.1648 5.72802C32.2209 6.58982 29.5229 7.93111 27.4654 10.2638C25.4996 12.5317 23.9647 15.1405 22.9364 17.9616C21.7498 21.2264 21.1177 24.6672 21.0665 28.1412C20.8963 32.7355 21.5538 37.3229 23.0076 41.6837C23.7979 43.9911 24.794 46.2227 25.9838 48.3513C26.0751 48.5675 26.2346 48.7479 26.4378 48.8649C26.6411 48.9819 26.877 49.0291 27.1096 48.9992C28.3571 48.9619 29.5826 49.3342 30.5992 50.0594C31.6157 50.7847 32.3674 51.823 32.7397 53.016C33.1121 54.2091 33.0845 55.4913 32.6612 56.6672C32.238 57.8431 31.4423 58.848 30.3955 59.5287C29.3487 60.2095 28.1084 60.5286 26.8636 60.4375C25.6188 60.3463 24.438 59.8499 23.5012 59.024C22.5644 58.198 21.9231 57.0879 21.6751 55.8628C21.4271 54.6378 21.586 53.3652 22.1276 52.2391C22.2035 52.1129 22.2436 51.9684 22.2436 51.8211C22.2436 51.6738 22.2035 51.5293 22.1276 51.4032C19.2517 46.476 17.3186 41.0549 16.4275 35.4178C15.1846 27.7918 16.3352 19.9674 19.7208 13.0241C22.0129 8.17001 25.9069 4.25644 30.7458 1.9439C32.7765 0.94662 34.9665 0.314943 37.2158 0.077756C37.3214 0.0610328 37.4254 0.0350133 37.5264 0L41.0332 0Z" fill="#7649BB"/>
<path d="M0 54.5458C0.162577 53.2771 0.393682 52.0182 0.692297 50.7746C1.67896 47.1574 3.46569 43.809 5.92011 40.9774C7.52531 39.0979 9.34012 37.4086 11.3291 35.9427C11.8402 35.5604 11.8855 35.5798 12.0214 36.2083C12.3164 37.6194 12.6836 39.0143 13.1213 40.3877C13.2636 40.8089 13.0631 40.9903 12.7849 41.2236C9.60523 43.7396 7.11985 47.0272 5.56426 50.7746C4.44974 53.5514 4.20438 56.6019 4.86071 59.5216C5.51704 62.4413 7.04406 65.0922 9.23926 67.1228C11.4293 69.0816 14.1752 70.3071 17.0939 70.6283C23.3764 71.5095 29.2318 70.1682 34.7507 67.1487C37.669 65.5938 40.411 63.7277 42.9289 61.5827C46.0287 58.9008 48.5967 55.6585 50.4989 52.0252C50.5729 51.8994 50.6023 51.7522 50.5824 51.6075C50.5624 51.4628 50.4942 51.3292 50.3889 51.2282C49.5115 50.2024 49.0325 48.8944 49.0396 47.5437C49.0468 46.1931 49.5395 44.8902 50.4277 43.8738C51.0968 43.0105 52.0114 42.3707 53.051 42.0387C54.0906 41.7067 55.2062 41.6981 56.2508 42.0141C57.311 42.2485 58.2774 42.7941 59.0265 43.5813C59.7756 44.3684 60.2734 45.3614 60.4563 46.4332C60.758 47.89 60.4779 49.4071 59.6761 50.6595C58.8742 51.9119 57.6144 52.7999 56.1667 53.1332C55.9532 53.1742 55.7529 53.2663 55.5827 53.4017C55.4126 53.5371 55.2777 53.7118 55.1897 53.9108C51.3579 61.6218 45.1017 67.8577 37.3841 71.6586C33.1567 73.8023 28.5823 75.1757 23.8746 75.7148C17.7409 76.3628 11.989 75.2613 6.90356 71.5614C3.1121 68.8205 1.15814 64.9521 0.310563 60.4358C0.187632 59.7878 0.103521 59.1398 0 58.4919V54.5458Z" fill="#7649BB"/>
<path d="M56.1667 76C54.8726 75.7991 53.5786 75.663 52.3364 75.352C50.0154 74.8205 47.7543 74.0542 45.5881 73.0647C45.2322 72.9092 45.1999 72.7731 45.5234 72.5269C46.895 71.5096 48.2473 70.4728 49.5154 69.3259C49.7678 69.0991 49.9877 69.1899 50.2465 69.2935C52.1613 70.1027 54.1697 70.6686 56.2249 70.9782C60.1587 71.5744 64.0472 71.4383 67.554 69.3778C72.6653 66.3777 75.4086 61.9132 75.0981 55.8547C74.8615 53.1853 74.0397 50.6012 72.6912 48.2865C69.8314 42.9602 65.4706 39.1566 60.2363 36.2861C56.4675 34.1973 52.3756 32.7561 48.1308 32.0225C45.5011 31.5929 42.8351 31.4279 40.1726 31.53C40.0329 31.5327 39.897 31.5765 39.7819 31.656C39.6669 31.7355 39.5777 31.8472 39.5256 31.9771C39.0687 32.8393 38.4001 33.5706 37.5828 34.1023C36.7655 34.634 35.8264 34.9485 34.8542 35.0161C33.8819 35.0837 32.9085 34.9023 32.0257 34.4889C31.1428 34.0754 30.3796 33.4437 29.8081 32.6531C29.2365 31.8625 28.8754 30.9392 28.7588 29.9702C28.6422 29.0011 28.7739 28.0183 29.1416 27.1144C29.5092 26.2105 30.1007 25.4152 30.8601 24.8035C31.6196 24.1919 32.5221 23.784 33.4826 23.6184C34.5959 23.3991 35.7496 23.5247 36.7899 23.9784C37.8302 24.4322 38.7077 25.1926 39.3057 26.1584C39.3887 26.2955 39.5086 26.4065 39.6516 26.4787C39.7946 26.5509 39.955 26.5814 40.1144 26.5666C44.0279 26.4219 47.9433 26.7923 51.7605 27.6682C56.4739 28.703 60.9611 30.5844 65.0048 33.2212C70.3296 36.7332 74.7099 41.1135 77.589 46.9063C79.4003 50.5142 80.2219 54.5393 79.97 58.5697C79.8669 60.7456 79.3254 62.8782 78.3781 64.8392C77.4307 66.8001 76.0972 68.5489 74.4575 69.9804C70.6991 73.3996 65.9279 75.4953 60.8704 75.9481C60.7669 75.9649 60.6651 75.9909 60.5663 76.0259L56.1667 76Z" fill="#7649BB"/>
<path d="M142.878 42.9926C144.386 43.8374 145.642 45.0699 146.515 46.5629C147.647 48.5068 148.824 50.36 149.983 52.2586L155.398 61.1357C155.495 61.2912 155.709 61.4532 155.586 61.6476C155.463 61.842 155.256 61.7253 155.081 61.7253H146.023C145.28 61.7532 144.545 61.5695 143.903 61.1956C143.26 60.8217 142.737 60.2729 142.393 59.613C140.045 55.4919 137.657 51.3903 135.347 47.2433C135.044 46.5772 134.542 46.0212 133.911 45.6512C133.28 45.2813 132.55 45.1154 131.821 45.1763C131.291 45.1763 130.754 45.1763 130.223 45.1763C129.531 45.1763 129.531 45.1763 129.531 45.8955V60.9931C129.531 61.7189 129.531 61.7253 128.787 61.7253H119.78C119.043 61.7253 119.036 61.7253 119.036 60.9802V17.6571C119.049 16.8472 119.049 16.8472 119.845 16.8472C124.601 16.8472 129.363 16.8083 134.124 16.8472C137.541 16.7723 140.938 17.3757 144.121 18.6226C148.559 20.5147 151.121 23.8063 151.6 28.6596C152.247 35.1393 148.915 40.4591 143.15 42.8047C143.086 42.863 143.027 42.9084 142.878 42.9926ZM129.531 31.3292C129.531 33.3185 129.531 35.3142 129.531 37.3035C129.531 37.7506 129.673 37.8996 130.113 37.8931C131.659 37.8931 133.206 37.8931 134.746 37.8543C136.198 37.8195 137.61 37.3699 138.815 36.5583C139.569 36.0424 140.195 35.3598 140.644 34.5632C141.092 33.7666 141.352 32.8774 141.403 31.9642C141.623 29.7936 141.242 27.7978 139.462 26.3205C138.302 25.4499 136.911 24.9426 135.464 24.8625C133.71 24.6617 131.951 24.8107 130.197 24.7524C129.712 24.7524 129.55 24.882 129.55 25.4003C129.544 27.3896 129.531 29.3594 129.531 31.3357V31.3292Z" fill="#303030"/>
<path d="M206.622 57.831C205.699 58.7989 204.665 59.6537 203.542 60.3775C200.016 62.4316 196.341 62.9694 192.543 61.3041C189.916 60.1442 188.227 58.0124 187.05 55.4724C185.863 52.7604 185.24 49.8348 185.219 46.8739C185.06 43.7764 185.575 40.6815 186.726 37.8024C188.221 34.245 190.563 31.4458 194.244 30.0786C198.288 28.5818 202.222 28.7827 205.787 31.5171C205.841 31.5505 205.897 31.5807 205.955 31.6078C206.034 31.4015 206.056 31.1777 206.02 30.9598V16.4778C206.02 15.6678 206.02 15.6678 206.855 15.6678H214.955C215.66 15.6678 215.66 15.6678 215.66 16.3871V60.9996C215.66 61.7253 215.66 61.7253 214.916 61.7318H209.74C209.165 61.7932 208.589 61.6342 208.126 61.2867C207.664 60.9391 207.351 60.429 207.249 59.8591L206.622 57.831ZM205.975 45.1309C205.975 43.0703 205.975 41.0033 205.975 38.9428C205.981 38.758 205.946 38.5742 205.873 38.4048C205.799 38.2354 205.688 38.0849 205.548 37.9643C204.546 37.0421 203.272 36.4713 201.918 36.338C200.794 36.1434 199.637 36.3264 198.627 36.8584C197.617 37.3904 196.811 38.2416 196.334 39.2797C195.994 39.9458 195.735 40.6508 195.564 41.3791C195.022 43.9354 194.932 46.5673 195.299 49.1547C195.429 50.341 195.773 51.4937 196.315 52.5566C196.664 53.2765 197.22 53.8753 197.912 54.2759C198.604 54.6766 199.4 54.8609 200.197 54.805C201.223 54.815 202.238 54.5964 203.169 54.1649C204.1 53.7334 204.924 53.0999 205.58 52.3103C205.838 52.0403 205.98 51.6796 205.975 51.306C206 49.2454 206.007 47.1979 206.007 45.1309H205.975Z" fill="#303030"/>
<path d="M249.421 45.7724V60.9089C249.421 61.7123 249.421 61.7188 248.632 61.7188H243.41C242.863 61.7781 242.313 61.6302 241.869 61.304C241.425 60.9779 241.118 60.4972 241.01 59.9564C240.887 59.5676 240.764 59.1788 240.654 58.7835C240.576 58.492 240.473 58.4401 240.227 58.6604C239.645 59.2071 239.02 59.7055 238.357 60.1508C234.63 62.5029 230.69 62.9824 226.614 61.2847C223.618 60.0341 221.936 57.5718 221.037 54.5329C220.604 52.9701 220.397 51.3531 220.422 49.7314C220.422 43.349 220.422 36.9665 220.422 30.5776C220.422 29.7611 220.422 29.7611 221.25 29.7611H229.403C230.095 29.7611 230.121 29.7611 230.121 30.4868C230.121 36.9924 230.121 43.5023 230.121 50.0166C230.05 51.1767 230.332 52.3311 230.93 53.3277C231.861 54.7402 233.278 55.0059 234.812 54.8957C236.569 54.6838 238.215 53.922 239.515 52.7186C239.621 52.624 239.701 52.5045 239.748 52.3709C239.796 52.2373 239.809 52.094 239.787 51.954V30.5128C239.787 29.7741 239.787 29.7676 240.525 29.7676H248.677C249.415 29.7676 249.428 29.7676 249.428 30.5063L249.421 45.7724Z" fill="#303030"/>
<path d="M172.414 47.5348C169.451 47.5348 166.481 47.5348 163.518 47.5348C163.033 47.5348 162.871 47.6191 162.968 48.1828C163.159 49.7963 163.766 51.3325 164.728 52.6408C165.3 53.3259 166.006 53.8863 166.803 54.2875C167.6 54.6887 168.47 54.9222 169.361 54.9735C171.519 55.1606 173.682 54.674 175.552 53.5804C176.364 53.031 177.277 52.6498 178.237 52.4594C178.633 52.3865 179.04 52.4228 179.416 52.5644C179.793 52.7059 180.123 52.9474 180.373 53.2628C181.194 54.2672 181.997 55.2845 182.831 56.2759C183.135 56.6388 183.109 56.872 182.792 57.2154C180.318 59.7924 177.05 61.4608 173.514 61.9521C170.608 62.5038 167.617 62.4175 164.747 61.6994C162.239 61.1047 159.936 59.849 158.076 58.0625C156.216 56.276 154.867 54.0238 154.169 51.5393C152.81 47.2173 152.726 42.8306 154.525 38.5799C156.679 33.4999 160.568 30.5127 165.977 29.5732C168.926 29.0133 171.972 29.2664 174.789 30.3054C179.221 31.9642 181.809 35.2494 182.909 39.7916C183.379 41.7487 183.493 43.7747 183.245 45.7724C183.09 47.0294 182.527 47.5219 181.259 47.5219C178.309 47.5219 175.365 47.5219 172.414 47.5219V47.5348ZM168.811 41.8392C170.57 41.8392 172.324 41.8392 174.077 41.8392C174.556 41.8392 174.724 41.6707 174.666 41.1912C174.587 40.1967 174.3 39.2298 173.825 38.3531C172.078 35.3466 167.678 35.4956 165.647 36.96C164.191 38.0097 163.55 39.5519 163.136 41.2236C163.026 41.6578 163.136 41.8262 163.596 41.8198C165.33 41.8262 167.07 41.8392 168.811 41.8392Z" fill="#303030"/>
</g>
<defs>
<clipPath id="clip0">
<rect width="285" height="76" fill="white"/>
</clipPath>
</defs>
</svg>
