<svg width="225" height="61" viewBox="0 0 225 61" fill="none" xmlns="http://www.w3.org/2000/svg">
<path d="M225 48.71H221.215C220.096 48.71 218.973 48.6794 217.854 48.71C217.409 48.7373 216.966 48.6337 216.58 48.4119C216.193 48.1901 215.88 47.8599 215.678 47.4619C214.284 45.0934 212.909 42.7095 211.525 40.3308C211.462 40.1621 211.352 40.0149 211.209 39.9062C210.59 41.2669 209.768 42.5049 209.027 43.7889C208.379 44.9194 207.705 46.0346 207.046 47.1652C206.892 47.4042 206.722 47.6316 206.535 47.8455C206.308 48.1387 206.011 48.3711 205.673 48.5219C205.334 48.6728 204.963 48.7374 204.594 48.71C202.617 48.6691 200.64 48.71 198.663 48.71C198.515 48.71 198.316 48.7919 198.239 48.6282C198.163 48.4645 198.337 48.352 198.418 48.2241C200.989 44.2681 203.57 40.3086 206.162 36.3458C206.312 36.1727 206.395 35.9511 206.395 35.7217C206.395 35.4924 206.312 35.2707 206.162 35.0976C203.685 31.4298 201.253 27.7415 198.796 24.043C198.73 23.9355 198.658 23.8332 198.597 23.7207C198.536 23.6082 198.571 23.5058 198.72 23.4905C198.83 23.4828 198.941 23.4828 199.052 23.4905C201.253 23.4905 203.455 23.4905 205.656 23.4905C206.097 23.4565 206.538 23.5539 206.923 23.7706C207.309 23.9873 207.621 24.3135 207.822 24.708C209.109 26.9332 210.458 29.1176 211.786 31.3173C211.852 31.4298 211.878 31.6242 212.051 31.5986C212.225 31.573 212.184 31.3991 212.245 31.2968L214.769 26.8207C215.177 26.0994 215.596 25.3884 216 24.6619C216.177 24.2934 216.46 23.9855 216.811 23.7771C217.163 23.5687 217.568 23.469 217.977 23.4905C220.02 23.4905 222.063 23.4905 224.106 23.4905C224.264 23.4905 224.484 23.4086 224.566 23.5826C224.648 23.7565 224.459 23.8844 224.367 24.0174C221.898 27.6426 219.426 31.2576 216.95 34.8623C216.824 34.9952 216.75 35.1693 216.741 35.3525C216.733 35.5357 216.79 35.7159 216.904 35.8598C219.56 40.0239 222.203 44.1981 224.831 48.3826L225 48.6231V48.71Z" fill="white"/>
<path d="M32.3946 0C33.4897 0.156467 34.5684 0.411572 35.6177 0.762213C38.5095 1.82185 41.0385 3.68728 42.9068 6.13863C45.3637 9.2591 46.7071 12.8553 47.3864 16.7329C47.5387 17.5897 47.6478 18.4536 47.7133 19.3213C47.7542 19.8022 47.7133 19.8329 47.269 19.6845C46.1912 19.3265 45.1083 18.9786 44.005 18.7024C43.885 18.6817 43.7764 18.6187 43.6987 18.525C43.621 18.4312 43.5792 18.3127 43.581 18.1908C43.1654 14.4018 41.6727 10.8118 39.2801 7.84722C37.7323 5.80883 35.4676 4.43705 32.9463 4.01057C31.2016 3.79228 29.4303 3.96705 27.7617 4.52212C25.4376 5.20249 23.3076 6.2614 21.6832 8.10299C20.1313 9.89341 18.9195 11.9531 18.1077 14.1802C17.1709 16.7577 16.6719 19.4741 16.6315 22.2167C16.4971 25.8438 17.0162 29.4654 18.1639 32.9082C18.7878 34.7298 19.5742 36.4916 20.5135 38.1721C20.5856 38.3428 20.7115 38.4852 20.872 38.5776C21.0325 38.6699 21.2187 38.7072 21.4023 38.6836C22.3872 38.6541 23.3547 38.948 24.1572 39.5206C24.9597 40.0931 25.5532 40.9129 25.8472 41.8548C26.1411 42.7966 26.1193 43.8089 25.7852 44.7373C25.451 45.6656 24.8228 46.459 23.9964 46.9964C23.17 47.5338 22.1908 47.7857 21.2081 47.7138C20.2254 47.6418 19.2931 47.2499 18.5536 46.5979C17.814 45.9458 17.3077 45.0694 17.1119 44.1022C16.9161 43.1351 17.0416 42.1304 17.4692 41.2414C17.5291 41.1418 17.5608 41.0277 17.5608 40.9114C17.5608 40.7951 17.5291 40.6811 17.4692 40.5815C15.1987 36.6916 13.6726 32.4118 12.9691 27.9615C11.9878 21.9409 12.8962 15.7638 15.569 10.2822C17.3786 6.45001 20.4528 3.36035 24.273 1.53466C25.8762 0.747332 27.6052 0.248639 29.3809 0.0613863C29.4643 0.0481838 29.5463 0.0276421 29.6261 0H32.3946Z" fill="white"/>
<path d="M0 43.0624C0.128351 42.0609 0.310802 41.067 0.546551 40.0852C1.32549 37.2296 2.73607 34.586 4.67377 32.3505C5.94103 30.8667 7.37378 29.5331 8.94402 28.3758C9.34755 28.074 9.3833 28.0893 9.49057 28.5855C9.72351 29.6995 10.0133 30.8008 10.3589 31.885C10.4713 32.2175 10.3129 32.3608 10.0933 32.5449C7.58308 34.5313 5.62093 37.1267 4.39284 40.0852C3.51296 42.2774 3.31925 44.6857 3.83741 46.9907C4.35556 49.2958 5.5611 51.3886 7.29415 52.9917C9.02314 54.5381 11.1909 55.5056 13.4952 55.7592C18.455 56.4549 23.0777 55.396 27.4348 53.0121C29.7387 51.7846 31.9034 50.3113 33.8912 48.6179C36.3384 46.5006 38.3658 43.9409 39.8675 41.0725C39.926 40.9732 39.9492 40.857 39.9334 40.7428C39.9177 40.6286 39.8639 40.523 39.7807 40.4433C39.088 39.6335 38.7099 38.6008 38.7155 37.5345C38.7211 36.4682 39.1102 35.4396 39.8114 34.6372C40.3396 33.9557 41.0616 33.4505 41.8824 33.1884C42.7031 32.9263 43.5839 32.9195 44.4085 33.169C45.2456 33.3541 46.0085 33.7848 46.5999 34.4063C47.1913 35.0277 47.5843 35.8116 47.7287 36.6578C47.9669 37.8079 47.7457 39.0056 47.1127 39.9943C46.4797 40.9831 45.4851 41.6841 44.3421 41.9473C44.1736 41.9796 44.0154 42.0523 43.8811 42.1592C43.7468 42.2661 43.6403 42.404 43.5708 42.5611C40.5457 48.6488 35.6066 53.5719 29.5137 56.5725C26.1763 58.2649 22.565 59.3493 18.8483 59.7749C14.006 60.2864 9.46503 59.4168 5.45018 56.4958C2.45692 54.3319 0.914323 51.278 0.245182 47.7125C0.148131 47.2009 0.0817272 46.6894 0 46.1778V43.0624Z" fill="white"/>
<path d="M44.3421 60C43.3205 59.8414 42.2989 59.734 41.3182 59.4884C39.4858 59.0689 37.7008 58.4638 35.9906 57.6827C35.7097 57.5599 35.6841 57.4525 35.9395 57.2581C37.0224 56.4549 38.09 55.6364 39.0911 54.731C39.2903 54.552 39.464 54.6236 39.6683 54.7054C41.18 55.3442 42.7656 55.791 44.3881 56.0355C47.4937 56.5061 50.5636 56.3987 53.3321 54.7719C57.3674 52.4034 59.5331 48.8788 59.288 44.0958C59.1012 41.9884 58.4524 39.9483 57.3878 38.1209C55.1301 33.9159 51.6873 30.9131 47.555 28.6469C44.5796 26.9979 41.3491 25.8601 37.998 25.2809C35.922 24.9418 33.8172 24.8115 31.7153 24.8921C31.6049 24.8942 31.4976 24.9288 31.4068 24.9916C31.3159 25.0544 31.2456 25.1425 31.2045 25.2451C30.8437 25.9257 30.3158 26.5031 29.6706 26.9229C29.0254 27.3426 28.284 27.5909 27.5165 27.6443C26.7489 27.6977 25.9804 27.5544 25.2834 27.2281C24.5864 26.9017 23.9839 26.4029 23.5327 25.7787C23.0815 25.1546 22.7964 24.4257 22.7043 23.6606C22.6123 22.8956 22.7163 22.1197 23.0065 21.4061C23.2967 20.6925 23.7637 20.0646 24.3633 19.5817C24.9629 19.0989 25.6754 18.7769 26.4336 18.6461C27.3126 18.4729 28.2234 18.5721 29.0446 18.9303C29.8659 19.2886 30.5587 19.8889 31.0308 20.6514C31.0963 20.7596 31.191 20.8473 31.3039 20.9042C31.4168 20.9612 31.5434 20.9853 31.6693 20.9736C34.7588 20.8594 37.85 21.1518 40.8636 21.8433C44.5847 22.6603 48.1272 24.1456 51.3196 26.2273C55.5234 28.9999 58.9815 32.458 61.2545 37.0313C62.6844 39.8797 63.3331 43.0573 63.1342 46.2392C63.0528 47.9571 62.6253 49.6407 61.8774 51.1888C61.1295 52.7369 60.0767 54.1176 58.7823 55.2477C55.8151 57.9471 52.0483 59.6015 48.0556 59.9591C47.9739 59.9723 47.8935 59.9928 47.8155 60.0205L44.3421 60Z" fill="white"/>
<path d="M112.799 33.9416C113.989 34.6085 114.98 35.5815 115.669 36.7602C116.563 38.2949 117.493 39.7579 118.407 41.2568L122.683 48.265C122.759 48.3878 122.928 48.5157 122.831 48.6692C122.734 48.8226 122.57 48.7305 122.432 48.7305H115.281C114.695 48.7525 114.115 48.6075 113.607 48.3123C113.1 48.0171 112.687 47.5839 112.416 47.0629C110.562 43.8094 108.677 40.5713 106.853 37.2973C106.613 36.7714 106.217 36.3325 105.719 36.0404C105.221 35.7484 104.645 35.6174 104.069 35.6655C103.65 35.6655 103.227 35.6655 102.808 35.6655C102.261 35.6655 102.261 35.6655 102.261 36.2333V48.1525C102.261 48.7254 102.261 48.7305 101.674 48.7305H94.5634C93.9811 48.7305 93.976 48.7305 93.976 48.1423V13.9398C93.9862 13.3004 93.9862 13.3004 94.6145 13.3004C98.3689 13.3004 102.128 13.2697 105.888 13.3004C108.585 13.2413 111.267 13.7176 113.78 14.7021C117.284 16.1958 119.306 18.7945 119.684 22.626C120.195 27.7415 117.565 31.9414 113.013 33.7932C112.962 33.8392 112.916 33.875 112.799 33.9416ZM102.261 24.7336C102.261 26.3041 102.261 27.8797 102.261 29.4501C102.261 29.8031 102.373 29.9208 102.721 29.9156C103.942 29.9156 105.162 29.9156 106.378 29.8849C107.525 29.8575 108.639 29.5025 109.591 28.8618C110.186 28.4545 110.68 27.9156 111.034 27.2867C111.389 26.6579 111.594 25.9559 111.634 25.2349C111.808 23.5212 111.506 21.9456 110.102 20.7793C109.186 20.092 108.088 19.6916 106.945 19.6283C105.561 19.4697 104.171 19.5874 102.787 19.5414C102.404 19.5414 102.276 19.6437 102.276 20.0529C102.271 21.6234 102.261 23.1785 102.261 24.7387V24.7336Z" fill="white"/>
<path d="M163.122 45.6561C162.394 46.4202 161.578 47.095 160.691 47.6665C157.907 49.2881 155.006 49.7127 152.007 48.398C149.934 47.4823 148.6 45.7993 147.671 43.794C146.734 41.6529 146.242 39.3433 146.225 37.0057C146.1 34.5604 146.506 32.117 147.415 29.844C148.595 27.0355 150.444 24.8256 153.351 23.7463C156.543 22.5646 159.649 22.7232 162.463 24.8819C162.506 24.9083 162.551 24.9322 162.596 24.9535C162.659 24.7906 162.676 24.614 162.647 24.442V13.0088C162.647 12.3693 162.647 12.3693 163.306 12.3693H169.701C170.258 12.3693 170.258 12.3693 170.258 12.9372V48.1575C170.258 48.7305 170.258 48.7305 169.671 48.7356H165.584C165.131 48.7841 164.675 48.6586 164.31 48.3842C163.945 48.1099 163.698 47.7071 163.618 47.2572L163.122 45.6561ZM162.612 35.6296C162.612 34.0029 162.612 32.371 162.612 30.7443C162.617 30.5985 162.589 30.4533 162.531 30.3196C162.473 30.1858 162.385 30.067 162.274 29.9719C161.484 29.2438 160.478 28.7931 159.409 28.6879C158.521 28.5343 157.608 28.6787 156.811 29.0987C156.013 29.5187 155.377 30.1907 155.001 31.0103C154.732 31.5362 154.528 32.0927 154.393 32.6677C153.965 34.6859 153.894 36.7637 154.183 38.8064C154.286 39.7429 154.558 40.6529 154.985 41.492C155.261 42.0604 155.7 42.5331 156.246 42.8494C156.793 43.1658 157.421 43.3112 158.05 43.2671C158.86 43.275 159.662 43.1024 160.397 42.7618C161.132 42.4211 161.782 41.921 162.3 41.2976C162.504 41.0844 162.615 40.7997 162.612 40.5047C162.632 38.878 162.637 37.2615 162.637 35.6296H162.612Z" fill="white"/>
<path d="M196.911 48.086C196.911 48.7203 196.911 48.7254 196.288 48.7254H192.166C191.734 48.7722 191.3 48.6554 190.949 48.3979C190.598 48.1404 190.357 47.7609 190.271 47.334C190.174 47.027 190.077 46.7201 189.99 46.4081C189.929 46.1779 189.847 46.1369 189.653 46.3109C189.194 46.7424 188.7 47.1359 188.177 47.4874C185.235 49.3444 182.124 49.7229 178.906 48.3827C176.541 47.3954 175.213 45.4515 174.503 43.0523C174.161 41.8185 173.997 40.5419 174.018 39.2617C174.018 34.2229 174.018 29.1841 174.018 24.1402C174.018 23.4956 174.018 23.4956 174.671 23.4956H181.107C181.654 23.4956 181.674 23.4956 181.674 24.0686C181.674 29.2046 181.674 34.3439 181.674 39.4868C181.619 40.4027 181.841 41.314 182.313 42.1008C183.048 43.216 184.167 43.4257 185.378 43.3387C186.765 43.1715 188.065 42.57 189.091 41.6199C189.174 41.5453 189.238 41.4509 189.275 41.3455C189.313 41.24 189.323 41.1269 189.306 41.0163V24.089C189.306 23.5059 189.306 23.5007 189.888 23.5007H196.324C196.906 23.5007 196.916 23.5007 196.916 24.0839L196.911 48.086Z" fill="white"/>
<path d="M136.117 37.5275C133.777 37.5275 131.433 37.5275 129.093 37.5275C128.71 37.5275 128.582 37.594 128.659 38.0391C128.81 39.3129 129.289 40.5256 130.048 41.5585C130.5 42.0994 131.058 42.5418 131.687 42.8586C132.316 43.1753 133.003 43.3596 133.706 43.4001C135.409 43.5479 137.117 43.1637 138.594 42.3003C139.235 41.8666 139.955 41.5656 140.714 41.4153C141.026 41.3578 141.348 41.3864 141.644 41.4982C141.941 41.6099 142.202 41.8006 142.399 42.0496C143.048 42.8425 143.681 43.6457 144.34 44.4283C144.58 44.7148 144.56 44.899 144.31 45.1701C142.356 47.2045 139.776 48.5217 136.985 48.9095C134.691 49.3451 132.329 49.277 130.064 48.71C128.084 48.2405 126.265 47.2492 124.797 45.8388C123.328 44.4284 122.263 42.6503 121.712 40.6889C120.64 37.2768 120.573 33.8136 121.993 30.4578C123.694 26.4473 126.764 24.089 131.034 23.3473C133.363 22.9053 135.767 23.1051 137.991 23.9253C141.49 25.2349 143.533 27.8285 144.402 31.4144C144.773 32.9595 144.863 34.559 144.667 36.1361C144.545 37.1285 144.1 37.5173 143.099 37.5173C140.77 37.5173 138.446 37.5173 136.117 37.5173V37.5275ZM133.271 33.031C134.661 33.031 136.045 33.031 137.429 33.031C137.807 33.031 137.94 32.8979 137.894 32.5194C137.832 31.7342 137.606 30.9709 137.23 30.2788C135.851 27.9052 132.378 28.0229 130.774 29.179C129.624 30.0077 129.119 31.2252 128.792 32.545C128.705 32.8877 128.792 33.0207 129.154 33.0156C130.523 33.0207 131.897 33.031 133.271 33.031Z" fill="white"/>
</svg>
