<svg width="162" height="84" viewBox="0 0 162 84" fill="none" xmlns="http://www.w3.org/2000/svg">
<g clip-path="url(#clip0)">
<path d="M75.1818 72.4152C69.6357 64.9205 68.3823 64.2683 70.9224 60.0677C71.0334 60.5762 71.1221 60.9521 71.3217 61.8696C72.6972 60.4325 73.9173 59.2497 75.0265 57.9675C79.1306 53.2363 82.5802 48.1514 83.1681 41.6737C83.401 39.1534 82.8021 36.9315 81.1272 34.9308C79.9181 33.4827 78.7756 31.9019 78.0214 30.1886C76.4463 26.6291 73.9173 23.943 70.3789 22.727C65.687 21.1242 60.7732 20.1514 55.9592 18.9023C55.8372 19.245 55.7263 19.5766 55.6042 19.9193C56.5249 20.5826 57.4566 21.2568 58.8542 22.2628C55.6597 22.2628 53.0642 22.2628 50.4575 22.2628C50.4242 22.4617 50.3799 22.6497 50.3466 22.8486C50.9567 23.1803 51.5667 23.5008 52.4208 23.954C50.5019 24.6836 48.6495 25.1811 47.0079 26.0654C45.333 26.9718 43.8577 28.2541 41.6171 29.8459C43.1256 30.0559 43.6913 30.1443 43.9576 30.1775C43.5139 32.6315 43.4584 35.2182 42.5267 37.429C41.7946 39.1645 40.1641 40.6899 38.6001 41.8727C36.9806 43.0997 35.4499 43.7188 37.1359 46.1949C37.8569 47.2561 37.4021 49.1463 37.3688 50.6607C37.3134 52.8826 37.0694 55.1045 37.1026 57.3263C37.1137 58.0338 37.624 58.9513 38.2008 59.3713C38.9994 59.9572 40.0531 60.2778 41.0403 60.5099C46.0318 61.6816 47.7067 63.2624 48.1171 68.3251C48.2169 69.5632 46.9857 71.0776 46.0096 72.1499C45.3995 72.8242 44.135 72.9015 43.1478 73.2221C37.5574 75.0239 33.409 78.4065 31.3569 83.9998C20.1206 82.5518 5.06867 70.1822 1.13098 53.1811C-3.61643 32.5873 6.83232 11.7946 25.9551 3.63664C45.7212 -4.79763 68.0828 1.80166 79.9292 19.5545C90.6885 35.6935 88.6365 59.2055 75.1818 72.4152ZM13.665 20.6599C13.2214 20.7152 12.7777 20.7815 12.334 20.8368C18.1906 25.4021 13.3656 29.1716 12.0012 33.6485C14.1087 32.3109 15.6505 31.3271 17.27 30.3101C18.9782 32.7089 20.5754 34.9418 22.1616 37.1747C22.3391 37.1084 22.5165 37.031 22.6829 36.9647C22.4167 34.2233 22.1394 31.4929 21.8621 28.6963C23.4594 27.8672 25.0012 27.0713 26.9312 26.0764C25.7222 25.6122 24.9901 25.1921 24.2025 25.0595C21.9952 24.6615 21.3297 23.4787 21.8399 21.3342C22.1838 19.9083 22.2171 18.3938 22.3834 16.9236C22.1949 16.8794 22.0174 16.8242 21.8288 16.7799C20.3536 18.6591 18.8894 20.5383 17.4031 22.4286C16.0055 21.7653 14.8408 21.2126 13.665 20.6599Z" fill="#231F20"/>
<path d="M151.152 50.705C149.333 48.4058 147.514 46.0955 145.14 43.0998C145.14 45.8081 145.14 47.7647 145.14 49.7876C142.655 49.3122 142.422 47.7757 143.066 38.4018C145.295 37.5949 145.584 39.7504 146.515 40.7785C147.569 41.9392 148.39 43.2988 149.311 44.5811C149.566 44.5479 149.821 44.5148 150.076 44.4705C150.076 43.0777 149.987 41.6628 150.12 40.281C150.176 39.7062 150.742 39.1867 151.074 38.645C151.44 39.1756 152.106 39.7062 152.117 40.2479C152.217 43.5199 152.161 46.7919 152.161 50.0639C151.829 50.285 151.485 50.495 151.152 50.705Z" fill="#231F20"/>
<path d="M123.111 44.3048C123.189 42.713 123.189 41.2318 123.355 39.7726C123.4 39.3636 123.954 39.0099 124.276 38.634C124.609 38.9878 125.23 39.3305 125.241 39.6842C125.318 43.1883 125.285 46.7035 125.285 50.2187C125.008 50.3514 124.72 50.484 124.442 50.6167C122.756 48.428 121.081 46.2393 119.395 44.0395C117.587 45.6202 120.493 49.4007 116.334 50.1082C116.334 45.8966 116.334 42.1714 116.334 38.1145C120.15 38.5014 120.138 42.8788 123.111 44.3048Z" fill="#231F20"/>
<path d="M128.624 44.1942C128.591 40.6237 130.865 38.1476 134.192 38.1476C137.409 38.1476 139.816 40.7342 139.838 44.2052C139.849 47.5436 137.276 50.1744 134.015 50.1302C130.842 50.086 128.657 47.6762 128.624 44.1942ZM137.742 43.6304C137.675 41.9834 136.81 40.3916 134.403 40.1705C132.351 39.9826 130.754 41.5744 130.632 43.7631C130.51 45.9518 132.118 48.0963 133.981 48.2179C135.878 48.3505 137.675 46.4161 137.742 43.6304Z" fill="#231F20"/>
<path d="M93.118 49.7323C93.118 46.0403 93.118 42.5361 93.118 38.8551C95.8023 38.4572 98.409 38.0924 100.295 40.5574C101.848 42.5914 101.981 44.9128 100.794 47.1457C99.1854 50.1524 96.368 50.1745 93.118 49.7323ZM94.9482 48.9917C96.6786 47.9084 98.4534 47.411 98.8194 46.4051C99.3296 45.0012 99.1854 43.0557 98.5643 41.6628C98.1761 40.7896 96.4346 40.5022 94.9372 39.7837C94.9482 43.0336 94.9482 45.5207 94.9482 48.9917Z" fill="#231F20"/>
<path d="M113.638 49.9645C111.398 49.0028 109.723 47.7205 108.081 47.7426C106.584 47.7647 105.109 49.2128 103.068 50.3514C104.632 46.2393 105.896 42.8236 107.26 39.4521C107.471 38.9436 108.037 38.4793 108.558 38.2361C108.725 38.1587 109.435 38.7778 109.601 39.1978C110.899 42.5693 112.141 45.974 113.638 49.9645ZM106.883 45.9629C108.081 45.9076 108.924 45.8745 110.067 45.8192C109.468 44.2495 109.013 43.0667 108.558 41.884C108.347 41.9171 108.148 41.9613 107.937 41.9945C107.626 43.1994 107.305 44.4153 106.883 45.9629Z" fill="#231F20"/>
<path d="M161.911 39.8389C160.802 40.0047 159.693 40.1705 158.362 40.3695C158.362 41.2096 158.362 42.0829 158.362 43.0225C159.615 43.1551 160.702 43.2767 161.789 43.3873C161.856 43.6857 161.911 43.9842 161.978 44.2826C160.857 44.5369 159.726 44.7911 158.351 45.1117C158.351 45.9739 158.351 46.9467 158.351 47.9416C159.648 48.2511 160.824 48.5385 162 48.8148C161.956 49.0912 161.922 49.3675 161.878 49.6439C160.192 49.6439 158.506 49.6439 156.565 49.6439C156.565 46.2061 156.565 42.6135 156.565 38.8772C158.306 38.8772 160.059 38.8772 161.811 38.8772C161.845 39.1867 161.878 39.5073 161.911 39.8389Z" fill="#231F20"/>
</g>
<defs>
<clipPath id="clip0">
<rect width="162" height="84" fill="white"/>
</clipPath>
</defs>
</svg>
