<svg width="157" height="77" viewBox="0 0 157 77" fill="none" xmlns="http://www.w3.org/2000/svg">
<g clip-path="url(#clip0)">
<path d="M132.739 32.5196C132.739 48.0349 125.965 59.4192 117.27 67.1048C132.018 64.0306 143.308 47.6987 143.308 30.1659C143.308 28.7249 143.308 27.2838 143.26 26.0349L154.646 22.1441C156.087 21.6638 157 20.8472 157 19.4541C157 18.5415 157 18.0611 157 18.0611C150.851 17.9651 128.511 17.1965 128.511 17.1965C130.625 20.5109 132.739 26.179 132.739 32.5196ZM108.766 0C109.631 5.66812 118.327 11.8166 127.647 13.2576C138.12 14.8428 144.605 13.5939 144.605 13.5939C144.605 13.5939 143.116 8.1179 138.792 8.06987C131.97 8.02183 127.118 7.34934 127.118 7.34934C112.513 5.13974 108.766 0 108.766 0Z" fill="#231F20"/>
<path d="M0 55.5284V53.5109C2.01775 52.7904 3.459 50.9651 3.459 46.8821V28.7729H6.53366V46.6419C6.5817 52.0699 3.36291 55.1441 0 55.5284Z" fill="#231F20"/>
<path d="M18.0156 48.083C13.1153 48.083 10.8093 45.9214 10.8093 42.5109C10.8093 37.4673 15.5174 36.0262 21.3785 35.4018V34.2489C21.3785 31.3188 19.6009 30.5022 17.1989 30.5022C15.3733 30.5022 13.6918 31.1747 12.6349 31.7031L11.9143 29.8778C13.0192 29.3013 15.1331 28.4847 17.7273 28.4847C21.2344 28.4847 24.3571 29.9738 24.3571 34.6332V46.786C22.8678 47.5546 20.6579 48.083 18.0156 48.083ZM21.3785 36.9389C16.6224 37.5153 13.7399 38.5721 13.7399 42.3668C13.7399 45.1048 15.4213 46.2096 18.2558 46.2096C19.4568 46.2096 20.6098 46.0175 21.3785 45.5852V36.9389Z" fill="#231F20"/>
<path d="M39.9707 47.6987V34.1048C39.9707 32.3275 39.25 30.4061 35.9832 30.4061C34.2057 30.4061 33.389 30.6463 32.3801 31.0786V47.6987H29.3054V29.7816C30.9869 28.965 33.1968 28.4366 36.2234 28.4366C41.508 28.4366 43.0453 31.3668 43.0453 34.0567V47.7467H39.9707V47.6987Z" fill="#231F20"/>
<path d="M51.7409 47.9869C49.7231 47.9869 47.8975 47.4585 46.8887 46.69L47.7534 44.6725C48.426 45.2489 49.7712 45.7773 51.4526 45.7773C53.5665 45.7773 54.9597 44.3363 54.9597 42.5109C54.9597 40.5415 53.9028 39.6769 51.837 38.9083C48.1378 37.5153 47.4171 35.5459 47.4171 33.5764C47.4171 30.7424 49.627 28.3887 53.086 28.3887C55.0077 28.3887 56.545 29.0131 57.5059 29.6856L56.6892 31.559C56.1127 31.1267 55.0077 30.5022 53.5184 30.5022C51.4526 30.5022 50.3477 31.8952 50.3477 33.4804C50.3477 35.3057 51.6928 36.1703 53.5184 36.8909C57.2176 38.2839 58.1304 40.2533 58.1304 42.4629C58.0824 45.345 55.5842 47.9869 51.7409 47.9869Z" fill="#231F20"/>
<path d="M65.5768 47.9869C63.5591 47.9869 61.7335 47.4585 60.7246 46.69L61.5894 44.6725C62.2619 45.2489 63.6071 45.7773 65.2886 45.7773C67.4024 45.7773 68.7956 44.3363 68.7956 42.5109C68.7956 40.5415 67.7387 39.6769 65.6729 38.9083C61.9737 37.5153 61.2531 35.5459 61.2531 33.5764C61.2531 30.7424 63.463 28.3887 66.922 28.3887C68.8437 28.3887 70.381 29.0131 71.3418 29.6856L70.5251 31.559C69.9486 31.1267 68.8437 30.5022 67.3544 30.5022C65.2886 30.5022 64.1836 31.8952 64.1836 33.4804C64.1836 35.3057 65.5288 36.1703 67.3544 36.8909C71.0536 38.2839 71.9664 40.2533 71.9664 42.4629C71.9183 45.345 69.4202 47.9869 65.5768 47.9869Z" fill="#231F20"/>
<path d="M78.2598 39.4367C78.596 43.7118 80.6138 45.8254 84.0247 45.8254C86.1866 45.8254 87.724 45.297 88.6848 44.7205L89.5015 46.738C88.3485 47.4585 86.3307 48.035 83.7845 48.035C78.8363 48.035 75.3292 44.9127 75.3292 38.1398C75.3292 31.7031 78.5 28.3887 82.9678 28.3887C87.4837 28.3887 90.2221 31.3188 90.1741 37.6594L78.2598 39.4367ZM82.8717 30.4061C80.1334 30.4061 78.0676 32.6157 78.1637 37.7555L87.2435 36.3625C87.1955 32.0874 85.5621 30.4061 82.8717 30.4061Z" fill="#231F20"/>
<path d="M105.067 47.6987V34.1048C105.067 32.3275 104.346 30.4061 101.08 30.4061C99.3021 30.4061 98.4854 30.6463 97.4765 31.0786V47.6987H94.4019V29.7816C96.0833 28.965 98.2932 28.4366 101.32 28.4366C106.604 28.4366 108.142 31.3668 108.142 34.0567V47.7467H105.067V47.6987Z" fill="#231F20"/>
<path d="M14.7008 58.7467C15.5655 58.7467 15.9979 59.131 15.9979 59.9956C15.9979 60.9083 15.1812 61.1965 14.5566 61.1965H13.836V62.3974H12.9232V58.7947H14.7008V58.7467ZM13.836 60.524H14.4125C14.8449 60.524 15.1331 60.4279 15.1331 59.9476C15.1331 59.4192 14.7008 59.4192 14.4125 59.4192H13.836V60.524Z" fill="#231F20"/>
<path d="M18.7843 62.3974V60.8602H17.4871V62.3974H16.5743V58.7467H17.4871V60.0917H18.7843V58.7467H19.697V62.3974H18.7843Z" fill="#231F20"/>
<path d="M22.9159 62.3974L22.7238 61.821H21.3786L21.1864 62.3974H20.2256L21.5708 58.7948H22.5316L23.8768 62.3974H22.9159ZM22.0512 59.6114L21.6188 61.1485H22.5316L22.0512 59.6114Z" fill="#231F20"/>
<path d="M26.1347 58.7467C26.6631 58.7467 27.5279 58.8908 27.5279 59.8995C27.5279 60.524 27.1916 60.7642 26.8072 60.9083L27.6239 62.3493H26.6151L25.8944 61.0524H25.3179V62.3493H24.4052V58.7467H26.1347ZM25.3179 60.4279H26.0866C26.6151 60.4279 26.6151 60.0436 26.6151 59.9476C26.6151 59.4672 26.2307 59.4672 26.0866 59.4672H25.3179V60.4279Z" fill="#231F20"/>
<path d="M31.5154 62.3974C31.5154 62.3974 31.5154 60.38 31.5154 59.7075L30.7467 62.3974H29.978L29.2094 59.7075C29.2094 60.2359 29.2094 62.3974 29.2094 62.3974H28.3446V58.7948H29.6417L30.3143 61.3407L30.9869 58.7948H32.3321V62.3974H31.5154Z" fill="#231F20"/>
<path d="M35.5989 62.3974L35.4067 61.821H34.0616L33.8694 62.3974H32.9086L34.2537 58.7948H35.2146L36.5597 62.3974H35.5989ZM34.7342 59.6114L34.3018 61.1485H35.2146L34.7342 59.6114Z" fill="#231F20"/>
<path d="M40.0187 61.5808C39.7304 62.0611 39.202 62.4934 38.4813 62.4934C37.5205 62.4934 36.7518 61.7729 36.7518 60.572C36.7518 59.5153 37.4725 58.6506 38.4813 58.6506C39.1539 58.6506 39.7304 59.0349 40.0187 59.5633L39.298 59.9476C39.202 59.6594 38.9137 59.3712 38.5294 59.3712C37.9529 59.3712 37.6166 59.8995 37.6166 60.524C37.6166 61.3406 38.0009 61.7249 38.5294 61.7249C39.0098 61.7249 39.202 61.3886 39.298 61.1965L40.0187 61.5808Z" fill="#231F20"/>
<path d="M40.6913 58.7467H43.3336V59.4672H41.556V60.1397H43.2375V60.8122H41.556V61.6768H43.4777V62.3974H40.6913V58.7467Z" fill="#231F20"/>
<path d="M47.2729 60.9563C47.2729 61.869 46.6964 62.4454 45.7356 62.4454C44.8708 62.4454 44.1982 62.0131 44.1982 61.0043V58.7467H45.111V61.1004C45.111 61.5808 45.3512 61.6768 45.7836 61.6768C46.264 61.6768 46.4082 61.4367 46.4082 61.0524V58.7467H47.3209V60.9563H47.2729Z" fill="#231F20"/>
<path d="M49.627 59.4672V62.3974H48.7142V59.4672H47.7534V58.7467H50.5879V59.4672H49.627Z" fill="#231F20"/>
<path d="M52.0771 58.7467H51.1643V62.3493H52.0771V58.7467Z" fill="#231F20"/>
<path d="M55.9685 61.5808C55.6802 62.0611 55.1518 62.4934 54.4312 62.4934C53.4703 62.4934 52.7017 61.7729 52.7017 60.572C52.7017 59.5153 53.4223 58.6506 54.4312 58.6506C55.1037 58.6506 55.6802 59.0349 55.9685 59.5633L55.2479 59.9476C55.1518 59.6594 54.8635 59.3712 54.4792 59.3712C53.9027 59.3712 53.5664 59.8995 53.5664 60.524C53.5664 61.3406 53.9507 61.7249 54.4792 61.7249C54.9596 61.7249 55.1518 61.3886 55.2479 61.1965L55.9685 61.5808Z" fill="#231F20"/>
<path d="M58.7069 62.3974L58.5148 61.821H57.1696L56.9774 62.3974H56.0166L57.3618 58.7948H58.3226L59.6678 62.3974H58.7069ZM57.8422 59.6114L57.4098 61.1485H58.3226L57.8422 59.6114Z" fill="#231F20"/>
<path d="M60.1001 62.3974V58.7467H61.0129V61.6288H62.4061V62.3974H60.1001Z" fill="#231F20"/>
<path d="M67.6907 61.5808C67.4024 62.0611 66.8739 62.4934 66.1533 62.4934C65.1925 62.4934 64.4238 61.7729 64.4238 60.572C64.4238 59.5153 65.1444 58.6506 66.1533 58.6506C66.8259 58.6506 67.4024 59.0349 67.6907 59.5633L66.97 59.9476C66.8739 59.6594 66.5857 59.3712 66.2014 59.3712C65.6249 59.3712 65.2886 59.8995 65.2886 60.524C65.2886 61.3406 65.6729 61.7249 66.2014 61.7249C66.6818 61.7249 66.8739 61.3886 66.97 61.1965L67.6907 61.5808Z" fill="#231F20"/>
<path d="M69.8525 58.6506C71.1496 58.6506 71.6781 59.7554 71.6781 60.6201C71.6781 61.5808 71.0055 62.4934 69.8525 62.4934C68.6514 62.4934 68.075 61.5327 68.075 60.572C68.075 59.7554 68.5554 58.6506 69.8525 58.6506ZM69.9005 61.7249C70.5731 61.7249 70.8133 61.1004 70.8133 60.572C70.8133 59.8995 70.5251 59.3712 69.9005 59.3712C69.228 59.3712 68.9877 60.0436 68.9877 60.524C68.9877 61.1485 69.228 61.7249 69.9005 61.7249Z" fill="#231F20"/>
<path d="M75.5696 62.3974C75.5696 62.3974 75.5696 60.38 75.5696 59.7075L74.8009 62.3974H74.0322L73.2636 59.7075C73.2636 60.2359 73.2636 62.3974 73.2636 62.3974H72.3988V58.7948H73.744L74.4165 61.3407L75.0891 58.7948H76.4343V62.3974H75.5696Z" fill="#231F20"/>
<path d="M79.1726 58.7467C80.0373 58.7467 80.4697 59.131 80.4697 59.9956C80.4697 60.9083 79.653 61.1965 79.0284 61.1965H78.3078V62.3974H77.395V58.7947H79.1726V58.7467ZM78.3078 60.524H78.8843C79.3167 60.524 79.6049 60.4279 79.6049 59.9476C79.6049 59.4192 79.1726 59.4192 78.8843 59.4192H78.3078V60.524Z" fill="#231F20"/>
<path d="M83.0639 62.3974L82.8717 61.821H81.5265L81.3344 62.3974H80.3735L81.7187 58.7948H82.6795L84.0247 62.3974H83.0639ZM82.1991 59.6114L81.7667 61.1485H82.6795L82.1991 59.6114Z" fill="#231F20"/>
<path d="M86.619 62.3974L85.3219 60.2358V62.3974H84.4572V58.7467H85.3219L86.619 60.9563V58.7467H87.4838V62.3974H86.619Z" fill="#231F20"/>
<path d="M89.5015 58.7467H88.5887V62.3493H89.5015V58.7467Z" fill="#231F20"/>
<path d="M90.6066 58.7467H93.2488V59.4672H91.5193V60.1397H93.1528V60.8122H91.5193V61.6768H93.441V62.3974H90.6066V58.7467Z" fill="#231F20"/>
<path d="M96.4676 59.8516C96.2274 59.5634 95.8911 59.4193 95.5068 59.4193C95.1224 59.4193 94.9783 59.6114 94.9783 59.8035C94.9783 59.9957 95.1224 60.0917 95.4587 60.1398L95.843 60.1878C96.8039 60.3319 97.1882 60.6201 97.1882 61.2446C97.1882 62.0131 96.5637 62.4935 95.5548 62.4935C94.69 62.4935 94.2577 62.2053 93.9214 61.773L94.594 61.3407C94.8342 61.6289 95.2666 61.773 95.6509 61.773C95.8911 61.773 96.3235 61.6289 96.3235 61.3407C96.3235 61.1005 96.0352 61.0044 95.6989 60.9564L95.2665 60.9083C94.642 60.8123 94.1135 60.5241 94.1135 59.8996C94.1135 59.1791 94.642 58.6987 95.5548 58.6987C96.3235 58.6987 96.8039 59.035 97.1402 59.3712L96.4676 59.8516Z" fill="#231F20"/>
<path d="M14.4605 69.2184C15.7576 69.2184 16.2861 70.3232 16.2861 71.1398C16.2861 72.1005 15.6135 73.0131 14.4605 73.0131C13.2595 73.0131 12.683 72.1005 12.683 71.0917C12.683 70.3232 13.1634 69.2184 14.4605 69.2184ZM14.4605 72.2926C15.1331 72.2926 15.3733 71.6682 15.3733 71.1398C15.3733 70.4673 15.0851 69.9389 14.4605 69.9389C13.7879 69.9389 13.5477 70.6114 13.5477 71.0917C13.5477 71.7162 13.836 72.2926 14.4605 72.2926Z" fill="#231F20"/>
<path d="M19.697 69.3624V70.0349H17.8234V70.8035H19.5529V71.476H17.8234V72.9651H16.9586V69.3624H19.697Z" fill="#231F20"/>
<path d="M25.1738 66.4803C25.1738 66.5284 25.0296 66.8646 24.8375 67.393C24.6453 67.9694 24.4531 68.786 24.4531 69.7467C24.4531 70.3231 24.5973 71.0917 24.7414 71.8603L24.4051 72.3406C23.8286 71.6681 23.4923 70.8996 23.4923 69.6026C23.4443 67.7292 24.5492 66.4323 25.1738 66.4803C25.1738 66.4323 25.1738 66.4323 25.1738 66.4803ZM40.7392 71.6681C40.7873 71.8603 40.8353 72.0044 40.8353 72.1485C40.8353 72.3406 40.7873 72.4847 40.6432 72.4847C40.5471 72.4847 40.451 72.3886 40.451 72.2445C40.499 72.1004 40.6432 71.8603 40.7392 71.6681ZM24.7894 72.4367C24.8855 73.0131 24.9335 73.5895 24.9335 74.0218C24.9335 75.0786 24.5973 76.2795 23.9727 76.2795C23.7325 76.2795 23.5403 76.0393 23.5403 75.655C23.5403 74.3581 24.1649 73.2052 24.7894 72.4367ZM42.805 70.0349C42.6129 70.3231 42.4687 70.6594 42.4687 71.1397C42.4687 72.0524 42.9972 72.917 44.0061 72.917C45.0149 72.917 45.6875 72.1485 45.6875 71.0437C45.6875 70.7074 45.6875 70.7074 45.6395 70.5633C45.8797 70.4672 46.0719 70.3231 46.216 70.179C46.3601 70.083 46.4562 70.0349 46.5042 70.0349C46.6003 70.0349 46.6484 70.131 46.6484 70.2751V72.4367C46.6484 72.7729 46.7444 72.9651 47.0327 72.9651C47.2729 72.9651 47.4651 72.7729 47.5611 72.5808C47.9455 71.8122 48.4259 70.8035 48.6661 70.4192C48.7141 70.3231 48.7622 70.2751 48.8102 70.2751C48.8583 70.2751 48.8583 70.3231 48.8583 70.4672V72.1965C48.8583 72.6768 49.0985 73.0131 49.5789 73.0131C50.1073 73.0131 50.3476 72.5327 50.7799 71.7642C50.7799 71.7161 50.828 71.6681 50.828 71.6681C50.828 71.572 50.7319 71.524 50.6358 71.524C50.5397 71.524 50.4917 71.6201 50.1554 72.0044C50.1074 72.0524 50.0113 72.1485 49.9152 72.1485C49.8671 72.1485 49.8191 72.1004 49.8191 72.0524V70.131C49.8191 69.6026 49.5789 69.4105 49.2906 69.4105C49.0504 69.4105 48.8583 69.5065 48.6661 69.7948C48.2818 70.3231 47.8974 71.1397 47.7053 71.524C47.7053 71.572 47.6572 71.6201 47.6092 71.6201C47.6092 71.6201 47.5611 71.572 47.5611 71.524V70.131C47.5611 69.7467 47.4651 69.4105 47.0327 69.4105C46.6003 69.4105 46.3601 69.6987 46.0238 69.9389C45.8316 70.083 45.6395 70.179 45.4954 70.2751C45.2551 69.6987 44.8708 69.4105 44.5345 69.4585C44.1982 69.4585 43.958 69.6987 43.958 70.0349C43.958 70.3712 44.1982 70.6594 44.4865 70.7555C44.6306 70.8035 44.8228 70.8515 45.0149 70.8515C45.063 70.8515 45.1591 70.8515 45.2071 70.8515C45.2551 70.9476 45.2071 71.0917 45.2071 71.2358C45.2071 71.7642 44.8708 72.2926 44.2943 72.2926C43.6698 72.2926 43.3335 71.7161 43.3335 71.0437C43.3335 70.5153 43.4776 70.083 43.7178 69.7948C43.8139 69.6987 43.91 69.6026 43.91 69.5065C43.91 69.4585 43.8139 69.4585 43.7659 69.4585C43.3335 69.4585 42.9011 69.6507 42.5648 69.7948C42.1324 70.0349 41.652 70.3712 41.2677 70.7555C41.0755 70.3231 40.8353 69.9389 40.6912 69.6506C40.6432 69.5546 40.5951 69.4105 40.5471 69.4105C40.451 69.4105 40.451 69.5065 40.4029 69.6506C40.2108 70.2271 39.1539 71.9083 38.9137 72.1485C38.9137 72.1965 38.8656 72.1965 38.8656 72.1965C38.8176 72.1965 38.8176 72.1965 38.8176 72.1004V70.179C38.8176 69.6507 38.6254 69.4585 38.3372 69.4585C38.0969 69.4585 37.9048 69.5546 37.7126 69.8428C37.3283 70.3712 36.8959 71.1878 36.7037 71.572C36.6557 71.6201 36.6557 71.6681 36.6077 71.6681C36.6077 71.6681 36.6077 71.6201 36.6077 71.572V70.179C36.6077 69.6507 36.4155 69.4585 36.1272 69.4585C35.887 69.4585 35.6468 69.5546 35.4547 69.8428C34.9742 70.6113 34.2056 71.8122 34.1095 72.0044C34.1095 72.0524 34.0615 72.0524 34.0615 72.0524C34.0615 72.0524 34.0134 72.0524 34.0134 71.9563V70.131C34.0134 69.6026 33.8212 69.4105 33.533 69.4105C33.1487 69.4105 32.9085 69.7948 32.7643 69.9869C32.5722 70.3231 32.2839 70.7074 32.0917 71.1397C31.9476 71.4279 31.8515 71.6201 31.8035 71.6201C31.8035 71.6201 31.8035 71.524 31.8035 71.3319V69.8908C32.4761 69.1223 32.9085 68.1616 32.9085 67.1528C32.9085 66.5764 32.6682 66.2402 32.2359 66.2402C31.4672 66.2402 30.8907 67.441 30.8907 68.8341V69.9869C30.5544 70.2271 30.2181 70.3231 29.7857 70.3712C29.5936 69.7467 29.1612 69.4585 28.7769 69.4585C28.4406 69.4585 28.2004 69.6987 28.2004 70.0349C28.2004 70.6113 28.7769 70.8515 29.2573 70.8515H29.4014C29.4495 70.9476 29.4495 71.0917 29.4495 71.1878C29.4495 71.7161 29.1132 72.2445 28.5367 72.2445C27.9121 72.2445 27.5758 71.6681 27.5758 70.9956C27.5758 70.4672 27.72 70.0349 27.9602 69.7467C28.0563 69.6506 28.1523 69.5546 28.1523 69.4585C28.1523 69.4105 28.0563 69.4105 28.0082 69.4105C27.5758 69.4105 26.663 69.9869 25.6061 71.0437C25.51 70.179 25.414 69.3144 25.414 68.4978C25.414 67.5852 25.6061 66.7686 25.6542 66.5284C25.6542 66.3843 25.7022 66.2882 25.7022 66.2402C25.7022 66.1441 25.6542 66.0961 25.5581 66.0961C24.6933 66.0961 22.7236 67.4891 22.7236 69.6026C22.7236 71.0917 23.2521 71.8122 24.2129 72.7729C23.6364 73.6856 23.156 74.7904 23.156 75.7991C23.156 76.5196 23.3001 77.048 23.8286 77.048C24.9335 77.048 25.7503 74.7904 25.7503 73.1092C25.7503 72.6288 25.7503 72.1004 25.7022 71.6201C26.0865 71.1878 26.7111 70.6113 26.9033 70.5633C26.8552 70.8035 26.8072 71.0437 26.8072 71.2838C26.8072 72.1965 27.3356 73.0611 28.3445 73.0611C29.3053 73.0611 30.026 72.2926 30.026 71.1878C30.026 71.0437 30.026 70.9476 30.026 70.8035C30.3622 70.7554 30.6985 70.6594 30.9868 70.4672V72.6768C30.9868 72.9651 31.179 73.0611 31.3711 73.0611C31.6113 73.0611 31.7555 72.869 31.9476 72.4847C32.0917 72.1485 32.5241 71.3799 32.7643 70.9476C32.9565 70.6113 33.0526 70.3712 33.1487 70.3712C33.1487 70.3712 33.1967 70.4192 33.1967 70.5633V72.4367C33.1967 72.917 33.4369 73.0611 33.6771 73.0611C33.9173 73.0611 34.0615 72.9651 34.2056 72.7249C34.7821 71.9083 35.3586 70.9476 35.5988 70.5153C35.6468 70.4192 35.6949 70.3712 35.7429 70.3712C35.791 70.3712 35.791 70.3712 35.791 70.5153V72.4847C35.791 72.8209 35.887 73.0131 36.1753 73.0131C36.4155 73.0131 36.6077 72.821 36.7037 72.6288C37.0881 71.8603 37.6165 70.8996 37.8567 70.4672C37.9048 70.3712 37.9528 70.3231 38.0009 70.3231C38.0489 70.3231 38.0489 70.3712 38.0489 70.5153V72.3886C38.0489 72.869 38.2891 73.0131 38.5293 73.0131C38.8176 73.0131 39.0097 72.7729 39.2499 72.5327C39.5862 72.0524 40.1147 71.2358 40.451 70.7074C40.5471 70.8996 40.6912 71.0917 40.7873 71.3319C40.5471 71.6681 40.2588 72.0044 40.2588 72.3886C40.2588 72.7729 40.5471 73.0131 40.8353 73.0131C41.3157 73.0131 41.7962 72.5327 41.7962 71.8603C41.7962 71.6201 41.7001 71.3319 41.604 71.0437C41.8442 70.5633 42.4207 70.131 42.805 70.0349ZM31.7074 68.4498C31.7074 66.8166 32.0437 66.5764 32.1398 66.5764C32.332 66.5764 32.332 66.6725 32.332 67.2969C32.332 67.9214 32.0437 68.786 31.7074 69.2664V68.4498ZM28.6328 70.0349C28.6328 69.9389 28.6808 69.8908 28.7769 69.8908C28.921 69.8908 29.1132 70.0349 29.2573 70.3712C28.873 70.3231 28.6328 70.2271 28.6328 70.0349ZM44.4384 70.0349C44.4384 69.9389 44.4865 69.8908 44.5826 69.8908C44.7267 69.8908 44.9669 70.0349 45.063 70.3712C45.0149 70.3712 44.9669 70.3712 44.9189 70.3712C44.6786 70.3231 44.4384 70.2271 44.4384 70.0349Z" fill="#231F20"/>
<path d="M53.2782 71.8122C53.086 71.8122 52.9899 71.8122 52.7978 71.8122C52.3654 71.8122 52.0772 71.6681 52.0772 71.4279C52.0772 71.2838 52.1732 71.1878 52.3654 71.1878C52.7017 71.1878 52.9419 71.4279 53.2782 71.8122ZM55.4401 71.9563C55.6322 72.1965 55.8724 72.4847 56.1607 72.7249C55.5842 73.6375 55.1038 74.7424 55.1038 75.7511C55.1038 76.4716 55.2479 77 55.7764 77C56.8813 77 57.698 74.7424 57.698 73.0611C57.698 72.5808 57.698 72.0524 57.65 71.572C58.0343 71.1397 58.6589 70.5633 58.851 70.5153C58.803 70.7555 58.7549 70.9956 58.7549 71.2358C58.7549 72.1485 59.2834 73.0131 60.2923 73.0131C61.2531 73.0131 61.9737 72.2445 61.9737 71.1397C61.9737 70.9956 61.9737 70.8996 61.9737 70.7555C62.31 70.7074 62.6463 70.6114 62.9346 70.4192V72.6288C62.9346 72.917 63.1267 73.0131 63.3189 73.0131C63.5591 73.0131 63.7032 72.821 63.8954 72.4367C64.0395 72.1004 64.4719 71.3319 64.7121 70.8996C64.9043 70.5633 65.0003 70.3231 65.0964 70.3231C65.0964 70.3231 65.1445 70.3712 65.1445 70.5153V72.3886C65.1445 72.869 65.3847 73.0131 65.6249 73.0131C65.8651 73.0131 66.0092 72.917 66.1533 72.6769C66.7298 71.8603 67.3063 70.8996 67.5466 70.4672C67.5946 70.3712 67.6426 70.3231 67.6907 70.3231C67.7387 70.3231 67.7387 70.3231 67.7387 70.4672V72.4367C67.7387 72.7729 67.8348 72.9651 68.123 72.9651C68.3633 72.9651 68.5554 72.7729 68.6515 72.5808C69.0358 71.8122 69.5643 70.8515 69.7565 70.4192C69.8045 70.3231 69.8525 70.2751 69.9006 70.2751C69.9486 70.2751 69.9486 70.3231 69.9486 70.4672V72.3406C69.9486 72.821 70.1888 72.9651 70.429 72.9651C70.7173 72.9651 70.9575 72.7249 71.1497 72.4847C71.534 72.0044 72.0144 71.1878 72.3507 70.6594C72.4468 70.8515 72.5909 71.0437 72.687 71.2838C72.3988 71.6201 72.1585 71.9563 72.1585 72.3406C72.1585 72.7249 72.4468 72.9651 72.735 72.9651C73.2155 72.9651 73.6959 72.4847 73.6959 71.8122C73.6959 71.572 73.6478 71.2838 73.5037 70.9956C73.9361 70.5633 74.5126 70.131 74.8969 70.0349C74.7047 70.3231 74.5606 70.6594 74.5606 71.1397C74.5606 72.0524 75.0891 72.917 76.0979 72.917C77.1068 72.917 77.7794 72.1485 77.7794 71.0437C77.7794 70.7074 77.7794 70.7074 77.7314 70.5633C77.9716 70.4672 78.1637 70.3231 78.3079 70.179C78.452 70.083 78.5481 70.0349 78.5961 70.0349C78.6922 70.0349 78.7402 70.131 78.7402 70.2751V72.4367C78.7402 72.7729 78.8363 72.9651 79.1246 72.9651C79.3648 72.9651 79.5569 72.7729 79.653 72.5808C79.9893 71.8122 80.5178 70.8035 80.758 70.4192C80.806 70.3231 80.8541 70.2751 80.9021 70.2751C80.9502 70.2751 80.9502 70.3231 80.9502 70.4672V72.1965C80.9502 72.6769 81.1904 73.0131 81.6708 73.0131C82.1512 73.0131 82.4394 72.5327 82.8718 71.7642C82.8718 71.7162 82.9199 71.6681 82.9199 71.6681C82.9199 71.572 82.8238 71.524 82.7277 71.524C82.6316 71.524 82.5836 71.6201 82.2473 72.0044C82.1992 72.0524 82.1032 72.1485 82.0071 72.1485C81.959 72.1485 81.911 72.1004 81.911 72.0524V70.131C81.911 69.6026 81.6708 69.4105 81.3825 69.4105C81.1423 69.4105 80.9502 69.5065 80.758 69.7948C80.3737 70.3231 79.9893 71.1397 79.7972 71.524C79.7491 71.572 79.7491 71.6201 79.7011 71.6201C79.653 71.6201 79.653 71.572 79.653 71.524V70.131C79.653 69.7467 79.5569 69.4105 79.1246 69.4105C78.6922 69.4105 78.452 69.6987 78.1157 69.9389C77.9235 70.083 77.7314 70.179 77.5872 70.2751C77.3951 69.6987 76.9627 69.4105 76.6264 69.4585C76.2901 69.4585 76.0499 69.6987 76.0499 70.0349C76.0499 70.3712 76.2901 70.6594 76.5784 70.7555C76.7225 70.8035 76.9147 70.8515 77.1068 70.8515C77.1549 70.8515 77.2509 70.8515 77.299 70.8515C77.299 70.9476 77.299 71.0917 77.299 71.2358C77.299 71.7642 76.9627 72.2926 76.3862 72.2926C75.7617 72.2926 75.4254 71.7162 75.4254 71.0437C75.4254 70.5153 75.5695 70.083 75.8097 69.7948C75.9058 69.6987 76.0019 69.6026 76.0019 69.5065C76.0019 69.4585 75.9058 69.4585 75.8577 69.4585C75.4254 69.4585 74.993 69.6507 74.6567 69.7948C74.2243 70.0349 73.7439 70.3712 73.3596 70.7555C73.1674 70.3231 72.9272 69.9389 72.7831 69.6507C72.735 69.5546 72.687 69.4105 72.639 69.4105C72.5429 69.4105 72.5429 69.5065 72.4948 69.6507C72.3027 70.2271 71.2458 71.9083 71.0055 72.1485C71.0055 72.1965 70.9575 72.1965 70.9575 72.1965C70.9575 72.1965 70.9095 72.1965 70.9095 72.1004V70.179C70.9095 69.6507 70.7173 69.4585 70.429 69.4585C70.1888 69.4585 69.9967 69.5546 69.8045 69.8428C69.4682 70.3712 68.9878 71.1878 68.7956 71.572C68.7476 71.6201 68.7476 71.6681 68.6995 71.6681C68.6995 71.6681 68.6515 71.6201 68.6515 71.572V70.179C68.6515 69.6507 68.4593 69.4585 68.1711 69.4585C67.9309 69.4585 67.6907 69.5546 67.4985 69.8428C67.0181 70.6113 66.2494 71.8122 66.1533 72.0044C66.1533 72.0524 66.1053 72.0524 66.1053 72.0524C66.1053 72.0524 66.0573 72.0524 66.0573 71.9563V70.131C66.0573 69.6026 65.8651 69.4105 65.5768 69.4105C65.1925 69.4105 64.9523 69.7948 64.8082 69.9869C64.616 70.3231 64.3278 70.7074 64.1356 71.1397C63.9915 71.4279 63.8954 71.6201 63.8473 71.6201C63.7993 71.6201 63.7993 71.524 63.7993 71.3319V69.8908C64.4719 69.1223 64.9043 68.1616 64.9043 67.1528C64.9043 66.5764 64.616 66.2402 64.2317 66.2402C63.463 66.2402 62.8865 67.441 62.8865 68.8341V69.9869C62.5502 70.2271 62.2139 70.3231 61.7816 70.3712C61.5894 69.7467 61.157 69.4585 60.7727 69.4585C60.4364 69.4585 60.1962 69.6987 60.1962 70.0349C60.1962 70.6114 60.7727 70.8515 61.2531 70.8515H61.3972C61.3972 70.9476 61.3972 71.0917 61.3972 71.1878C61.3972 71.7162 61.0609 72.2445 60.4844 72.2445C59.8599 72.2445 59.5236 71.6681 59.5236 70.9956C59.5236 70.4672 59.6677 70.0349 59.9079 69.7467C60.004 69.6507 60.1001 69.5546 60.1001 69.4585C60.1001 69.4105 60.004 69.4105 59.956 69.4105C59.5236 69.4105 58.6108 69.9869 57.5059 71.0437C57.4098 70.179 57.3137 69.3144 57.3137 68.4978C57.3137 67.5852 57.5059 66.7686 57.5539 66.5284C57.5539 66.3843 57.6019 66.2882 57.6019 66.2402C57.6019 66.1441 57.5539 66.0961 57.4578 66.0961C56.5931 66.0961 54.6234 67.4891 54.6234 69.6026C54.6234 70.4672 54.8155 71.0917 55.1518 71.6201C55.0557 71.6201 54.9596 71.6201 54.8636 71.6201C54.5273 71.6201 54.191 71.7162 53.9988 71.7642V71.524C53.9988 71.0437 53.9027 70.4192 53.7106 70.179C53.7106 70.179 53.6625 70.131 53.6145 70.131C53.5184 70.131 53.4223 70.179 53.2782 70.2271C53.1341 70.2751 53.038 70.3712 53.038 70.4192C53.038 70.4672 53.038 70.4672 53.086 70.5153C53.1821 70.6114 53.3743 70.8515 53.4223 71.3319C53.038 70.9476 52.6056 70.8035 52.0772 70.8035C51.4046 70.8035 51.2124 71.0917 51.2124 71.3799C51.2124 71.9563 51.9811 72.2445 52.9419 72.2445C53.1341 72.2445 53.3262 72.1965 53.5184 72.1485C53.5184 72.3406 53.5184 72.4847 53.5184 72.6288C53.5184 72.821 53.5664 72.9651 53.6625 72.9651C53.8547 72.9651 53.9508 72.5808 53.9508 72.0524C54.2871 71.9563 54.6234 71.9083 54.9596 71.9083C55.0557 71.8603 55.2479 71.9083 55.4401 71.9563ZM57.2656 66.4803C57.2656 66.5284 57.1215 66.8646 56.9294 67.393C56.7372 67.9694 56.545 68.786 56.545 69.7467C56.545 70.3231 56.6891 71.0917 56.7852 71.8603L56.4489 72.3406C55.8724 71.6681 55.5361 70.8996 55.5361 69.6026C55.4881 67.7293 56.6411 66.4323 57.2656 66.4803C57.2176 66.4323 57.2656 66.4323 57.2656 66.4803ZM72.8311 71.6681C72.8792 71.8603 72.9272 72.0044 72.9272 72.1485C72.9272 72.3406 72.8792 72.4847 72.735 72.4847C72.639 72.4847 72.5429 72.3886 72.5429 72.2445C72.5429 72.1004 72.687 71.8603 72.8311 71.6681ZM56.8333 72.4367C56.9294 73.0131 56.9774 73.5895 56.9774 74.0218C56.9774 75.0786 56.6411 76.2795 56.0166 76.2795C55.7764 76.2795 55.5842 76.0393 55.5842 75.655C55.6322 74.3581 56.2087 73.2052 56.8333 72.4367ZM63.7513 68.4498C63.7513 66.8166 64.0876 66.5764 64.1836 66.5764C64.3758 66.5764 64.3758 66.6725 64.3758 67.2969C64.3758 67.9214 64.0876 68.786 63.7513 69.2664V68.4498ZM60.7246 70.0349C60.7246 69.9389 60.7727 69.8908 60.8688 69.8908C61.0129 69.8908 61.2051 70.0349 61.3492 70.3712C60.9168 70.3231 60.7246 70.2271 60.7246 70.0349ZM76.5303 70.0349C76.5303 69.9389 76.5784 69.8908 76.6745 69.8908C76.8186 69.8908 77.0107 70.0349 77.1549 70.3712C77.1068 70.3712 77.0588 70.3712 77.0107 70.3712C76.7225 70.3231 76.5303 70.2271 76.5303 70.0349Z" fill="#231F20"/>
</g>
<defs>
<clipPath id="clip0">
<rect width="157" height="77" fill="white"/>
</clipPath>
</defs>
</svg>
