<svg width="237" height="37" viewBox="0 0 237 37" fill="none" xmlns="http://www.w3.org/2000/svg">
<g clip-path="url(#clip0)">
<path d="M202.998 36.4701C205.392 36.4095 207.492 35.3436 208.995 33.8416C209.031 33.8174 210.057 32.7878 211.388 31.4676C212.146 30.7166 213.159 30.1836 214.295 30.0625C214.503 30.0261 215.04 30.014 215.101 30.014C215.504 30.014 215.907 30.0625 216.298 30.0988C217.532 30.2563 218.704 30.5954 219.803 31.0921L230.087 35.3315C230.087 35.3315 232.566 36.4701 234.667 36.4701H236.169C236.633 36.4701 236.987 36.0583 236.987 35.598V31.8552C236.987 29.263 235.461 26.7921 232.884 25.7383L230.661 24.8298C228.792 24.1394 226.74 22.7949 225.69 21.7895C225.69 21.7895 223.638 19.367 226.02 16.9808L235.155 7.89628C236.365 6.64868 236.963 5.0498 236.987 3.43881C236.987 3.43881 237 2.73628 236.804 2.08219C236.658 1.59769 236.34 1.16163 236.096 0.919379C235.51 0.33797 234.704 0.0351533 233.702 0.010928H232.261C229.867 0.0593787 227.766 1.10107 226.264 2.59093C226.203 2.65149 220.231 8.5867 218.667 10.1371L210.301 18.4828V5.35262C210.301 2.39712 207.883 -0.00118544 204.891 -0.00118544H202.57C201.947 -0.00118544 201.068 0.0109265 200.653 0.228955C200.299 0.410645 200.311 0.786138 200.311 1.13741V35.6707C200.311 36.1067 200.665 36.4701 201.117 36.4701H202.998Z" fill="#231F20"/>
<path d="M159.592 32.0127C159.592 32.0127 157.662 31.4676 153.839 28.4758C151.848 26.9253 150.395 25.7867 149.76 25.2901C150.468 24.8298 152.789 23.9214 154.889 21.5231C156.196 20.0453 156.892 18.18 156.892 15.8422C156.892 13.6498 156.27 11.6028 154.987 9.66477C153.705 7.73886 152.068 6.05519 150.041 4.63801C148.026 3.1966 145.754 2.07012 143.238 1.24646C140.71 0.410685 138.267 -0.00114504 135.824 -0.00114504C135.824 -0.00114504 121.01 -0.00114504 120.973 -0.00114504C120.533 -0.00114504 120.191 0.350123 120.191 0.798293V35.2831C120.191 35.6465 120.191 35.9977 120.533 36.1915C120.985 36.4338 122.023 36.4701 122.597 36.4701C123.452 36.4701 124.356 36.3853 125.174 36.131C126.432 35.707 127.507 34.847 128.313 33.7932C129.718 31.9521 130.072 29.8687 130.072 27.64V12.7172C130.072 12.5234 130.096 12.0389 130.182 11.7239C130.28 11.3969 130.463 11.0698 130.463 11.0698C131.574 9.01069 135.458 8.19914 139.611 9.25294C145.155 10.6459 146.792 14.4372 146.194 16.0724C145.571 17.8408 143.568 18.9431 141.076 18.9431C139.879 18.9431 138.646 18.7372 137.376 18.3375C137.339 18.3253 136.557 18.1194 135.934 17.8893C135.629 17.8045 135.055 17.5259 134.64 17.5259C134.225 17.5259 134.005 17.8529 134.005 18.5313V22.4315C134.005 23.7882 134.554 24.9631 135.36 25.6777C135.385 25.7141 147.488 35.162 147.488 35.162C148.673 36.022 149.931 36.4944 151.311 36.4944L159.311 36.5065C159.872 36.5065 160.153 36.131 160.153 35.4648V32.9332C160.166 32.5093 159.872 32.1096 159.592 32.0127Z" fill="#231F20"/>
<path d="M111.215 26.998H100.552C99.038 26.998 97.6579 26.5983 96.3144 26.029C95.1663 25.5445 93.4198 24.0304 92.8947 23.449C91.9298 22.383 91.1604 21.1476 90.623 19.7425C90.0734 18.3374 89.8047 16.896 89.8047 15.4183C89.8047 13.5166 90.3421 12.0388 91.4413 10.9971C91.5756 10.876 92.0397 10.4884 92.5893 10.1614C93.1389 9.84642 93.7374 9.67684 94.116 9.59205C94.7511 9.4467 95.4595 9.36191 96.1923 9.36191C96.9373 9.36191 97.6334 9.4467 98.2685 9.59205C99.4654 9.83431 100.65 10.3067 101.81 11.0335C103.471 12.0752 105.23 13.6619 106.415 15.1881H95.3129C94.6412 15.1881 94.3114 15.4788 94.3114 16.0602C94.3114 17.1988 94.4946 17.9377 94.9465 18.8583C95.3984 19.7909 97.5357 23.025 101.896 23.025H112.216C114.024 23.025 115.269 22.5526 115.966 21.5957C116.65 20.6388 116.845 19.8273 116.845 18.5433C116.845 16.4478 116.295 14.4008 115.172 12.1842C114.06 9.96755 112.546 7.95684 110.641 6.15205C108.748 4.33515 106.537 2.86952 104.009 1.73092C101.481 0.580219 98.8548 0.0109257 96.0945 0.0109257H80.9134C80.4737 0.0109257 80.1195 0.36219 80.1195 0.81036V15.7937C80.1195 18.6039 80.6569 21.2566 81.7561 23.7639C82.8553 26.2591 84.3331 28.4515 86.214 30.329C88.0948 32.2064 90.281 33.6842 92.7725 34.7864C95.264 35.8887 97.951 36.4701 100.809 36.4701H116.039C116.479 36.4701 116.833 36.1067 116.833 35.6707V32.6425C116.833 30.874 116.332 29.4932 115.343 28.4878C114.353 27.4946 112.961 26.998 111.215 26.998Z" fill="#231F20"/>
<path d="M76.773 5.36476C76.773 2.39715 74.3425 -0.00115474 71.3625 -0.00115474H65.6344C65.3535 -0.00115474 65.0971 0.119971 64.9016 0.289549L53.4211 10.9729C49.4884 14.6431 44.2 16.7022 38.3865 16.7022C32.3165 16.7022 26.8327 14.4493 22.8511 10.5126C22.8511 10.5126 14.4117 2.65152 14.3384 2.57884C12.7263 1.08898 10.5035 0.0594087 7.93866 -0.00115474H1.08699C0.488533 -0.00115474 0 0.483352 0 1.07687V31.1042C0 34.0597 2.43045 36.458 5.41051 36.458H7.49898H8.91573C9.51418 36.458 10.0027 35.9735 10.0027 35.3679V24.6966C10.0027 21.8986 12.311 19.5972 15.0712 19.5972C20.2375 19.5972 23.9259 23.9819 27.2724 26.9011C31.3638 30.4865 34.5149 33.9386 38.3987 33.9386C42.2703 33.9386 45.4214 30.4743 49.5128 26.9011C52.8593 23.9819 56.5477 19.5972 61.714 19.5972C64.462 19.5972 66.7581 21.8865 66.7825 24.6481V31.1042C66.7825 34.0597 69.2007 36.458 72.1808 36.458H74.5135C75.1242 36.458 75.686 36.458 75.686 36.458C76.2845 36.458 76.773 35.9735 76.773 35.3679C76.773 35.3679 76.773 5.61913 76.773 5.36476Z" fill="#231F20"/>
<path d="M196.17 21.196H190.613C188.574 21.196 187.243 22.0803 186.62 23.8366C186.253 24.9752 185.618 25.8836 184.739 26.5741C183.847 27.2524 182.736 27.6158 181.356 27.6158C180.061 27.6158 178.767 27.2403 177.435 26.5014C176.092 25.7746 174.907 24.8177 173.832 23.667C172.745 22.4921 171.89 21.196 171.231 19.7425C170.571 18.289 170.217 16.8597 170.217 15.4304C170.217 13.6377 170.767 12.1721 171.854 11.0577C172.965 9.95547 174.333 9.38617 175.994 9.38617C177.887 9.38617 179.768 10.0766 181.624 11.4574C182.382 12.0267 183.188 12.3053 184.055 12.3053C184.898 12.3053 185.801 11.8329 186.754 10.8881L190.528 7.19378C190.772 6.95152 190.845 6.7335 190.772 6.55181C190.699 6.358 190.565 6.15209 190.32 5.90983C188.281 4.05659 186.033 2.61519 183.615 1.5735C181.185 0.531805 178.644 0.0109605 175.982 0.0109605H161.094C160.52 0.0109605 160.227 0.338001 160.227 1.0042V15.7211C160.227 18.5676 160.801 21.2687 161.985 23.8366C163.146 26.4045 164.709 28.6453 166.688 30.5955C168.654 32.5335 170.913 34.1081 173.466 35.2589C176.006 36.4217 178.632 36.991 181.356 36.991C183.53 36.991 185.557 36.6276 187.414 35.9008C189.27 35.1741 190.87 34.1445 192.262 32.8363C193.642 31.5281 194.729 29.9777 195.535 28.1366C196.341 26.3197 196.818 24.3332 196.964 22.2014C197.001 21.5473 196.745 21.196 196.17 21.196Z" fill="#231F20"/>
</g>
<defs>
<clipPath id="clip0">
<rect width="237" height="37" fill="white"/>
</clipPath>
</defs>
</svg>
