<svg width="193" height="64" viewBox="0 0 193 64" fill="none" xmlns="http://www.w3.org/2000/svg">
<g clip-path="url(#clip0)">
<path d="M105.777 52.0957C105.777 51.9809 105.892 51.2536 105.435 50.756C105.169 50.4881 104.409 50.2584 103.8 50.2584C102.355 50.2584 101.443 50.5646 101.253 51.4067C100.987 52.6316 102.546 53.0144 103.724 53.1292C106.082 53.3589 110.226 54.2775 109.352 58.4115C108.401 62.7751 104.028 64.0383 101.025 64.0383C97.1465 64.0383 93.6865 62.622 94.561 58.1053L99.1996 57.9139C98.8574 59.4833 99.5799 60.4019 101.671 60.3636C102.736 60.3636 104.143 60.1723 104.295 59.0622C104.637 56.8038 101.557 57.6842 98.2491 56.1148C96.7282 55.3876 95.9678 53.6268 96.348 51.866C97.3746 47.9617 101.557 46.5837 104.104 46.5837C107.564 46.5837 111.139 47.8852 110.34 51.9043" fill="#231F20"/>
<path d="M109.618 63.311L113.154 46.7751H125.891L125.131 50.4115H116.994L116.462 52.9761H123.686L122.925 56.6125H115.701L115.017 59.6747H123.115L122.355 63.311" fill="#231F20"/>
<path d="M152.545 46.7751H157.259L147.868 63.311H143.533L141.176 46.7751H146.309L147.259 57.6842H147.335" fill="#231F20"/>
<path d="M154.826 63.311L158.362 46.7751H163.001L159.427 63.311" fill="#231F20"/>
<path d="M161.746 63.311L165.282 46.7751H178.019L177.221 50.4115H169.122L168.59 52.9761H175.814L175.016 56.6125H167.791L167.145 59.6747H175.244L174.445 63.311" fill="#231F20"/>
<path d="M136.803 55.3493C138.552 55.732 138.933 56.1148 138.59 60.2488C138.438 62.2775 138.628 62.0095 138.742 63.311H133.99C133.724 61.8947 133.876 59.3684 133.876 59.3684C133.876 59.3684 134.104 57.378 131.746 57.378H129.997L128.743 63.2727H124.104L127.64 46.7368H135.359C138.172 46.7368 140.872 47.043 140.682 50.6794C140.53 53.244 138.324 54.6603 136.803 55.3493ZM132.545 53.7799C134.028 53.7799 135.359 53.8947 135.739 52.3253C136.119 50.6411 134.712 50.4115 133.229 50.4115H131.442L130.758 53.7799H132.545Z" fill="#231F20"/>
<path d="M47.2235 29.0909H154.94L52.3945 23.311" fill="#231F20"/>
<path d="M54.2576 21.244H133.381L59.4286 15.4641" fill="#231F20"/>
<path d="M61.2915 13.4354H111.253L66.4625 7.65552" fill="#231F20"/>
<path d="M68.3257 5.58852H89.0477L73.4967 0" fill="#231F20"/>
<path d="M100.15 34.2966H0L94.9791 40.0765" fill="#231F20"/>
<path d="M93.116 42.1052H19.3152L87.945 47.8851" fill="#231F20"/>
<path d="M86.0819 49.9521H39.4288L80.9109 55.7321" fill="#231F20"/>
<path d="M79.0478 57.7607H58.3258L73.8768 63.3493" fill="#231F20"/>
<path d="M189.084 55.3493C190.833 55.732 191.213 56.1148 190.871 60.2488C190.681 62.2775 190.909 62.0095 190.985 63.311H186.232C185.966 61.8947 186.118 59.3684 186.118 59.3684C186.118 59.3684 186.346 57.378 183.989 57.378H182.24L180.985 63.2727H176.346L179.882 46.7368H187.601C190.414 46.7368 193.114 47.043 192.924 50.6794C192.848 53.244 190.643 54.6603 189.084 55.3493ZM184.863 53.7799C186.346 53.7799 187.677 53.8947 188.057 52.3253C188.437 50.6411 187.031 50.4115 185.548 50.4115H183.761L183.076 53.7799H184.863Z" fill="#231F20"/>
<path d="M27.4899 0.995239L25.6649 10.1436L18.4027 4.32538L22.8132 12.5168L13.5739 12.7464L22.1668 16.1914L15.2468 22.3541L24.0299 19.4067L22.6611 28.6316L27.4899 20.6699L32.3187 28.5933L30.9499 19.4067L39.733 22.3541L32.813 16.1914L41.406 12.7464L32.1666 12.5168L36.5772 4.32538L29.315 10.1436" fill="#231F20"/>
</g>
<defs>
<clipPath id="clip0">
<rect width="193" height="64" fill="white"/>
</clipPath>
</defs>
</svg>
